<svg xmlns="http://www.w3.org/2000/svg" viewBox="0 0 451.31 433.58"><defs><style>.cls-1{fill:#f5f5f5;}.cls-2{fill:#e1e1e1;}.cls-13,.cls-21,.cls-22,.cls-3,.cls-33,.cls-36,.cls-9{fill:#fff;}.cls-4{fill:#ececec;}.cls-5{opacity:0.15;}.cls-6{fill:#d268cc;}.cls-7,.cls-9{opacity:0.2;}.cls-8{fill:#3f964f;}.cls-10{fill:#0e6a41;}.cls-11{fill:#439e53;}.cls-12{fill:#375a64;}.cls-13,.cls-14{opacity:0.1;}.cls-15{fill:#ffaaa8;}.cls-16,.cls-30{opacity:0.3;}.cls-17{fill:#013f4a;}.cls-18{fill:#1a2e35;}.cls-19,.cls-36{opacity:0.4;}.cls-20{fill:#ff9090;}.cls-21,.cls-42{opacity:0.5;}.cls-22{opacity:0.7;}.cls-23{fill:#2b454e;}.cls-24{fill:#ffa9a7;}.cls-25{fill:#8c3923;}.cls-26{fill:#02b6d7;}.cls-27{fill:#0198b5;}.cls-28{fill:#e0e0e0;}.cls-29{fill:#015d6e;}.cls-31{fill:#16535e;}.cls-32{fill:#268c9e;}.cls-33{opacity:0.14;}.cls-34{fill:#67bfcf;}.cls-35{isolation:isolate;}.cls-37{opacity:0.6;}.cls-38{fill:#693166;}.cls-39{fill:#0293ad;}.cls-40{fill:#fafafa;}.cls-41{fill:#f0f0f0;}</style></defs><title>Recurso 5transp</title><g id="Capa_2" data-name="Capa 2"><g id="Layer_1" data-name="Layer 1"><path class="cls-1" d="M384.69,210.44c-88.4-51-231.28-51-319.11,0s-87.38,133.81,1,184.85,231.29,51,319.13,0S473.11,261.49,384.69,210.44Z"/><path class="cls-2" d="M130.35,293.32c29.62-17.1,77.48-17.1,106.91,0,26,15.11,28.89,38.51,8.78,55.55,16.23-1,33,2.08,45.43,9.28,21.74,12.64,21.63,33.13-.26,45.77s-57.26,12.63-79,0c-17.31-10.06-20.75-25.08-10.42-37.16-24.93,3.6-52.38-.23-71.79-11.52C100.57,338.14,100.73,310.42,130.35,293.32Z"/><path class="cls-2" d="M64.17,335.85c-6.54-3.77-17.11-3.77-23.6,0s-6.47,9.9.07,13.67,17.11,3.78,23.61,0S70.71,339.63,64.17,335.85Z"/><path class="cls-3" d="M68.24,314.13l-15.83.46-15.83-.46c-.69,10.69,1.4,21.59,4.28,26.91h0A7.31,7.31,0,0,0,44,344.23c4.68,2.69,12.23,2.69,16.87,0A7,7,0,0,0,64,341C66.86,335.6,68.92,324.77,68.24,314.13Z"/><path class="cls-4" d="M63.57,307.64c6.2,3.58,6.23,9.39.07,13s-16.19,3.58-22.39,0-6.24-9.39-.07-13S57.36,304.06,63.57,307.64Z"/><path class="cls-2" d="M61.11,309.07c4.84,2.79,4.87,7.32.06,10.12s-12.63,2.79-17.47,0-4.86-7.33-.05-10.12S56.27,306.27,61.11,309.07Z"/><g class="cls-5"><path d="M61.11,309.07c4.84,2.79,4.87,7.32.06,10.12s-12.63,2.79-17.47,0-4.86-7.33-.05-10.12S56.27,306.27,61.11,309.07Z"/></g><path class="cls-6" d="M78.44,246.56c-35.68,11.69-36,35.56-28,52.56,2,3.44,8.17,5.28,13.51-15.86l-9.37,1.21,10.92-5.54,2.84-8.48-9.11.68,11.56-4.87A171.38,171.38,0,0,1,78.44,246.56Z"/><path class="cls-7" d="M78.44,246.56c-35.68,11.69-36,35.56-28,52.56,2,3.44,8.17,5.28,13.51-15.86l-9.37,1.21,10.92-5.54,2.84-8.48-9.11.68,11.56-4.87A171.38,171.38,0,0,1,78.44,246.56Z"/><path class="cls-8" d="M78.44,246.56c-35.68,11.69-36,35.56-28,52.56,2,3.44,8.17,5.28,13.51-15.86l-9.37,1.21,10.92-5.54,2.84-8.48-9.11.68,11.56-4.87A171.38,171.38,0,0,1,78.44,246.56Z"/><path class="cls-3" d="M68.35,252.53c-18.82,14.28-20.52,30.66-15.2,47.75C51.27,285.23,49.24,270,68.35,252.53Z"/><path class="cls-6" d="M18,270.81c35.17,4.95,39.43,27.13,34.77,44.3-1.32,3.54-6.73,6.28-15.22-12.52l8.93-.44L35.4,298.81l-4-7.42,8.59-.89-11.57-2.61A163.54,163.54,0,0,0,18,270.81Z"/><path class="cls-9" d="M18,270.81c35.17,4.95,39.43,27.13,34.77,44.3-1.32,3.54-6.73,6.28-15.22-12.52l8.93-.44L35.4,298.81l-4-7.42,8.59-.89-11.57-2.61A163.54,163.54,0,0,0,18,270.81Z"/><path class="cls-10" d="M18,270.81c35.17,4.95,39.43,27.13,34.77,44.3-1.32,3.54-6.73,6.28-15.22-12.52l8.93-.44L35.4,298.81l-4-7.42,8.59-.89-11.57-2.61A163.54,163.54,0,0,0,18,270.81Z"/><path class="cls-3" d="M28.4,274.69c19.89,10.18,24.2,25.14,22.08,41.95C49.74,302.31,49.1,287.8,28.4,274.69Z"/><path class="cls-11" d="M88.73,279.12c-32.25.53-38.58,20-36.29,36,.79,3.34,5.36,6.41,15.11-9.58l-8-1.4,10.37-1.77,4.48-6.24-7.65-1.76,10.72-1.05A148,148,0,0,1,88.73,279.12Z"/><path class="cls-3" d="M78.93,281.46c-19.07,6.94-24.62,20-24.6,35.33C56.61,304,58.81,291,78.93,281.46Z"/><path class="cls-12" d="M223,234.4c10.1,7,21.48,11.86,29.91,21.27,15.76,17.56,16.13,45.83,3.75,65.92s-35.39,32.16-58.82,34.92c-24.59,2.9-50.39-3.89-69.68-19.41s-31.56-39.77-31.55-64.53,12.69-49.4,33.42-62.93c18.92-12.34,46.11-15.86,65.09-1.74,9.6,7.14,16,17.67,25.57,24.83C221.4,233.3,222.17,233.86,223,234.4Z"/><path class="cls-7" d="M223,234.4c10.1,7,21.48,11.86,29.91,21.27,15.76,17.56,16.13,45.83,3.75,65.92s-35.39,32.16-58.82,34.92c-24.59,2.9-50.39-3.89-69.68-19.41s-31.56-39.77-31.55-64.53,12.69-49.4,33.42-62.93c18.92-12.34,46.11-15.86,65.09-1.74,9.6,7.14,16,17.67,25.57,24.83C221.4,233.3,222.17,233.86,223,234.4Z"/><path class="cls-13" d="M223,234.4c10.1,7,21.48,11.86,29.91,21.27,15.76,17.56,16.13,45.83,3.75,65.92s-35.39,32.16-58.82,34.92c-24.59,2.9-50.39-3.89-69.68-19.41s-31.56-39.77-31.55-64.53,12.69-49.4,33.42-62.93c18.92-12.34,46.11-15.86,65.09-1.74,9.6,7.14,16,17.67,25.57,24.83C221.4,233.3,222.17,233.86,223,234.4Z"/><path class="cls-14" d="M218.83,337.31c0-.16,0-.33-.07-.5a26.57,26.57,0,0,0-21.54-22.15,84,84,0,0,1-27.6-10.57c-6-3.65-11.73-8.12-18.49-10.09a30.13,30.13,0,0,0-19.94,1.15c5.69-6,15.44-8.59,23.23-5.89-5.39-8.26-10.14-17.15-12-26.83s-.53-20.3,5.3-28.25a28.42,28.42,0,0,1,43.88-2.34c5.78,6.32,9,15.22,12.84,22.9,2.73,5.52,5.55,11.17,10,15.37,6.79,6.34,16.54,8.63,23.57,14.7,8,6.88,11.42,17.89,11.45,28.42a83.38,83.38,0,0,1-3.08,21,79.85,79.85,0,0,1-28.84,17.63A31.31,31.31,0,0,0,218.83,337.31Z"/><path class="cls-3" d="M109.76,269.18A72.22,72.22,0,0,1,171.39,199a51.09,51.09,0,0,1,7,1.17,70.43,70.43,0,0,0-66.71,69c-.45,23,10.82,46.52,30.15,62.82,15.15,12.77,35.27,21.24,57.39,24.29l-1.41.18c-2,.24-4,.4-6,.51-19.65-3.81-37.45-11.91-51.22-23.53C120.82,316.83,109.29,292.79,109.76,269.18Z"/><path class="cls-15" d="M244.58,329.61a71.67,71.67,0,0,0-1.23,11.5l-2.72-1a7.06,7.06,0,0,0-7.58,1.73l-.14.14a2.74,2.74,0,0,1-3.79.17h0a2.78,2.78,0,0,1-.94-2l-.36-11.61Z"/><path class="cls-1" d="M234.05,372.76c5.66,6.06,16.09,11.35,23.66,6.18l-.85,1.93c-7.57,5.16-18-.13-23.66-6.18s-2-10.25-7.08-15.62a18.52,18.52,0,0,1-4.4-6.54c.23-.58.44-1.34.71-2.2a23.27,23.27,0,0,0,4.54,6.81C232.07,362.51,228.4,366.71,234.05,372.76Z"/><path class="cls-6" d="M225.22,344a11,11,0,0,0,1.78-4.13,2.4,2.4,0,0,1,1.12-1.68l.06,1.95a2.78,2.78,0,0,0,.94,2,2.74,2.74,0,0,0,3.79-.17l.14-.14a7.06,7.06,0,0,1,7.58-1.73l2.77,1.05a2.11,2.11,0,0,1,1.37,2c-.17,7.94,3.54,18.48,7.42,24.27,4,1.66,7.46,7.11,5.69,11.11l-.17.39c-7.57,5.17-18-.12-23.66-6.18s-2-10.25-7.08-15.62a23.27,23.27,0,0,1-4.54-6.81A24.82,24.82,0,0,1,225.22,344Z"/><path class="cls-16" d="M225.22,344a11,11,0,0,0,1.78-4.13,2.4,2.4,0,0,1,1.12-1.68l.06,1.95a2.78,2.78,0,0,0,.94,2,2.74,2.74,0,0,0,3.79-.17l.14-.14a7.06,7.06,0,0,1,7.58-1.73l2.77,1.05a2.11,2.11,0,0,1,1.37,2c-.17,7.94,3.54,18.48,7.42,24.27,4,1.66,7.46,7.11,5.69,11.11l-.17.39c-7.57,5.17-18-.12-23.66-6.18s-2-10.25-7.08-15.62a23.27,23.27,0,0,1-4.54-6.81A24.82,24.82,0,0,1,225.22,344Z"/><path class="cls-17" d="M225.22,344a11,11,0,0,0,1.78-4.13,2.4,2.4,0,0,1,1.12-1.68l.06,1.95a2.78,2.78,0,0,0,.94,2,2.74,2.74,0,0,0,3.79-.17l.14-.14a7.06,7.06,0,0,1,7.58-1.73l2.77,1.05a2.11,2.11,0,0,1,1.37,2c-.17,7.94,3.54,18.48,7.42,24.27,4,1.66,7.46,7.11,5.69,11.11l-.17.39c-7.57,5.17-18-.12-23.66-6.18s-2-10.25-7.08-15.62a23.27,23.27,0,0,1-4.54-6.81A24.82,24.82,0,0,1,225.22,344Z"/><path class="cls-3" d="M236.29,355.46a1,1,0,0,1-.89-1.71,11,11,0,0,1,10.87,0q.25.93.54,1.86A10.65,10.65,0,0,0,236.29,355.46Z"/><path class="cls-3" d="M234.9,351.17a1,1,0,0,1-.89-1.71,11.59,11.59,0,0,1,11.31.09c.12.64.25,1.29.39,1.94C242.41,349.75,239.09,349.06,234.9,351.17Z"/><path class="cls-3" d="M237.82,359.74a1,1,0,0,1-1.28-.44,1,1,0,0,1,.39-1.28,11,11,0,0,1,10.64-.11c.24.68.5,1.33.76,2A10.64,10.64,0,0,0,237.82,359.74Z"/><path class="cls-3" d="M252.19,367.44c4,1.66,7.46,7.11,5.69,11.11l-.17.39C250.25,384,240,379,234.32,373,239.08,363.68,249.05,366,252.19,367.44Z"/><path class="cls-3" d="M239.5,363.91a1,1,0,0,1-1.29-.44,1,1,0,0,1,.4-1.28,11.05,11.05,0,0,1,10.66-.1c.34.75.69,1.45,1,2.14C247,362.49,243.68,361.79,239.5,363.91Z"/><path class="cls-15" d="M256.48,352.7a71.14,71.14,0,0,0,3.52,11l-2.91.16a7,7,0,0,0-6.24,4.64l-.07.18a2.75,2.75,0,0,1-3.4,1.69h0a2.77,2.77,0,0,1-1.66-1.43l-5-10.48Z"/><path class="cls-1" d="M264.26,396.42c7.63,3.26,19.3,3.89,24.14-3.89v2.11c-4.84,7.78-16.51,7.14-24.14,3.89s-5.95-8.58-12.78-11.44a18.41,18.41,0,0,1-6.67-4.2c0-.62-.13-1.4-.24-2.3a23.4,23.4,0,0,0,6.91,4.4C258.31,387.85,256.64,393.17,264.26,396.42Z"/><path class="cls-6" d="M244.57,373.68a11,11,0,0,0,0-4.5,2.39,2.39,0,0,1,.35-2l.84,1.76a2.75,2.75,0,0,0,5.06-.26l.07-.18a7,7,0,0,1,6.24-4.64l3-.16a2.13,2.13,0,0,1,2.09,1.31c3,7.34,10.69,15.49,16.58,19.22,4.33-.1,9.69,3.49,9.69,7.86v.43c-4.84,7.78-16.51,7.15-24.14,3.89s-5.95-8.57-12.78-11.43a23.4,23.4,0,0,1-6.91-4.4A25.1,25.1,0,0,1,244.57,373.68Z"/><path class="cls-16" d="M244.57,373.68a11,11,0,0,0,0-4.5,2.39,2.39,0,0,1,.35-2l.84,1.76a2.75,2.75,0,0,0,5.06-.26l.07-.18a7,7,0,0,1,6.24-4.64l3-.16a2.13,2.13,0,0,1,2.09,1.31c3,7.34,10.69,15.49,16.58,19.22,4.33-.1,9.69,3.49,9.69,7.86v.43c-4.84,7.78-16.51,7.15-24.14,3.89s-5.95-8.57-12.78-11.43a23.4,23.4,0,0,1-6.91-4.4A25.1,25.1,0,0,1,244.57,373.68Z"/><path class="cls-17" d="M244.57,373.68a11,11,0,0,0,0-4.5,2.39,2.39,0,0,1,.35-2l.84,1.76a2.75,2.75,0,0,0,5.06-.26l.07-.18a7,7,0,0,1,6.24-4.64l3-.16a2.13,2.13,0,0,1,2.09,1.31c3,7.34,10.69,15.49,16.58,19.22,4.33-.1,9.69,3.49,9.69,7.86v.43c-4.84,7.78-16.51,7.15-24.14,3.89s-5.95-8.57-12.78-11.43a23.4,23.4,0,0,1-6.91-4.4A25.1,25.1,0,0,1,244.57,373.68Z"/><path class="cls-3" d="M259.33,379.69a1,1,0,0,1-1.51-1.21,11.06,11.06,0,0,1,10-4.37c.4.5.82,1,1.24,1.49A10.63,10.63,0,0,0,259.33,379.69Z"/><path class="cls-3" d="M256.32,376.33a1,1,0,0,1-1.51-1.21,11.62,11.62,0,0,1,10.39-4.49c.37.55.75,1.09,1.15,1.63C262.62,372,259.3,372.7,256.32,376.33Z"/><path class="cls-3" d="M262.45,383a1,1,0,0,1-1.5-1.21,11,11,0,0,1,9.69-4.39c.49.52,1,1,1.49,1.51C268.54,378.7,265.34,379.47,262.45,383Z"/><path class="cls-3" d="M278.71,384.24c4.33-.1,9.69,3.49,9.69,7.86v.43c-4.77,7.67-16.16,7.16-23.79,4C265.2,386.09,275.25,384.2,278.71,384.24Z"/><path class="cls-3" d="M265.67,386.12a1,1,0,0,1-1.51-1.21,11.05,11.05,0,0,1,9.72-4.39c.61.54,1.21,1.05,1.81,1.53C272,381.79,268.64,382.5,265.67,386.12Z"/><path class="cls-18" d="M211.7,253.55l38.16,21.26a18.9,18.9,0,0,1,9.38,20l-7.4,39.88,6.07,19.3c-5.24,7-17.27,7.38-17.27,7.38-6.71-13.46-11.63-19.17-15.44-30.45s-6.35-19.05-6.35-19.05l-31.69-8.66a37.55,37.55,0,0,1-27.45-31.95c-.54-4.79-.57-8.06-.57-8.06Z"/><path class="cls-7" d="M211.41,264.27a18.08,18.08,0,0,1-4.26,11.63l26.92,16.85a19.35,19.35,0,0,1,8.24,10.74l9.53,31.16-8.6-34.7a15.73,15.73,0,0,0-7-9.6L211.38,275C213.93,268.63,211.41,264.27,211.41,264.27Z"/><path class="cls-2" d="M181.26,279.17a1.44,1.44,0,0,0,.05.5.08.08,0,0,0,0,0,1.75,1.75,0,0,0,.19.39l0,0a2,2,0,0,0,.34.38l0,0a3,3,0,0,0,.52.36l27.92,16.23a4.49,4.49,0,0,0,.8.35l.31.1.4.1.5.08.12,0,.68,0h.11l.67,0H214c.22,0,.43-.07.65-.12l.11,0,.57-.17.1,0a4.27,4.27,0,0,0,.61-.29l46.07-26.6a2.55,2.55,0,0,0,.52-.37.86.86,0,0,0,.13-.14,2.11,2.11,0,0,0,.25-.27c0-.05.05-.11.09-.17s.1-.17.13-.26a1.25,1.25,0,0,0,0-.19,1.17,1.17,0,0,0,0-.26v1.63a57.61,57.61,0,0,1-.07.45,2.1,2.1,0,0,1-.13.26c0,.06-.05.12-.09.18a2,2,0,0,1-.25.26l-.13.15a3.66,3.66,0,0,1-.52.37l-46.07,26.59a4.27,4.27,0,0,1-.61.29l-.1,0-.57.17-.11,0c-.22.05-.43.08-.65.11h-.11a4.92,4.92,0,0,1-.67,0h-.11a5.07,5.07,0,0,1-.68,0h-.12l-.5-.09-.4-.1-.31-.09a4.51,4.51,0,0,1-.8-.36l-27.92-16.22a3.66,3.66,0,0,1-.52-.37l0,0a2,2,0,0,1-.34-.39l0,0a1.75,1.75,0,0,1-.19-.39s0,0,0,0a1.47,1.47,0,0,1,0-.36h0v-1.77Z"/><path class="cls-7" d="M181.26,279.17a1.44,1.44,0,0,0,.05.5.08.08,0,0,0,0,0,1.75,1.75,0,0,0,.19.39l0,0a2,2,0,0,0,.34.38l0,0a3,3,0,0,0,.52.36l27.92,16.23a4.49,4.49,0,0,0,.8.35l.31.1.4.1.5.08.12,0,.68,0h.11l.67,0H214c.22,0,.43-.07.65-.12l.11,0,.57-.17.1,0a4.27,4.27,0,0,0,.61-.29l46.07-26.6a2.55,2.55,0,0,0,.52-.37.86.86,0,0,0,.13-.14,2.11,2.11,0,0,0,.25-.27c0-.05.05-.11.09-.17s.1-.17.13-.26a1.25,1.25,0,0,0,0-.19,1.17,1.17,0,0,0,0-.26v1.63a57.61,57.61,0,0,1-.07.45,2.1,2.1,0,0,1-.13.26c0,.06-.05.12-.09.18a2,2,0,0,1-.25.26l-.13.15a3.66,3.66,0,0,1-.52.37l-46.07,26.59a4.27,4.27,0,0,1-.61.29l-.1,0-.57.17-.11,0c-.22.05-.43.08-.65.11h-.11a4.92,4.92,0,0,1-.67,0h-.11a5.07,5.07,0,0,1-.68,0h-.12l-.5-.09-.4-.1-.31-.09a4.51,4.51,0,0,1-.8-.36l-27.92-16.22a3.66,3.66,0,0,1-.52-.37l0,0a2,2,0,0,1-.34-.39l0,0a1.75,1.75,0,0,1-.19-.39s0,0,0,0a1.47,1.47,0,0,1,0-.36h0v-1.77Z"/><path class="cls-2" d="M263.27,269.33c0,.09-.09.17-.13.26s-.05.12-.09.17a2.11,2.11,0,0,1-.25.27.86.86,0,0,1-.13.14,2.55,2.55,0,0,1-.52.37l-46.07,26.6a4.27,4.27,0,0,1-.61.29l-.1,0-.57.17-.11,0c-.22,0-.43.09-.65.12h-.11l-.67,0h-.11l-.68,0-.12,0-.5-.08-.4-.1-.31-.1a4.49,4.49,0,0,1-.8-.35l-27.92-16.23a3,3,0,0,1-.52-.36l0,0a2,2,0,0,1-.34-.38l0,0a1.75,1.75,0,0,1-.19-.39.08.08,0,0,1,0,0,1.44,1.44,0,0,1-.05-.5,2.08,2.08,0,0,1,1.18-1.58L228.51,251a6.35,6.35,0,0,1,5.73,0l27.92,16.23a2,2,0,0,1,1.18,1.66,1.17,1.17,0,0,1,0,.26A1.25,1.25,0,0,1,263.27,269.33Z"/><path class="cls-2" d="M259.43,268.88l-44.75,25.84-.17.08-.1,0a2.11,2.11,0,0,1-.35.11l-.25.05h-.17c-.12,0-.25,0-.43,0h0l-.46,0-.29-.06-.37-.09a2,2,0,0,1-.31-.13l-14.39-8.37,46.23-26.69Z"/><path class="cls-18" d="M213.16,295h0Z"/><path class="cls-2" d="M216.86,261.77l8.42,5a.86.86,0,0,1,0,1.48l-12.59,7.26a1.4,1.4,0,0,1-1.41,0l-8.41-4.95a.86.86,0,0,1,0-1.48l12.59-7.26A1.4,1.4,0,0,1,216.86,261.77Z"/><path class="cls-19" d="M259.43,268.88l-44.75,25.84-.17.08-.1,0a2.11,2.11,0,0,1-.35.11l-.25.05h-.17c-.12,0-.25,0-.43,0h0l-.46,0-.29-.06-.37-.09a2,2,0,0,1-.31-.13l-14.39-8.37,46.23-26.69Z"/><path class="cls-19" d="M216.86,261.77l8.42,5a.86.86,0,0,1,0,1.48l-12.59,7.26a1.4,1.4,0,0,1-1.41,0l-8.41-4.95a.86.86,0,0,1,0-1.48l12.59-7.26A1.4,1.4,0,0,1,216.86,261.77Z"/><path class="cls-2" d="M213.49,295.49l4.77-30.33a5.62,5.62,0,0,1,2.71-4l46.39-27a1.38,1.38,0,0,1,1.23-.07h0l1.1.55-.37.14a1.33,1.33,0,0,1,.12.82L264.67,266a5.62,5.62,0,0,1-2.71,4l-46.39,27a1.6,1.6,0,0,1-.3.13l0,.44-1.06-.52h0A1.36,1.36,0,0,1,213.49,295.49Z"/><path class="cls-16" d="M213.49,295.49l4.77-30.33a5.62,5.62,0,0,1,2.71-4l46.39-27a1.38,1.38,0,0,1,1.23-.07h0l1.1.55-.37.14a1.33,1.33,0,0,1,.12.82L264.67,266a5.62,5.62,0,0,1-2.71,4l-46.39,27a1.6,1.6,0,0,1-.3.13l0,.44-1.06-.52h0A1.36,1.36,0,0,1,213.49,295.49Z"/><path class="cls-2" d="M221.91,261.66l46.38-27a1.4,1.4,0,0,1,2.09,1.43l-4.77,30.32a5.56,5.56,0,0,1-2.72,4l-46.38,27a1.4,1.4,0,0,1-2.09-1.43l4.77-30.32A5.58,5.58,0,0,1,221.91,261.66Z"/><path class="cls-3" d="M244.39,262.44a10.26,10.26,0,0,0-4.61,6.63c-.3,2.37,1.26,3.25,3.51,1.95a10.23,10.23,0,0,0,4.6-6.63C248.2,262,246.62,261.15,244.39,262.44Z"/><path class="cls-20" d="M217,216.37l12.57,10.21,8.28-13.44-10.43-11.75C218.26,205.45,217,216.37,217,216.37Z"/><path class="cls-12" d="M198.56,181.65c9.88-1.11,10.79,1.08,17.19,7.12s12.88,12.84,12.88,12.84c-9.88,4.83-11,16.58-11,16.58-5.38-4.18-9.93-7.47-9.93-7.47Z"/><path class="cls-21" d="M198.56,181.65c9.88-1.11,10.79,1.08,17.19,7.12s12.88,12.84,12.88,12.84c-9.88,4.83-11,16.58-11,16.58-5.38-4.18-9.93-7.47-9.93-7.47Z"/><path class="cls-12" d="M162.48,189.5c14.05-6.59,24.59-7.35,36.08-7.85,17.19,11.07,10.75,20.29,10.46,35.07s-3.51,23.71,6.73,39.08c-22.54,18-51,12.31-57.81,8C153.55,222.87,154.84,192.66,162.48,189.5Z"/><path class="cls-22" d="M162.48,189.5c14.05-6.59,24.59-7.35,36.08-7.85,17.19,11.07,10.75,20.29,10.46,35.07s-3.51,23.71,6.73,39.08c-22.54,18-51,12.31-57.81,8C153.55,222.87,154.84,192.66,162.48,189.5Z"/><path class="cls-23" d="M205.31,159.27a12,12,0,0,0,1.27-16.16,6.48,6.48,0,0,0,2.75-3.36,3.5,3.5,0,0,0-5.1-4,4.91,4.91,0,0,0-2.68-5.43,4.64,4.64,0,0,0-5.58,1.8,3.13,3.13,0,0,0-2.52-2.78,6.37,6.37,0,0,0-3.92.77c-1.22.6-2.34,1.39-3.57,2a28.91,28.91,0,0,1-6.63,1.74,13.82,13.82,0,0,0-6.29,2.59c-1.75,1.48-3.06,4.59-1.7,6.94a3.8,3.8,0,0,0-2.9-1.08,3.65,3.65,0,0,0-2.62,1.54c1.53.7,3,1.46,4.56,2.16-1.51-.46-3.51.83-4.1,2.29a8.69,8.69,0,0,0-.17,4.67,61.55,61.55,0,0,0,5.42,17.1c1.35,2.79,3.15,5.7,6.09,6.68Z"/><path class="cls-24" d="M205.15,144.77a14.81,14.81,0,0,1-9.85,4.15c-3.46,0-6.82-1.1-10.16-2a7.81,7.81,0,0,1-2.29,4.25,8.89,8.89,0,0,1-4.73,2.06,30.5,30.5,0,0,1,0,9.44,1.79,1.79,0,0,1-1.19,1.45c-1.13.33-1.88-.83-2.42-1.76a7.73,7.73,0,0,0-2.45-2.72,3.75,3.75,0,0,0-3.52-.36,3.66,3.66,0,0,0-1.86,2.26,6.86,6.86,0,0,0-.15,3,9.12,9.12,0,0,0,1.94,4.58,6.22,6.22,0,0,0,4.35,2.24,4.5,4.5,0,0,0,4.18-2.07l.07.31a12.6,12.6,0,0,0,9.59,9.27c2.11.44,4.46.87,6.86,1.23,1.18.18,2.36.35,3.54.49a8.56,8.56,0,0,0,9.45-7C208.08,164.44,208.62,153.81,205.15,144.77Z"/><path class="cls-24" d="M177.49,171v15.89A17.51,17.51,0,0,0,190.28,194a6.23,6.23,0,0,0,4.6-1.18,3.73,3.73,0,0,0-.47-5.89,2.05,2.05,0,0,1-.93-1.7v-5.17c-2.4-.36-4.75-.79-6.86-1.23A12.46,12.46,0,0,1,177.49,171Z"/><path class="cls-7" d="M188.11,182.33a33.74,33.74,0,0,0,5.37.95v-3.22c-2.4-.36-4.75-.79-6.86-1.23a12.47,12.47,0,0,1-8.82-7.12,12.68,12.68,0,0,0,3.22,6.65A15.29,15.29,0,0,0,188.11,182.33Z"/><path class="cls-25" d="M198.25,156.3h-2.06A15,15,0,0,0,182,154.85V157l.57.31a22.26,22.26,0,0,1,.53,4.25,5.66,5.66,0,0,0,1.57,3.77c1.13,1,2.74,1.07,4.23,1.09a7.79,7.79,0,0,0,3.52-.51,5.63,5.63,0,0,0,2.68-3.21c.5-1.36.42-2.14,1-3.77a1.19,1.19,0,0,1,1.12-.75,1.11,1.11,0,0,1,1.05.75c.59,1.63.52,2.41,1,3.77a5.56,5.56,0,0,0,2.51,3.21,6.81,6.81,0,0,0,3.29.51,5.74,5.74,0,0,0,4-1.09,5.87,5.87,0,0,0,1.46-3.77,24,24,0,0,1,.5-4.25l.53-.31v-2.16A13.29,13.29,0,0,0,198.25,156.3Zm-3.1,1.11-.08.77a18.27,18.27,0,0,1-1,4.09,4.62,4.62,0,0,1-2.13,2.59,5.89,5.89,0,0,1-2.52.41h-.47a5.47,5.47,0,0,1-3.49-.84,4.47,4.47,0,0,1-1.21-3c0-.36-.06-.73-.08-1.11-.07-1,0-3.3.08-4.94a13.37,13.37,0,0,1,3.6-.5,13.8,13.8,0,0,1,7.25,2.11C195.19,157.05,195.15,157.41,195.15,157.41Zm14.37,2.89c0,.38,0,.75-.08,1.11a4.62,4.62,0,0,1-1.12,3,4.89,4.89,0,0,1-3.27.84h-.44a5.21,5.21,0,0,1-2.36-.41,4.56,4.56,0,0,1-2-2.59,19.62,19.62,0,0,1-1-4.09l-.07-.77s0-.36.08-.44a12.28,12.28,0,0,1,6.78-2.11,11.81,11.81,0,0,1,3.37.5C209.53,157,209.59,159.27,209.52,160.3Z"/><path class="cls-25" d="M182,154.85,170.42,159a5,5,0,0,1,2.26,1.06c.13.11,9.3-3.06,9.3-3.06Z"/><polygon class="cls-20" points="197.2 158.36 203.04 165.43 197.68 167.32 197.2 158.36"/><path class="cls-23" d="M189,159.25a1.61,1.61,0,1,0,1.61-1.59A1.6,1.6,0,0,0,189,159.25Z"/><path class="cls-23" d="M202.42,158.81a1.6,1.6,0,1,0,1.61-1.59A1.61,1.61,0,0,0,202.42,158.81Z"/><path class="cls-23" d="M201.57,151.7l4.29.49a2.26,2.26,0,0,0-1.8-1.89A2.7,2.7,0,0,0,201.57,151.7Z"/><path class="cls-23" d="M191.62,151.16,187.69,153a2.27,2.27,0,0,1,1.13-2.35A2.68,2.68,0,0,1,191.62,151.16Z"/><path class="cls-20" d="M191.91,170.3l4.75,1.59a2.93,2.93,0,0,1-3.26,1.4A2.66,2.66,0,0,1,191.91,170.3Z"/><path class="cls-16" d="M191.91,170.3l4.75,1.59a2.93,2.93,0,0,1-3.26,1.4A2.66,2.66,0,0,1,191.91,170.3Z"/><path class="cls-20" d="M195,173.24a2.72,2.72,0,0,1-1.57,0,2.39,2.39,0,0,1-1.5-2.2,2.81,2.81,0,0,1,1.84.39A2.78,2.78,0,0,1,195,173.24Z"/><path class="cls-20" d="M206.79,192.79l-4,1.86a1.62,1.62,0,0,0-.77,2.2h0a1.62,1.62,0,0,0,1.73.87l10-1.79-3-3.87Z"/><path class="cls-24" d="M215.72,196.36,228.33,226a8.72,8.72,0,0,0,11.16,4.75h0a8.74,8.74,0,0,0,3.69-13.63L222.59,191.5a12.14,12.14,0,0,0-2.47-2.33l-6.28-4.43a13.39,13.39,0,0,0-6-2.34h0l-3.06-2.25a3.09,3.09,0,0,0-2.91-.39l-4.72,1.82h0a3.08,3.08,0,0,0,3.55,1.71l1.88-.46,2.19,1.62-2.85,4a2.47,2.47,0,0,0,.5,3.41l5.4,4.15a1.94,1.94,0,0,0,1.74.32h0a1.92,1.92,0,0,0,1.32-2.24v0A6.83,6.83,0,0,0,215.72,196.36Z"/><path class="cls-20" d="M204.82,184.45a7.38,7.38,0,0,1,2-1.62l-3.79.28Z"/><path class="cls-24" d="M166.21,227.78l-4.3,14.72,26.26,18.66,8.83,3.71a13.89,13.89,0,0,1,5.85,4.65l7.21,10c.8,1.67-2.95,4.39-4.75,4.85h0a6.45,6.45,0,0,1-6-1.5l-5.56-5.09-1.53-.54a23.32,23.32,0,0,1-11.17-8.37h0l-30.78-12a11.77,11.77,0,0,1-7.11-14l5.1-19Z"/><path class="cls-12" d="M166.24,229.84l7.29-21.79s.24-20-8.23-19.34-12.76,5.53-19.26,35.1l-.14.64A35.26,35.26,0,0,0,166.24,229.84Z"/><path class="cls-21" d="M166.24,229.84l7.29-21.79s.24-20-8.23-19.34-12.76,5.53-19.26,35.1l-.14.64A35.26,35.26,0,0,0,166.24,229.84Z"/><g id="freepik--light--inject-77"><path class="cls-23" d="M186.49,111.8a3.53,3.53,0,1,1-3.59-3.47,3.52,3.52,0,0,1,3.59,3.47Z"/><path class="cls-12" d="M178.69,112.17c-2.37-1.31-2.41-3.5-.08-4.9a9.39,9.39,0,0,1,8.48-.12c2.35,1.32,2.39,3.51.07,4.89A9.36,9.36,0,0,1,178.69,112.17Z"/><path class="cls-23" d="M178.53,110.9c-2.43-1.36-2.47-3.61-.08-5.05a9.73,9.73,0,0,1,8.75-.14c2.43,1.37,2.47,3.62.06,5.05A9.6,9.6,0,0,1,178.53,110.9Z"/><path class="cls-12" d="M178.38,109.61c-2.5-1.4-2.54-3.72,0-5.14a9.94,9.94,0,0,1,9-.14c2.51,1.39,2.55,3.73.09,5.2A10,10,0,0,1,178.38,109.61Z"/><path class="cls-23" d="M178.21,108.23c-2.58-1.43-2.61-3.83-.07-5.35a10.25,10.25,0,0,1,9.28-.16c2.58,1.45,2.63,3.84.08,5.37A10.31,10.31,0,0,1,178.21,108.23Z"/><path class="cls-12" d="M178.07,106.83c-2.66-1.53-2.68-3.92-.08-5.48a10.46,10.46,0,0,1,9.48-.14c2.64,1.46,2.68,3.91.08,5.46A10.49,10.49,0,0,1,178.07,106.83Z"/><path class="cls-6" d="M182.17,65.53a16.79,16.79,0,0,0-16.57,17v.08C165.81,96,176.85,98.05,177,103.42a2.89,2.89,0,0,0,1.74,2.35,9.1,9.1,0,0,0,8.21-.12,2.91,2.91,0,0,0,1.64-2.39h0c-.09-5.39,10.9-7.78,10.69-21.16a16.8,16.8,0,0,0-17-16.57Z"/><path class="cls-26" d="M182.17,65.53a16.79,16.79,0,0,0-16.57,17v.08C165.81,96,176.85,98.05,177,103.42a2.89,2.89,0,0,0,1.74,2.35,9.1,9.1,0,0,0,8.21-.12,2.91,2.91,0,0,0,1.64-2.39h0c-.09-5.39,10.9-7.78,10.69-21.16a16.8,16.8,0,0,0-17-16.57Z"/><path class="cls-27" d="M179.73,105.07c-1.68-1-1.76-2.55-.11-3.55a6.83,6.83,0,0,1,6.18-.09c1.67,1,1.74,2.55,0,3.56A6.8,6.8,0,0,1,179.73,105.07Z"/><path class="cls-3" d="M185,102.78a.58.58,0,0,1-.58-.55,41,41,0,0,1,1-9.62,21.22,21.22,0,0,1,.79-2.69,7.93,7.93,0,0,1-1.47-.7,9.7,9.7,0,0,1-2.29-1.89,9.74,9.74,0,0,1-2.19,1.91,7.38,7.38,0,0,1-1.46.73,22.59,22.59,0,0,1,.89,2.67,40.48,40.48,0,0,1,1.33,9.61.58.58,0,0,1-.58.56.58.58,0,0,1-.56-.58,40,40,0,0,0-1.31-9.3,17.51,17.51,0,0,0-.88-2.65,3.57,3.57,0,0,1-3.21-.89,1.84,1.84,0,0,1-.28-2.35,1.53,1.53,0,0,1,1.55-.68,4.37,4.37,0,0,1,2.57,2.58,6.44,6.44,0,0,0,1.31-.66,9,9,0,0,0,2.11-1.87,4.23,4.23,0,0,1-.89-3.2,1.52,1.52,0,0,1,1.52-1.15,1.49,1.49,0,0,1,1.55,1.1,4.15,4.15,0,0,1-.78,3.23,8.89,8.89,0,0,0,2.16,1.8,6.49,6.49,0,0,0,1.34.61,4.35,4.35,0,0,1,2.49-2.65,1.52,1.52,0,0,1,1.55.68,1.81,1.81,0,0,1-.2,2.35,3.58,3.58,0,0,1-3.17,1,19.28,19.28,0,0,0-.82,2.68,40.18,40.18,0,0,0-1,9.34.59.59,0,0,1-.55.6Zm-9.49-15.27a.38.38,0,0,0-.32.21c-.27.38.06.8.16.91a2.26,2.26,0,0,0,1.84.56,3.22,3.22,0,0,0-1.6-1.69Zm12.37,1.56a2.31,2.31,0,0,0,1.82-.64c.1-.11.43-.53.15-.91a.41.41,0,0,0-.42-.2C189.07,87.4,188.48,87.94,187.9,89.07Zm-5.42-5.82a.39.39,0,0,0-.44.32h0a2.78,2.78,0,0,0,.47,1.86,2.74,2.74,0,0,0,.41-1.87.39.39,0,0,0-.44-.32h0Z"/></g><path class="cls-28" d="M182.18,59.15a.93.93,0,0,1-.29.05,1.11,1.11,0,0,1-1.12-1.08l-.12-5.73a1.1,1.1,0,0,1,1.06-1.13h0a1.1,1.1,0,0,1,1.12,1.08l.12,5.74A1.09,1.09,0,0,1,182.18,59.15Z"/><path class="cls-28" d="M170,62.7a1.08,1.08,0,0,1-1.24-.48l-3-4.9a1.1,1.1,0,0,1,1.88-1.14l3,4.89a1.1,1.1,0,0,1-.37,1.51A.66.66,0,0,1,170,62.7Z"/><path class="cls-28" d="M161.28,71.86a1.1,1.1,0,0,1-.85-.09l-5-2.76a1.1,1.1,0,1,1,1.06-1.93l5,2.75a1.1,1.1,0,0,1,.44,1.49A1.07,1.07,0,0,1,161.28,71.86Z"/><path class="cls-28" d="M158.27,84.16a1,1,0,0,1-.27.1l-5.73.13a1.08,1.08,0,0,1-1.12-1v0a1.09,1.09,0,0,1,1-1.13h0l5.73-.19A1.11,1.11,0,0,1,159,83.12a1.09,1.09,0,0,1-.75,1Z"/><path class="cls-28" d="M212.93,82.94a1,1,0,0,1-.27.11l-5.76.07a1.1,1.1,0,0,1,0-2.19l5.73-.14a1.11,1.11,0,0,1,1.09,1.12,1.09,1.09,0,0,1-.75,1Z"/><path class="cls-28" d="M203.65,70.92a1.1,1.1,0,0,1-.88-2l4.9-3a1.08,1.08,0,0,1,1.49.34v0a1.09,1.09,0,0,1-.35,1.5h0l-4.9,3A1.23,1.23,0,0,1,203.65,70.92Z"/><path class="cls-28" d="M194.5,62.16a1.11,1.11,0,0,1-1.37-.75,1.07,1.07,0,0,1,.08-.84l2.79-5a1.11,1.11,0,0,1,1.93,1.06l-2.77,5A1.09,1.09,0,0,1,194.5,62.16Z"/><polygon class="cls-2" points="288.83 220.5 288.81 212.52 283.44 209.43 283.47 217.23 283.47 217.23 283.47 217.4 288.83 220.5 288.83 220.5"/><path class="cls-6" d="M289.1,336.79l-.27-116.29-5.36-3.1.26,116.12a1.72,1.72,0,0,0,.7,1.56h0l0,0h0l5.31,3.23A1.76,1.76,0,0,1,289.1,336.79Z"/><path class="cls-29" d="M289.1,336.79l-.27-116.29-5.36-3.1.26,116.12a1.72,1.72,0,0,0,.7,1.56h0l0,0h0l5.31,3.23A1.76,1.76,0,0,1,289.1,336.79Z"/><path class="cls-12" d="M291.57,338.2a3.44,3.44,0,0,1-.48.23A3.44,3.44,0,0,0,291.57,338.2Z"/><path class="cls-12" d="M290.75,338.5l-.1,0Z"/><path class="cls-12" d="M289.9,338.42h0Z"/><path class="cls-6" d="M288.83,212.5l0-4.6a5.45,5.45,0,0,1,2.46-4.26l139.34-80.45a1.74,1.74,0,0,1,1.73-.18L427,119.76h0a1.72,1.72,0,0,0-1.78.14L285.9,200.36a5.42,5.42,0,0,0-2.45,4.27v4.6h0v.19l5.36,3.09Z"/><path class="cls-29" d="M288.83,212.5l0-4.6a5.45,5.45,0,0,1,2.46-4.26l139.34-80.45a1.74,1.74,0,0,1,1.73-.18L427,119.76h0a1.72,1.72,0,0,0-1.78.14L285.9,200.36a5.42,5.42,0,0,0-2.45,4.27v4.6h0v.19l5.36,3.09Z"/><polygon class="cls-7" points="288.83 220.5 288.81 212.52 283.44 209.43 283.47 217.23 283.47 217.23 283.47 217.4 288.83 220.5 288.83 220.5"/><path class="cls-26" d="M430.61,123.19c1.36-.78,2.47-.15,2.48,1.42v4.6L288.83,212.5l0-4.6a5.45,5.45,0,0,1,2.46-4.26Z"/><path class="cls-3" d="M421.27,130.8c.73-.42,1.32-.08,1.33.75a2.91,2.91,0,0,1-1.32,2.28c-.73.42-1.32.09-1.32-.75A2.87,2.87,0,0,1,421.27,130.8Z"/><path class="cls-3" d="M425.3,128.48c.73-.42,1.32-.09,1.32.75a2.89,2.89,0,0,1-1.31,2.28c-.73.42-1.33.08-1.33-.76A2.9,2.9,0,0,1,425.3,128.48Z"/><path class="cls-3" d="M429.32,126.15c.73-.42,1.32-.08,1.32.76a2.87,2.87,0,0,1-1.31,2.28c-.73.42-1.32.08-1.33-.76A2.94,2.94,0,0,1,429.32,126.15Z"/><path class="cls-2" d="M317.84,191.19c.54-.31,1.05-.26,1.31.14l1.31,2c.25.4.75.46,1.3.14l111.32-64.27,0,8L288.83,220.51l0-8,4.27-2.47a3.27,3.27,0,0,0,1.31-1.65l1.29-3.52a3.19,3.19,0,0,1,1.3-1.64Z"/><path class="cls-6" d="M433.11,137.21l.26,116.29a5.45,5.45,0,0,1-2.46,4.26L291.57,338.2c-1.36.79-2.47.16-2.47-1.4l-.27-116.3Z"/><path class="cls-26" d="M433.11,137.21l.26,116.29a5.45,5.45,0,0,1-2.46,4.26L291.57,338.2c-1.36.79-2.47.16-2.47-1.4l-.27-116.3Z"/><path class="cls-3" d="M427.4,134.13c1-.56,1.75-.11,1.76,1a3.85,3.85,0,0,1-1.75,3L305.29,208.67c-1,.56-1.76.11-1.76-1a3.83,3.83,0,0,1,1.75-3Z"/><path class="cls-2" d="M291.14,213.23c.07,0,.13,0,.18,0s.09.24,0,.41l-.77,1.25,2-1.16c.14-.08.25,0,.25.13a.54.54,0,0,1-.25.43l-2,1.17.78.37c.09.05.1.22,0,.39a.47.47,0,0,1-.18.19.18.18,0,0,1-.17,0l-1.24-.59-.05-.05v0l0-.1,0-.12v0l0-.1,1.24-2A.46.46,0,0,1,291.14,213.23Z"/><path class="cls-2" d="M295.51,210.7a.21.21,0,0,1,.17,0l1.24.59.05,0h0v.23l0,0,0,.1-1.24,2a.46.46,0,0,1-.17.17.15.15,0,0,1-.17,0c-.1-.06-.09-.24,0-.41l.77-1.25-2,1.16c-.13.08-.24,0-.24-.14a.54.54,0,0,1,.24-.42l2-1.17-.77-.37c-.1,0-.1-.22,0-.39A.49.49,0,0,1,295.51,210.7Z"/><path class="cls-2" d="M299.67,208.3a1.12,1.12,0,0,1,.84-.15l.18-.25a.53.53,0,0,1,.14-.12.16.16,0,0,1,.13,0c.08,0,.12.1.11.22l-.1.76a.54.54,0,0,1-.11.26.71.71,0,0,1-.13.12l-.07,0-.6.16c-.09,0-.16,0-.18-.12a.5.5,0,0,1,.11-.35l.06-.08a.73.73,0,0,0-.38.12,1.92,1.92,0,0,0-.88,1.53c0,.57.4.79.89.51a2,2,0,0,0,.78-1,.52.52,0,0,1,.21-.27.27.27,0,0,1,.12,0c.12,0,.17.16.1.33a3,3,0,0,1-1.21,1.52c-.76.44-1.39.09-1.39-.79A3.07,3.07,0,0,1,299.67,208.3Z"/><g class="cls-30"><path d="M291.14,213.23c.07,0,.13,0,.18,0s.09.24,0,.41l-.77,1.25,2-1.16c.14-.08.25,0,.25.13a.54.54,0,0,1-.25.43l-2,1.17.78.37c.09.05.1.22,0,.39a.47.47,0,0,1-.18.19.18.18,0,0,1-.17,0l-1.24-.59-.05-.05v0l0-.1,0-.12v0l0-.1,1.24-2A.46.46,0,0,1,291.14,213.23Z"/></g><g class="cls-30"><path d="M295.51,210.7a.21.21,0,0,1,.17,0l1.24.59.05,0h0v.23l0,0,0,.1-1.24,2a.46.46,0,0,1-.17.17.15.15,0,0,1-.17,0c-.1-.06-.09-.24,0-.41l.77-1.25-2,1.16c-.13.08-.24,0-.24-.14a.54.54,0,0,1,.24-.42l2-1.17-.77-.37c-.1,0-.1-.22,0-.39A.49.49,0,0,1,295.51,210.7Z"/></g><g class="cls-30"><path d="M299.67,208.3a1.12,1.12,0,0,1,.84-.15l.18-.25a.53.53,0,0,1,.14-.12.16.16,0,0,1,.13,0c.08,0,.12.1.11.22l-.1.76a.54.54,0,0,1-.11.26.71.71,0,0,1-.13.12l-.07,0-.6.16c-.09,0-.16,0-.18-.12a.5.5,0,0,1,.11-.35l.06-.08a.73.73,0,0,0-.38.12,1.92,1.92,0,0,0-.88,1.53c0,.57.4.79.89.51a2,2,0,0,0,.78-1,.52.52,0,0,1,.21-.27.27.27,0,0,1,.12,0c.12,0,.17.16.1.33a3,3,0,0,1-1.21,1.52c-.76.44-1.39.09-1.39-.79A3.07,3.07,0,0,1,299.67,208.3Z"/></g><polygon class="cls-3" points="373.28 201.53 373.51 280.35 297.4 324.29 297.18 245.47 373.28 201.53"/><polygon class="cls-6" points="362.69 224.42 328.42 278.94 328.47 292.44 335.06 279.34 328.47 292.44 323.51 278.64 362.69 224.42"/><polygon class="cls-31" points="362.69 224.42 328.42 278.94 328.47 292.44 335.06 279.34 328.47 292.44 323.51 278.64 362.69 224.42"/><polygon class="cls-6" points="328.42 278.94 335.06 279.34 328.47 292.44 328.42 278.94"/><polygon class="cls-32" points="328.42 278.94 335.06 279.34 328.47 292.44 328.42 278.94"/><polygon class="cls-32" points="362.69 224.42 323.51 278.64 307.13 277.65 362.69 224.42"/><polygon class="cls-32" points="328.42 278.94 362.69 224.42 355.53 280.57 335.06 279.34 328.42 278.94"/><polygon class="cls-33" points="307.13 277.65 323.51 278.64 328.47 292.44 335.06 279.34 335.06 279.34 355.53 280.57 362.69 224.42 307.13 277.65"/><path class="cls-6" d="M426.52,144.42c1.39-.8,2.52-.16,2.53,1.44a5.52,5.52,0,0,1-2.51,4.34L317.17,213.38c-1.39.81-2.52.17-2.52-1.43a5.5,5.5,0,0,1,2.51-4.34Z"/><path class="cls-34" d="M426.52,144.42c1.39-.8,2.52-.16,2.53,1.44a5.52,5.52,0,0,1-2.51,4.34L317.17,213.38c-1.39.81-2.52.17-2.52-1.43a5.5,5.5,0,0,1,2.51-4.34Z"/><path class="cls-32" d="M309.25,212c1.39-.81,2.51-.16,2.52,1.43a5.52,5.52,0,0,1-2.51,4.34l-9.73,5.76c-1.39.8-2.52.16-2.53-1.43a5.56,5.56,0,0,1,2.51-4.35Z"/><path class="cls-6" d="M318.24,217.74c1.38-.8,2.51-.16,2.52,1.44a5.54,5.54,0,0,1-2.51,4.34l-19,11.06c-1.39.8-2.52.16-2.52-1.43a5.53,5.53,0,0,1,2.51-4.35Z"/><path class="cls-6" d="M345.49,201.88c1.38-.8,2.51-.16,2.52,1.44a5.56,5.56,0,0,1-2.51,4.34l-19,11.06c-1.39.8-2.52.16-2.52-1.43a5.53,5.53,0,0,1,2.51-4.35Z"/><path class="cls-6" d="M372.74,186c1.38-.8,2.51-.16,2.52,1.44a5.56,5.56,0,0,1-2.51,4.34l-19,11.06c-1.39.8-2.52.16-2.52-1.43a5.53,5.53,0,0,1,2.51-4.35Z"/><path class="cls-6" d="M400,170.16c1.38-.8,2.51-.16,2.52,1.44a5.56,5.56,0,0,1-2.51,4.34L381,187c-1.39.8-2.52.16-2.52-1.43a5.52,5.52,0,0,1,2.51-4.35Z"/><path class="cls-6" d="M427.24,154.3c1.38-.8,2.51-.16,2.52,1.43a5.56,5.56,0,0,1-2.51,4.35l-19,11.06c-1.39.8-2.52.16-2.52-1.43a5.52,5.52,0,0,1,2.51-4.35Z"/><path class="cls-32" d="M318.24,217.74c1.38-.8,2.51-.16,2.52,1.44a5.54,5.54,0,0,1-2.51,4.34l-19,11.06c-1.39.8-2.52.16-2.52-1.43a5.53,5.53,0,0,1,2.51-4.35Z"/><path class="cls-32" d="M345.49,201.88c1.38-.8,2.51-.16,2.52,1.44a5.56,5.56,0,0,1-2.51,4.34l-19,11.06c-1.39.8-2.52.16-2.52-1.43a5.53,5.53,0,0,1,2.51-4.35Z"/><path class="cls-32" d="M372.74,186c1.38-.8,2.51-.16,2.52,1.44a5.56,5.56,0,0,1-2.51,4.34l-19,11.06c-1.39.8-2.52.16-2.52-1.43a5.53,5.53,0,0,1,2.51-4.35Z"/><path class="cls-32" d="M400,170.16c1.38-.8,2.51-.16,2.52,1.44a5.56,5.56,0,0,1-2.51,4.34L381,187c-1.39.8-2.52.16-2.52-1.43a5.52,5.52,0,0,1,2.51-4.35Z"/><path class="cls-32" d="M427.24,154.3c1.38-.8,2.51-.16,2.52,1.43a5.56,5.56,0,0,1-2.51,4.35l-19,11.06c-1.39.8-2.52.16-2.52-1.43a5.52,5.52,0,0,1,2.51-4.35Z"/><polygon class="cls-32" points="408.81 182.32 408.82 187.22 381.71 202.91 381.7 198.02 408.81 182.32"/><g class="cls-35"><polygon class="cls-32" points="409.72 207.52 409.73 210.51 381.78 226.82 381.77 223.83 409.72 207.52"/><polygon class="cls-32" points="415.57 198.39 415.58 201.38 381.76 220.84 381.76 217.85 415.57 198.39"/><polygon class="cls-32" points="397.56 202.74 397.57 205.73 381.75 214.86 381.74 211.88 397.56 202.74"/></g><polygon class="cls-32" points="415.54 186.43 415.55 189.42 381.73 208.88 381.72 205.9 415.54 186.43"/><polygon class="cls-6" points="414.14 242.69 414.15 245.8 382.71 264.06 382.7 260.95 414.14 242.69"/><polygon class="cls-6" points="428.31 228.81 428.31 231.9 382.7 258.43 382.69 255.34 428.31 228.81"/><polygon class="cls-32" points="414.14 242.69 414.15 245.8 382.71 264.06 382.7 260.95 414.14 242.69"/><polygon class="cls-32" points="428.31 228.81 428.31 231.9 382.7 258.43 382.69 255.34 428.31 228.81"/><path class="cls-6" d="M120,42h0a4.76,4.76,0,0,0-4-2.61,1.58,1.58,0,0,0-.52.1L51.76,76.34a3.52,3.52,0,0,0-1.73,3v52.76A3.29,3.29,0,0,0,54.44,135h0l.14-.06,63.79-36.9a3.43,3.43,0,0,0,1.73-3V42.36A.88.88,0,0,0,120,42Z"/><path class="cls-9" d="M50,79.32v52.76A3.29,3.29,0,0,0,54.44,135h0a.85.85,0,0,1-1.14-.8V81.46a3.47,3.47,0,0,1,.57-1.89l-3.5-1.75A3.35,3.35,0,0,0,50,79.32Z"/><path class="cls-36" d="M116.08,39.37a1.58,1.58,0,0,0-.52.1L51.76,76.34a3.37,3.37,0,0,0-1.37,1.48l3.5,1.75a3.46,3.46,0,0,1,1.16-1.09l63.79-36.87A.86.86,0,0,1,120,42h0A4.76,4.76,0,0,0,116.08,39.37Z"/><path class="cls-26" d="M120,42h0a4.76,4.76,0,0,0-4-2.61,1.58,1.58,0,0,0-.52.1L51.76,76.34a3.52,3.52,0,0,0-1.73,3v52.76A3.29,3.29,0,0,0,54.44,135h0l.14-.06,63.79-36.9a3.43,3.43,0,0,0,1.73-3V42.36A.88.88,0,0,0,120,42Z"/><g class="cls-37"><polygon class="cls-3" points="77.68 79.36 99.41 81.23 77.76 108.14 77.68 79.36"/></g><path class="cls-6" d="M80.07,191.85l.49-.28.49-.25,0,7.57L59.32,211.31l-24.58,14,0-6.37a1.59,1.59,0,0,1,.13-.13l.5-.48a20.12,20.12,0,0,1,3.49-2.6l.14-.08.21-.12a18.67,18.67,0,0,1,2.45-1.16l.69-.25a42.82,42.82,0,0,1,8.87-1.58l.87-.12a22,22,0,0,0,7.24-2.26l.56-.31.46-.28c4.16-2.56,8-7.09,11.85-11.11l.59-.6.28-.29.54-.53c.08-.09.17-.17.26-.26a34.6,34.6,0,0,1,6-4.81Z"/><path class="cls-29" d="M80.07,191.85l.49-.28.49-.25,0,7.57L59.32,211.31l-24.58,14,0-6.37a1.59,1.59,0,0,1,.13-.13l.5-.48a20.12,20.12,0,0,1,3.49-2.6l.14-.08.21-.12a18.67,18.67,0,0,1,2.45-1.16l.69-.25a42.82,42.82,0,0,1,8.87-1.58l.87-.12a22,22,0,0,0,7.24-2.26l.56-.31.46-.28c4.16-2.56,8-7.09,11.85-11.11l.59-.6.28-.29.54-.53c.08-.09.17-.17.26-.26a34.6,34.6,0,0,1,6-4.81Z"/><path class="cls-3" d="M54.24,189.8c2.69-1.55,4.88-.3,4.89,2.79A10.7,10.7,0,0,1,54.27,201c-2.7,1.56-4.89.31-4.9-2.78A10.72,10.72,0,0,1,54.24,189.8Z"/><path class="cls-38" d="M59.31,210.18a22,22,0,0,1-7.24,2.26A22,22,0,0,0,59.31,210.18Z"/><path class="cls-6" d="M39.41,206.09a6.34,6.34,0,0,1,1.1-.51,6.39,6.39,0,0,1,3.22,0L50,206.64a5.05,5.05,0,0,0,3.34-.78,11.49,11.49,0,0,0,3.21-2.9,14.35,14.35,0,0,1,3.62-3.67l.14-.08a4.13,4.13,0,0,1,3-.33,4.9,4.9,0,0,0,3.35-.75,11.57,11.57,0,0,0,3.47-3.25c1.19-1.62,2.38-3.25,3.48-4.83a16.63,16.63,0,0,1,2.92-3.49A5.83,5.83,0,0,1,81,185.31v6l-.49.25-.46.26-.28.16a34.6,34.6,0,0,0-6,4.81c-.09.09-.18.17-.26.26l-.54.53-.28.29-.59.6c-3.86,4-7.69,8.55-11.85,11.11l-.46.28-.56.31a22,22,0,0,1-7.24,2.26l-.87.12a42.82,42.82,0,0,0-8.87,1.58l-.69.25a18.67,18.67,0,0,0-2.45,1.16l-.21.12-.14.08a20.12,20.12,0,0,0-3.49,2.6l-.5.48a1.59,1.59,0,0,0-.13.13l0-8.12c.42-.59.84-1.16,1.3-1.7A13.53,13.53,0,0,1,39.41,206.09Z"/><path class="cls-26" d="M39.41,206.09a6.34,6.34,0,0,1,1.1-.51,6.39,6.39,0,0,1,3.22,0L50,206.64a5.05,5.05,0,0,0,3.34-.78,11.49,11.49,0,0,0,3.21-2.9,14.35,14.35,0,0,1,3.62-3.67l.14-.08a4.13,4.13,0,0,1,3-.33,4.9,4.9,0,0,0,3.35-.75,11.57,11.57,0,0,0,3.47-3.25c1.19-1.62,2.38-3.25,3.48-4.83a16.63,16.63,0,0,1,2.92-3.49A5.83,5.83,0,0,1,81,185.31v6l-.49.25-.46.26-.28.16a34.6,34.6,0,0,0-6,4.81c-.09.09-.18.17-.26.26l-.54.53-.28.29-.59.6c-3.86,4-7.69,8.55-11.85,11.11l-.46.28-.56.31a22,22,0,0,1-7.24,2.26l-.87.12a42.82,42.82,0,0,0-8.87,1.58l-.69.25a18.67,18.67,0,0,0-2.45,1.16l-.21.12-.14.08a20.12,20.12,0,0,0-3.49,2.6l-.5.48a1.59,1.59,0,0,0-.13.13l0-8.12c.42-.59.84-1.16,1.3-1.7A13.53,13.53,0,0,1,39.41,206.09Z"/><path class="cls-6" d="M30.67,195,85,163.68,85.08,207,30.8,238.35ZM81,185.31,81,170.54,34.66,197.3l.1,34.19,46.33-26.75v-5.85l0-7.57v-6"/><g class="cls-37"><path class="cls-39" d="M30.67,195,85,163.68,85.08,207,30.8,238.35ZM81,185.31,81,170.54,34.66,197.3l.1,34.19,46.33-26.75v-5.85l0-7.57v-6"/></g><path class="cls-12" d="M34.74,225.33l24.58-14,21.76-12.42v5.85L34.76,231.49Z"/><path class="cls-39" d="M34.66,197.3,81,170.54,81,185.31a5.83,5.83,0,0,0-4.54,1.25,16.63,16.63,0,0,0-2.92,3.49c-1.1,1.58-2.29,3.21-3.48,4.83a11.57,11.57,0,0,1-3.47,3.25,4.9,4.9,0,0,1-3.35.75,4.13,4.13,0,0,0-3,.33l-.14.08A14.35,14.35,0,0,0,56.52,203a11.49,11.49,0,0,1-3.21,2.9,5.05,5.05,0,0,1-3.34.78l-6.24-1.08a6.39,6.39,0,0,0-3.22,0,6.34,6.34,0,0,0-1.1.51,13.53,13.53,0,0,0-3.41,3c-.46.54-.88,1.11-1.3,1.7ZM54.27,201a10.7,10.7,0,0,0,4.86-8.42c0-3.09-2.2-4.34-4.89-2.79a10.72,10.72,0,0,0-4.87,8.43c0,3.09,2.2,4.34,4.9,2.78"/><path class="cls-38" d="M41.64,214.39a18.67,18.67,0,0,0-2.45,1.16A18.67,18.67,0,0,1,41.64,214.39Z"/><path class="cls-6" d="M305.87,112.6l60.2-34.75.18,61.85-60.2,34.76Zm54.68,23.86-.13-48.81-48.85,28.2.13,48.81,48.85-28.2"/><path class="cls-39" d="M305.87,112.6l60.2-34.75.18,61.85-60.2,34.76Zm54.68,23.86-.13-48.81-48.85,28.2.13,48.81,48.85-28.2"/><polygon class="cls-40" points="336.4 106.96 350.57 108.17 335.81 126.58 321.65 125.37 336.4 106.96"/><polygon class="cls-4" points="350.57 108.17 350.57 126.87 335.82 145.28 335.81 126.58 350.57 108.17"/><polygon class="cls-2" points="321.65 125.37 335.81 126.58 335.82 145.28 321.65 144.07 321.65 125.37"/><path class="cls-26" d="M311.57,115.85l48.85-28.2.13,48.81-48.85,28.2Zm39,11V108.18L336.4,107l-14.75,18.41v18.7l14.17,1.21,14.76-18.41"/><path class="cls-26" d="M361.65,53.6l27.65-16,.12,41.72-27.65,16Zm17.81,18.05,0-.16a11.81,11.81,0,0,1,1.66-4.61,17,17,0,0,0,2.67-8.58c0-5.25-3.72-7.38-8.29-4.76s-8.32,9.1-8.3,14.34c0,2.76,1,4.66,2.67,5.46A3.29,3.29,0,0,1,371.61,76l0,.18a2.15,2.15,0,0,0,.67,1.34v1.14l.48-.27v.38l-.48.28v1.13l.47-.27v.39l-.47.27V81.7l.48-.28v.72l0,.26c.14,1.08,1,1.45,2,.86l-.1.06v.08c.05.31.3.42.6.25l.42-.24a1.37,1.37,0,0,0,.6-.94v-.1l-.1.06a4.52,4.52,0,0,0,2-3.19l0-.3v-.72l.47-.28V76.81l-.48.27v-.39l.48-.27V75.28l-.47.28v-.39l.47-.27V73.76a6.48,6.48,0,0,0,.65-2.11m.64-20.83c-.05.15,0,.29.09.3l.11,0a.6.6,0,0,0,.2-.24l1.73-4.49c.06-.16,0-.29-.08-.3a.17.17,0,0,0-.11,0,.49.49,0,0,0-.2.24l-1.74,4.49m-11.28,2.93a.39.39,0,0,0-.08.4l1.76,2.47a.14.14,0,0,0,.19,0l.12-.11c.1-.13.14-.31.08-.39l-1.76-2.47c0-.06-.12-.06-.2,0l-.11.1m13.41,18.83a.37.37,0,0,0,.07-.4l-1.75-2.47c0-.06-.12-.06-.2,0a.47.47,0,0,0-.11.1.37.37,0,0,0-.08.4l1.76,2.46a.14.14,0,0,0,.19,0l.12-.1m-11.29,2.94c.06-.16,0-.3-.08-.31a.23.23,0,0,0-.11,0,.51.51,0,0,0-.2.25L368.82,80c-.07.16,0,.3.08.31l.11,0a.49.49,0,0,0,.19-.25l1.74-4.48m-3.61-1.87a.37.37,0,0,0,.08-.4c0-.06-.11-.06-.19,0a.4.4,0,0,0-.12.11l-3,3.75a.37.37,0,0,0-.07.4.14.14,0,0,0,.19,0l.11-.1,3-3.75m19.76-9.49c.06-.16,0-.3-.08-.31l-3-.26a.19.19,0,0,0-.11,0,.44.44,0,0,0-.19.23c-.06.16,0,.3.08.31l3,.26.11,0a.49.49,0,0,0,.2-.24m-3.37-11.48a.36.36,0,0,0-.08.4c0,.06.11.06.19,0l.11-.1,3-3.76a.36.36,0,0,0,.08-.39.14.14,0,0,0-.19,0,.26.26,0,0,0-.11.1l-3,3.75M364,62.17c-.06.16,0,.29.08.31l3,.26.12,0a.58.58,0,0,0,.19-.24c.06-.16,0-.3-.08-.31l-3-.26a.2.2,0,0,0-.11,0,.48.48,0,0,0-.2.24m11.3-13.93v4c0,.15.1.21.22.13a.47.47,0,0,0,.23-.38V48c0-.14-.1-.2-.23-.13a.51.51,0,0,0-.22.39m13.37,7.62a.51.51,0,0,0,.22-.39c0-.14-.1-.2-.22-.13l-3.5,2a.49.49,0,0,0-.22.39c0,.14.1.2.22.13l3.5-2m-26.43,15c0,.14.1.2.22.13l3.5-2a.49.49,0,0,0,.22-.39c0-.14-.1-.2-.22-.13l-3.5,2a.51.51,0,0,0-.22.39"/><path class="cls-23" d="M376.4,82.37v.1a1.37,1.37,0,0,1-.6.94l-.42.24c-.3.17-.55.06-.6-.25v-.08l.1-.06,1.44-.83Z"/><path class="cls-12" d="M378.35,78.94l0,.3a4.52,4.52,0,0,1-2,3.19l-1.44.83c-1,.59-1.88.22-2-.86l0-.26Z"/><polygon class="cls-23" points="372.79 80.29 372.79 79.9 378.34 76.69 378.34 77.08 372.79 80.29"/><polygon class="cls-12" points="378.81 75.28 378.82 76.42 378.34 76.69 372.79 79.9 372.32 80.17 372.31 79.04 372.79 78.76 378.34 75.56 378.81 75.28"/><path class="cls-3" d="M378.21,62.12c.47-.27.85,0,.85.48v4.13a3.06,3.06,0,0,1-.44,1.49L378,69.39a2.28,2.28,0,0,0-.35,1.15v3.9l-.33.2v-3.9a3,3,0,0,1,.43-1.48l.68-1.18a2.39,2.39,0,0,0,.35-1.15l0-4.14c0-.31-.23-.45-.5-.28a1.11,1.11,0,0,0-.51.86v3.77a1.8,1.8,0,0,1-.83,1.45c-.47.27-.85.06-.85-.48V64.35c0-.32-.22-.45-.5-.29a1.08,1.08,0,0,0-.5.87v3.76a1.87,1.87,0,0,1-.84,1.46c-.47.27-.85,0-.85-.49V65.9c0-.32-.22-.45-.5-.29a1.13,1.13,0,0,0-.51.87v4.14a.83.83,0,0,0,.35.75l.69.39a1.06,1.06,0,0,1,.44,1v3.9l-.34.2v-3.9a.82.82,0,0,0-.34-.76l-.68-.39a1,1,0,0,1-.45-1V66.67a1.84,1.84,0,0,1,.84-1.45c.46-.26.84,0,.84.48v3.77c0,.32.23.45.5.29a1.11,1.11,0,0,0,.51-.87V65.12a1.84,1.84,0,0,1,.84-1.45c.46-.27.84-.05.84.48v3.77c0,.32.23.45.51.29a1.1,1.1,0,0,0,.5-.87V63.57A1.84,1.84,0,0,1,378.21,62.12Z"/><path class="cls-6" d="M393,31.26l-35,20.23.15,50.21,35-20.23ZM361.77,95.33l-.12-41.73,27.65-16,.12,41.72-27.65,16"/><g class="cls-37"><path class="cls-39" d="M393,31.26l-35,20.23.15,50.21,35-20.23ZM361.77,95.33l-.12-41.73,27.65-16,.12,41.72-27.65,16"/></g><polygon class="cls-23" points="372.8 82.14 372.8 81.42 378.35 78.22 378.35 78.94 372.8 82.14"/><polygon class="cls-12" points="378.82 76.81 378.82 77.94 378.35 78.22 372.8 81.42 372.32 81.69 372.32 80.56 372.79 80.29 378.34 77.08 378.82 76.81"/><polygon class="cls-23" points="372.79 78.38 378.34 75.17 378.34 75.56 372.79 78.76 372.79 78.38"/><path class="cls-39" d="M375.5,53.55c4.6-2.63,8.31-.5,8.32,4.75a17,17,0,0,1-2.67,8.58,11.81,11.81,0,0,0-1.66,4.61l0,.16a6.48,6.48,0,0,1-.65,2.11l-1.19.68v-3.9a2.28,2.28,0,0,1,.35-1.15l.67-1.17a3.06,3.06,0,0,0,.44-1.49V62.6c0-.53-.38-.75-.85-.48a1.84,1.84,0,0,0-.83,1.45v3.77a1.1,1.1,0,0,1-.5.87c-.28.16-.51,0-.51-.29V64.15c0-.53-.38-.75-.84-.48a1.84,1.84,0,0,0-.84,1.45v3.77a1.11,1.11,0,0,1-.51.87c-.27.16-.5,0-.5-.29V65.7c0-.53-.38-.74-.84-.48a1.84,1.84,0,0,0-.84,1.45v4.14a1,1,0,0,0,.45,1l.68.39a.83.83,0,0,1,.34.76v3.9l-1.18.68a2.15,2.15,0,0,1-.67-1.34l0-.18a3.29,3.29,0,0,0-1.71-2.65c-1.64-.8-2.67-2.7-2.67-5.46C367.21,62.64,370.94,56.18,375.5,53.55Z"/><path class="cls-39" d="M377.71,69.26a3,3,0,0,0-.43,1.48v3.9l-3.46,2v-3.9a1.06,1.06,0,0,0-.44-1l-.69-.39a.83.83,0,0,1-.35-.75V66.48a1.13,1.13,0,0,1,.51-.87c.28-.16.5,0,.5.29v3.76c0,.54.38.76.85.49a1.87,1.87,0,0,0,.84-1.46V64.93a1.08,1.08,0,0,1,.5-.87c.28-.16.5,0,.5.29v3.76c0,.54.38.75.85.48a1.8,1.8,0,0,0,.83-1.45V63.37a1.11,1.11,0,0,1,.51-.86c.27-.17.5,0,.5.28l0,4.14a2.39,2.39,0,0,1-.35,1.15Z"/><polygon class="cls-12" points="378.81 73.76 378.81 74.9 378.34 75.17 372.79 78.38 372.31 78.65 372.31 77.51 378.81 73.76"/><path class="cls-3" d="M364.16,61.93a.2.2,0,0,1,.11,0l3,.26c.11,0,.14.15.08.31a.58.58,0,0,1-.19.24l-.12,0-3-.26c-.1,0-.14-.15-.08-.31A.48.48,0,0,1,364.16,61.93Z"/><path class="cls-3" d="M380.35,69.7c.08,0,.16,0,.2,0l1.75,2.47a.37.37,0,0,1-.07.4l-.12.1a.14.14,0,0,1-.19,0l-1.76-2.46a.37.37,0,0,1,.08-.4A.47.47,0,0,1,380.35,69.7Z"/><path class="cls-3" d="M388.63,55.34c.12-.07.22,0,.22.13a.51.51,0,0,1-.22.39l-3.5,2c-.12.07-.22,0-.22-.13a.49.49,0,0,1,.22-.39Z"/><path class="cls-3" d="M386.85,48.83a.14.14,0,0,1,.19,0,.36.36,0,0,1-.08.39l-3,3.76-.11.1c-.08,0-.15,0-.19,0a.36.36,0,0,1,.08-.4l3-3.75A.26.26,0,0,1,386.85,48.83Z"/><path class="cls-3" d="M367.22,73.23c.08,0,.15,0,.19,0a.37.37,0,0,1-.08.4l-3,3.75-.11.1a.14.14,0,0,1-.19,0,.37.37,0,0,1,.07-.4l3-3.75A.4.4,0,0,1,367.22,73.23Z"/><path class="cls-3" d="M382,46.09a.17.17,0,0,1,.11,0c.11,0,.14.14.08.3l-1.73,4.49a.6.6,0,0,1-.2.24l-.11,0c-.11,0-.14-.15-.09-.3l1.74-4.49A.49.49,0,0,1,382,46.09Z"/><path class="cls-3" d="M365.92,68.45c.12-.07.22,0,.22.13a.49.49,0,0,1-.22.39l-3.5,2c-.12.07-.22,0-.22-.13a.51.51,0,0,1,.22-.39Z"/><path class="cls-3" d="M375.48,47.85c.13-.07.23,0,.23.13v4a.47.47,0,0,1-.23.38c-.12.08-.22,0-.22-.13v-4A.51.51,0,0,1,375.48,47.85Z"/><path class="cls-3" d="M368.93,53.65c.08,0,.16,0,.2,0l1.76,2.47c.06.08,0,.26-.08.39l-.12.11a.14.14,0,0,1-.19,0l-1.76-2.47a.39.39,0,0,1,.08-.4Z"/><path class="cls-3" d="M383.86,63.63a.19.19,0,0,1,.11,0l3,.26c.1,0,.14.15.08.31a.49.49,0,0,1-.2.24l-.11,0-3-.26c-.11,0-.14-.15-.08-.31A.44.44,0,0,1,383.86,63.63Z"/><path class="cls-3" d="M370.75,75.24a.23.23,0,0,1,.11,0c.11,0,.14.15.08.31L369.2,80a.49.49,0,0,1-.19.25l-.11,0c-.11,0-.15-.15-.08-.31l1.73-4.48A.51.51,0,0,1,370.75,75.24Z"/><polygon class="cls-12" points="264.27 113.91 271.19 111.57 265.01 122.87 256.86 132.79 264.27 113.91"/><polygon class="cls-23" points="286.75 84.8 278.48 114.52 265.26 129.8 261.77 139.73 246.94 148.29 256.86 132.79 265.01 122.87 271.19 111.57 286.75 84.8"/><polygon class="cls-6" points="312.36 58.52 312.48 99.82 306.55 93.15 302.77 97.38 286.75 84.8 271.19 111.57 264.27 113.91 256.86 132.79 246.94 148.29 261.77 139.73 278.53 130.06 286.86 125.24 312.51 110.44 246.94 148.29 246.79 96.37 312.36 58.52"/><polygon class="cls-26" points="312.36 58.52 312.48 99.82 306.55 93.15 302.77 97.38 286.75 84.8 271.19 111.57 264.27 113.91 256.86 132.79 246.94 148.29 261.77 139.73 278.53 130.06 286.86 125.24 312.51 110.44 246.94 148.29 246.79 96.37 312.36 58.52"/><polygon class="cls-12" points="306.55 93.15 312.48 99.82 312.51 110.44 286.86 125.24 289.28 120.49 296.01 113.25 306.55 93.15"/><polygon class="cls-12" points="286.75 84.8 302.77 97.38 288.2 113.7 278.53 130.06 261.77 139.73 265.26 129.8 278.48 114.52 286.75 84.8"/><path class="cls-6" d="M241.09,93.13,318,48.72l.18,65-76.92,44.41Zm71.39,6.69-.12-41.3L246.79,96.37l.15,51.92,65.57-37.85,0-10.62"/><path class="cls-39" d="M241.09,93.13,318,48.72l.18,65-76.92,44.41Zm71.39,6.69-.12-41.3L246.79,96.37l.15,51.92,65.57-37.85,0-10.62"/><polygon class="cls-23" points="306.55 93.15 296.01 113.25 289.28 120.49 286.86 125.24 278.53 130.06 288.2 113.7 302.77 97.38 306.55 93.15"/><polygon class="cls-6" points="119.03 122.49 119.11 153.5 79.95 176.11 79.86 145.1 119.03 122.49"/><polygon class="cls-39" points="119.03 122.49 119.11 153.5 79.95 176.11 79.86 145.1 119.03 122.49"/><path class="cls-6" d="M76.46,143.16l45.94-26.52.11,38.8L76.57,182Zm42.65,10.34-.08-31L79.86,145.1l.09,31,39.16-22.61"/><g class="cls-37"><path class="cls-39" d="M76.46,143.16l45.94-26.52.11,38.8L76.57,182Zm42.65,10.34-.08-31L79.86,145.1l.09,31,39.16-22.61"/></g><path class="cls-23" d="M112.33,131.4c.7-.4,1.27-.08,1.27.73l.05,18a2.78,2.78,0,0,1-1.26,2.19l-6.7,3.86c2.91-3.95,4.81-8.9,4.8-13.25s-1.94-7.09-4.86-7.68Z"/><path class="cls-18" d="M99.47,140.66c4.15-2.4,7.53-.47,7.54,4.3a16.52,16.52,0,0,1-7.5,13c-4.15,2.4-7.53.48-7.54-4.3A16.49,16.49,0,0,1,99.47,140.66Zm-2.31,9a5.13,5.13,0,0,0,2.32-4c0-1.48-1-2.07-2.34-1.33a5.08,5.08,0,0,0-2.32,4c0,1.48,1.05,2.08,2.34,1.33"/><path class="cls-23" d="M93.29,142.4c-2.91,3.95-4.82,8.9-4.8,13.25s1.93,7.09,4.85,7.68l-6.69,3.87c-.7.4-1.28.08-1.28-.72l-.05-18a2.82,2.82,0,0,1,1.27-2.2Z"/><path class="cls-3" d="M97.14,144.26c1.29-.74,2.33-.15,2.34,1.33a5.13,5.13,0,0,1-2.32,4c-1.29.75-2.34.15-2.34-1.33A5.08,5.08,0,0,1,97.14,144.26Z"/><path class="cls-12" d="M105.63,135.27c2.92.59,4.85,3.33,4.86,7.68s-1.89,9.3-4.8,13.25A20.76,20.76,0,0,1,99.53,162a9,9,0,0,1-6.19,1.38c-2.92-.59-4.84-3.32-4.85-7.68s1.89-9.3,4.8-13.25a21,21,0,0,1,6.16-5.74A9,9,0,0,1,105.63,135.27Zm-6.12,22.67a16.52,16.52,0,0,0,7.5-13c0-4.77-3.39-6.7-7.54-4.3a16.49,16.49,0,0,0-7.5,13c0,4.78,3.39,6.7,7.54,4.3"/><path class="cls-6" d="M299,28.51,348.42,0l.15,50.74L299.18,79.25ZM343.9,48.08l-.12-40L303.71,31.17l.11,40L343.9,48.08"/><path class="cls-39" d="M299,28.51,348.42,0l.15,50.74L299.18,79.25ZM343.9,48.08l-.12-40L303.71,31.17l.11,40L343.9,48.08"/><polygon class="cls-26" points="343.78 8.04 303.71 31.17 303.82 71.21 343.9 48.08 343.78 8.04"/><g class="cls-35"><path class="cls-3" d="M330.68,36.39a7.05,7.05,0,0,1,3-.41,6.75,6.75,0,0,1,.72.12c1.9.46,1.71,2,1,3.83a5.5,5.5,0,0,1-2.13,3,3.64,3.64,0,0,1-1.68.47,4.87,4.87,0,0,1-.76,0,4.75,4.75,0,0,1-2.46-.87c.15-.23.29-.47.43-.71a16.81,16.81,0,0,0,1.11-2.3,14.25,14.25,0,0,0,.69-2.34C330.61,36.87,330.65,36.63,330.68,36.39Z"/><path class="cls-2" d="M327.29,41.05a2.82,2.82,0,0,0,1,1.42c.15-.23.29-.47.43-.71-.14.24-.28.48-.43.71a17.26,17.26,0,0,1-1,1.41,13.6,13.6,0,0,1-1.12,1.24l-.47.44c.16-.14.31-.29.46-.44a2.85,2.85,0,0,0-1-1.45A11.3,11.3,0,0,0,327.29,41.05Z"/><path class="cls-41" d="M329.56,36.91a6.34,6.34,0,0,1,1.12-.52c0,.24-.07.48-.12.73a14.25,14.25,0,0,1-.69,2.34,16.81,16.81,0,0,1-1.11,2.3c-.14.24-.28.48-.43.71a2.82,2.82,0,0,1-1-1.42,10.92,10.92,0,0,0,1.36-3.51A5.88,5.88,0,0,1,329.56,36.91Z"/><path class="cls-41" d="M334.34,29.6c2.32-1.08,2.78,0,2.79,1.65s-.45,3.25-2.77,4.85a6.75,6.75,0,0,0-.72-.12,7.14,7.14,0,0,0-2.95.4,10.64,10.64,0,0,0,.11-1.48,9.41,9.41,0,0,0-.12-1.35,19.56,19.56,0,0,0,2.94-3C333.89,30.22,334.13,29.9,334.34,29.6Z"/><path class="cls-3" d="M326.19,45.12a9.73,9.73,0,0,1,.51,3.3c0,.36,0,.69,0,1a5.4,5.4,0,0,1-2.81,4.83c-1.43.82-2.61,1-2.84-1.57,0-.28,0-.6,0-1a15.72,15.72,0,0,1,.48-3.87l.47-.1a7.47,7.47,0,0,0,1.91-.78,11.46,11.46,0,0,0,1.9-1.42C325.89,45.42,326,45.27,326.19,45.12Z"/><path class="cls-2" d="M330.68,33.55a9.41,9.41,0,0,1,.12,1.35,10.64,10.64,0,0,1-.11,1.48c0,.25-.08.49-.13.74.05-.25.09-.49.12-.73a6.34,6.34,0,0,0-1.12.52,5.88,5.88,0,0,0-.91.63,7.61,7.61,0,0,0,.15-1.49,5.82,5.82,0,0,0-.15-1.31,4.1,4.1,0,0,0,.9-.41A8.25,8.25,0,0,0,330.68,33.55Z"/><path class="cls-41" d="M325.19,43.67a2.85,2.85,0,0,1,1,1.45c-.15.15-.3.3-.46.44a11.46,11.46,0,0,1-1.9,1.42,7.47,7.47,0,0,1-1.91.78l-.47.1a11.46,11.46,0,0,1,1-2.61,5.72,5.72,0,0,0,1.37-.57A9.1,9.1,0,0,0,325.19,43.67Z"/><path class="cls-3" d="M316.93,44.33c0,.2.08.39.13.58a4.52,4.52,0,0,0,.7,1.54,3.28,3.28,0,0,0,1.12,1,3.36,3.36,0,0,0,.43.2,23,23,0,0,1-2.44,3.7c-.27.34-.52.64-.76.9a7.55,7.55,0,0,1-1.68,1.46,1.41,1.41,0,0,1-2.14-.48c-.72-1-.92-2.32,1-5,.21-.3.45-.61.71-.94A19.58,19.58,0,0,1,316.93,44.33Z"/><path class="cls-41" d="M319.31,47.68a4,4,0,0,0,1,.24,4.26,4.26,0,0,0,1.12-.06,15.72,15.72,0,0,0-.48,3.87c0,.35,0,.67,0,1a6.31,6.31,0,0,1-2.26,3,2.5,2.5,0,0,1-1.57.32c-1.23-.1-2-.77-1.07-3.77.24-.26.49-.56.76-.9A23.44,23.44,0,0,0,319.31,47.68Z"/><path class="cls-2" d="M320.34,45.07a2.93,2.93,0,0,0,2.11.18,11.46,11.46,0,0,0-1,2.61l.47-.1-.47.1a4.26,4.26,0,0,1-1.12.06,4,4,0,0,1-1-.24c-.15-.07-.29-.13-.43-.21a3.36,3.36,0,0,0,.43.2A11,11,0,0,0,320.34,45.07Z"/><path class="cls-41" d="M328.29,30.2a3.45,3.45,0,0,1,1.56,1.22,5.31,5.31,0,0,1,.83,2.13,8.25,8.25,0,0,1-1.13.78,4.1,4.1,0,0,1-.9.41,2.9,2.9,0,0,0-1.38-1.93A11.65,11.65,0,0,1,328.29,30.2Z"/><path class="cls-3" d="M333.17,24.15a1.42,1.42,0,0,1,2.15.47c.71,1,.92,2.33-1,5-.21.3-.45.62-.72.95a19.56,19.56,0,0,1-2.94,3,5.31,5.31,0,0,0-.83-2.13,3.45,3.45,0,0,0-1.56-1.22,23.15,23.15,0,0,1,2.45-3.7c.27-.33.52-.63.76-.89A7.25,7.25,0,0,1,333.17,24.15Z"/><path class="cls-2" d="M326.15,30a4.34,4.34,0,0,1,1.13-.06,3.25,3.25,0,0,1,1,.24,11.65,11.65,0,0,0-1,2.61,2.88,2.88,0,0,0-2.11-.18A11.19,11.19,0,0,0,326.15,30Z"/><path class="cls-41" d="M318.06,43.54a4.54,4.54,0,0,1,.9-.4,2.89,2.89,0,0,0,1.38,1.93,11,11,0,0,1-1,2.6,3.36,3.36,0,0,1-.43-.2,3.28,3.28,0,0,1-1.12-1,4.52,4.52,0,0,1-.7-1.54c-.05-.19-.09-.38-.13-.58A10.28,10.28,0,0,1,318.06,43.54Z"/><path class="cls-6" d="M323.79,33.2a4.76,4.76,0,0,1,1.37-.57,2.68,2.68,0,0,1,3.49,2.11,5.82,5.82,0,0,1,.15,1.31,7.61,7.61,0,0,1-.15,1.49,10.92,10.92,0,0,1-1.36,3.51,11.3,11.3,0,0,1-2.1,2.62,9.1,9.1,0,0,1-1.37,1,5.72,5.72,0,0,1-1.37.57,2.93,2.93,0,0,1-2.11-.18A2.89,2.89,0,0,1,319,43.14a5.44,5.44,0,0,1-.15-1.32,8.41,8.41,0,0,1,.14-1.48,11.5,11.5,0,0,1,3.47-6.13A7.21,7.21,0,0,1,323.79,33.2Z"/><g class="cls-42"><path class="cls-3" d="M323.79,33.2a4.76,4.76,0,0,1,1.37-.57,2.68,2.68,0,0,1,3.49,2.11,5.82,5.82,0,0,1,.15,1.31,7.61,7.61,0,0,1-.15,1.49,10.92,10.92,0,0,1-1.36,3.51,11.3,11.3,0,0,1-2.1,2.62,9.1,9.1,0,0,1-1.37,1,5.72,5.72,0,0,1-1.37.57,2.93,2.93,0,0,1-2.11-.18A2.89,2.89,0,0,1,319,43.14a5.44,5.44,0,0,1-.15-1.32,8.41,8.41,0,0,1,.14-1.48,11.5,11.5,0,0,1,3.47-6.13A7.21,7.21,0,0,1,323.79,33.2Z"/></g><path class="cls-3" d="M314.38,35a3.9,3.9,0,0,1,1.68-.47,4.92,4.92,0,0,1,.76,0,4.84,4.84,0,0,1,2.46.86,16.82,16.82,0,0,0-1.54,3,13.78,13.78,0,0,0-.82,3.07,7,7,0,0,1-2.95.41,6,6,0,0,1-.72-.12c-1.91-.46-1.71-2-1-3.84A5.49,5.49,0,0,1,314.38,35Z"/><path class="cls-2" d="M316.92,41.5A6.78,6.78,0,0,0,318,41a5.44,5.44,0,0,0,.91-.63,8.41,8.41,0,0,0-.14,1.48,5.44,5.44,0,0,0,.15,1.32,4.54,4.54,0,0,0-.9.4,10.28,10.28,0,0,0-1.13.79c0,.2.08.39.13.58-.05-.19-.09-.38-.13-.58a7.25,7.25,0,0,1-.12-1.36A10.61,10.61,0,0,1,316.92,41.5Z"/><path class="cls-41" d="M328.86,22.16a2.5,2.5,0,0,1,1.57-.32c1.23.1,2,.77,1.07,3.77-.24.26-.49.56-.76.89a23.15,23.15,0,0,0-2.45,3.7,3.25,3.25,0,0,0-1-.24,4.81,4.81,0,0,0-1.13.05,15.18,15.18,0,0,0,.48-3.86,9.46,9.46,0,0,0,0-1A6.32,6.32,0,0,1,328.86,22.16Z"/><path class="cls-41" d="M323.78,30.9a7,7,0,0,1,2.37-.88,11.19,11.19,0,0,1-1,2.61,4.76,4.76,0,0,0-1.37.57,7.21,7.21,0,0,0-1.37,1,2.86,2.86,0,0,1-1-1.45A12,12,0,0,1,323.78,30.9Z"/><path class="cls-2" d="M321.41,32.75a2.84,2.84,0,0,0,1,1.46,11.55,11.55,0,0,0-2.11,2.61,2.82,2.82,0,0,0-1-1.41,13.93,13.93,0,0,1,1-1.41A13.76,13.76,0,0,1,321.41,32.75Z"/><path class="cls-3" d="M323.76,23.63c1.42-.82,2.6-1,2.83,1.56a9.46,9.46,0,0,1,0,1,15.18,15.18,0,0,1-.48,3.86,7.25,7.25,0,0,0-2.37.89,12,12,0,0,0-2.37,1.86,9.84,9.84,0,0,1-.5-3.3c0-.36,0-.69,0-1C321.16,25.65,322.34,24.45,323.76,23.63Z"/><path class="cls-41" d="M318.67,28a1.69,1.69,0,0,1,2.27.42c0,.31,0,.64,0,1a9.73,9.73,0,0,0,.5,3.29A13.76,13.76,0,0,0,320.29,34a15,15,0,0,0-1,1.4,4.84,4.84,0,0,0-2.46-.86,4.92,4.92,0,0,0-.76,0c-1-1.88-.18-3.47,1-5A6.35,6.35,0,0,1,318.67,28Z"/></g><path class="cls-41" d="M319.28,35.41a2.82,2.82,0,0,1,1,1.41A11.46,11.46,0,0,0,319,40.34,5.44,5.44,0,0,1,318,41a6,6,0,0,1-1.12.52,13.78,13.78,0,0,1,.82-3.07A16.4,16.4,0,0,1,319.28,35.41Z"/><path class="cls-41" d="M313.25,41.78a6,6,0,0,0,.72.12,7.18,7.18,0,0,0,2.95-.4,10.61,10.61,0,0,0-.11,1.47,7.25,7.25,0,0,0,.12,1.36,19.58,19.58,0,0,0-2.95,3c-.26.33-.5.64-.71.94-2.33,1.09-2.78,0-2.79-1.64S310.93,43.38,313.25,41.78Z"/><path class="cls-41" d="M328.33,42.47a4.75,4.75,0,0,0,2.46.87,4.87,4.87,0,0,0,.76,0c1,1.88.18,3.47-1.05,5a6.16,6.16,0,0,1-1.56,1.49,1.7,1.7,0,0,1-2.28-.42c0-.31,0-.64,0-1a10,10,0,0,0-.5-3.3,13.6,13.6,0,0,0,1.12-1.24A17.26,17.26,0,0,0,328.33,42.47Z"/></g></g></svg>