<svg width="54" height="60" viewBox="0 0 54 60" fill="none" xmlns="http://www.w3.org/2000/svg">
<path d="M26.9676 60L5.36219 54.0022L0.547516 0H53.4525L48.6327 53.9937L26.9676 60Z" fill="#264DE4"/>
<path d="M44.5064 50.5556L48.6252 4.41553H26.9999V55.4091L44.5064 50.5556Z" fill="#2965F1"/>
<path d="M11.5851 24.4441L12.1787 31.0672H27V24.4441H11.5851Z" fill="#EBEBEB"/>
<path d="M10.3923 11.0387L10.9943 17.6619H27V11.0387H10.3923Z" fill="#EBEBEB"/>
<path d="M27 41.6452L26.971 41.6529L19.5947 39.6612L19.1232 34.3789H12.4746L13.4025 44.7782L26.9695 48.5445L27 48.536V41.6452Z" fill="#EBEBEB"/>
<path d="M42.3725 24.4441L43.5682 11.0387H26.9771V17.6619H36.3098L35.7072 24.4441H26.9771V31.0672H35.1328L34.364 39.6569L26.9771 41.6507V48.5412L40.555 44.7782L40.6546 43.6592L42.2109 26.2226L42.3725 24.4441Z" fill="white"/>
</svg>
