<svg width="25" height="25" viewBox="0 0 25 25" fill="none" xmlns="http://www.w3.org/2000/svg">
<path d="M12.5 0.390625C5.46875 0.390625 0 5.85938 0 12.8906C0 21.0938 7.42188 24.6094 8.59375 24.6094C9.375 24.6094 9.375 24.2188 9.375 23.8281V21.875C6.64062 22.6562 5.46875 21.0938 5.07812 19.9219C5.07812 19.9219 5.07812 19.5312 4.29688 18.75C3.90625 18.3594 2.34375 17.5781 3.90625 17.5781C5.07812 17.5781 5.85938 19.1406 5.85938 19.1406C7.03125 20.7031 8.59375 20.3125 9.375 19.9219C9.375 19.1406 10.1562 18.3594 10.1562 18.3594C7.03125 17.9688 4.6875 16.7969 4.6875 12.5C4.6875 10.9375 5.07812 9.76562 5.85938 8.98438C5.85938 8.98438 5.07812 7.42188 5.85938 5.46875C5.85938 5.46875 7.8125 5.46875 9.375 7.03125C10.5469 6.25 14.4531 6.25 15.625 7.03125C17.1875 5.46875 19.1406 5.46875 19.1406 5.46875C19.9219 8.20312 19.1406 8.98438 19.1406 8.98438C19.9219 9.76562 20.3125 10.9375 20.3125 12.5C20.3125 16.7969 17.5781 17.9688 14.8438 18.3594C15.2344 18.75 15.625 19.5312 15.625 20.7031V23.8281C15.625 24.2188 15.625 24.6094 16.4062 24.6094C17.5781 24.6094 25 21.0938 25 12.8906C25 5.85938 19.5312 0.390625 12.5 0.390625Z" fill="#EEF1F1"/>
</svg>
