<svg width="60" height="60" viewBox="0 0 60 60" fill="none" xmlns="http://www.w3.org/2000/svg">
<path d="M30 1.01624e-05C13.44 1.01624e-05 0 13.7658 0 30.7577C0 44.3458 8.6 55.8697 20.52 59.9434C22.0133 60.2305 22.5733 59.2736 22.5733 58.467C22.5733 57.7288 22.5467 55.3092 22.5333 52.7393C14.1867 54.5984 12.4267 49.1167 12.4267 49.1167C11.0667 45.5625 9.09333 44.6192 9.09333 44.6192C6.37333 42.7054 9.29333 42.7464 9.29333 42.7464C12.3067 42.9651 13.8933 45.9179 13.8933 45.9179C16.5733 50.6204 20.9067 49.2534 22.6267 48.4742C22.8933 46.492 23.6667 45.125 24.5333 44.3595C17.8667 43.5803 10.8667 40.942 10.8667 29.1583C10.8667 25.7955 12.04 23.0615 13.96 20.9016C13.6533 20.1224 12.6267 17.0056 14.2533 12.7679C14.2533 12.7679 16.7733 11.9477 22.5067 15.9257C24.8933 15.2422 27.4667 14.9004 30.0133 14.8868C32.56 14.9004 35.1333 15.2422 37.5333 15.9257C43.2533 11.9477 45.7733 12.7679 45.7733 12.7679C47.4 17.0056 46.3867 20.1361 46.0667 20.9016C47.9867 23.0478 49.1467 25.7955 49.1467 29.1583C49.1467 40.9693 42.1333 43.5666 35.4533 44.3321C36.5333 45.2891 37.4933 47.1619 37.4933 50.0326C37.4933 54.1473 37.4533 57.4554 37.4533 58.467C37.4533 59.2872 37.9867 60.2442 39.52 59.9434C51.4133 55.856 60 44.3321 60 30.7441C60 13.7658 46.5733 -0.0136599 30 1.01624e-05Z" fill="black"/>
</svg>
