<svg width="54" height="60" viewBox="0 0 54 60" fill="none" xmlns="http://www.w3.org/2000/svg">
<path d="M53.3794 0L48.5729 53.9937L26.9677 60L5.42198 54.0022L0.620605 0H53.3794Z" fill="#E44D26"/>
<path d="M27 55.409L44.4581 50.5556L48.5655 4.41547H27V55.409Z" fill="#F16529"/>
<path d="M17.6564 17.6619H27V11.0387H10.4382L10.5963 12.8156L12.2196 31.0672H27V24.4441H18.2601L17.6564 17.6619Z" fill="#EBEBEB"/>
<path d="M19.1449 34.3788H12.5147L13.44 44.7781L26.9696 48.5444L27 48.536V41.6451L26.971 41.6529L19.6152 39.6611L19.1449 34.3788Z" fill="#EBEBEB"/>
<path d="M26.9772 31.0672H35.1103L34.3437 39.6569L26.9772 41.6507V48.5413L40.5175 44.7782L40.6168 43.6592L42.1689 26.2227L42.33 24.4442H26.9772V31.0672Z" fill="white"/>
<path d="M26.9772 17.6457V17.6619H42.931L43.0635 16.1732L43.3645 12.8156L43.5224 11.0387H26.9772V17.6457Z" fill="white"/>
</svg>
