<svg width="25" height="25" viewBox="0 0 25 25" fill="none" xmlns="http://www.w3.org/2000/svg">
<path d="M19.1729 7.32707C20.0013 7.32707 20.6729 6.65549 20.6729 5.82707C20.6729 4.99864 20.0013 4.32707 19.1729 4.32707C18.3445 4.32707 17.6729 4.99864 17.6729 5.82707C17.6729 6.65549 18.3445 7.32707 19.1729 7.32707Z" fill="#EEF1F1"/>
<path d="M12.5 6.08126C11.2305 6.08126 9.98948 6.45771 8.93392 7.16301C7.87837 7.86831 7.05566 8.87078 6.56984 10.0437C6.08402 11.2165 5.95691 12.5071 6.20458 13.7522C6.45224 14.9974 7.06357 16.1411 7.96125 17.0387C8.85893 17.9364 10.0026 18.5478 11.2478 18.7954C12.4929 19.0431 13.7835 18.916 14.9563 18.4302C16.1292 17.9443 17.1317 17.1216 17.837 16.0661C18.5423 15.0105 18.9187 13.7695 18.9187 12.5C18.9187 10.7976 18.2425 9.16501 17.0387 7.96126C15.835 6.75752 14.2023 6.08126 12.5 6.08126ZM12.5 16.6667C11.6759 16.6667 10.8703 16.4223 10.1851 15.9645C9.49991 15.5066 8.96586 14.8559 8.65049 14.0945C8.33513 13.3332 8.25261 12.4954 8.41339 11.6871C8.57416 10.8789 8.97099 10.1364 9.55371 9.55373C10.1364 8.97101 10.8789 8.57417 11.6871 8.4134C12.4954 8.25263 13.3331 8.33514 14.0945 8.65051C14.8559 8.96587 15.5066 9.49993 15.9644 10.1851C16.4223 10.8703 16.6667 11.6759 16.6667 12.5C16.6667 13.6051 16.2277 14.6649 15.4463 15.4463C14.6649 16.2277 13.6051 16.6667 12.5 16.6667Z" fill="#EEF1F1"/>
<path d="M12.5 2.25208C15.8375 2.25208 16.2333 2.26458 17.551 2.325C18.3436 2.33441 19.1286 2.47993 19.8719 2.75521C20.4111 2.96322 20.9008 3.28182 21.3095 3.6905C21.7182 4.09918 22.0368 4.58889 22.2448 5.12813C22.5201 5.87138 22.6656 6.65642 22.675 7.44896C22.7354 8.76667 22.7479 9.1625 22.7479 12.501C22.7479 15.8396 22.7354 16.2333 22.675 17.551C22.6656 18.3436 22.5201 19.1286 22.2448 19.8719C22.0368 20.4111 21.7182 20.9008 21.3095 21.3095C20.9008 21.7182 20.4111 22.0368 19.8719 22.2448C19.1286 22.5201 18.3436 22.6656 17.551 22.675C16.2333 22.7354 15.8375 22.7479 12.5 22.7479C9.1625 22.7479 8.76667 22.7354 7.44896 22.675C6.65642 22.6656 5.87138 22.5201 5.12813 22.2448C4.58889 22.0368 4.09918 21.7182 3.6905 21.3095C3.28182 20.9008 2.96322 20.4111 2.75521 19.8719C2.47993 19.1286 2.33441 18.3436 2.325 17.551C2.26458 16.2333 2.25208 15.8375 2.25208 12.5C2.25208 9.1625 2.26458 8.76667 2.325 7.44896C2.33441 6.65642 2.47993 5.87138 2.75521 5.12813C2.96322 4.58889 3.28182 4.09918 3.6905 3.6905C4.09918 3.28182 4.58889 2.96322 5.12813 2.75521C5.87138 2.47993 6.65642 2.33441 7.44896 2.325C8.76667 2.26458 9.1625 2.25208 12.5 2.25208ZM12.5 0C9.10521 0 8.67917 0.0145834 7.34583 0.075C6.30914 0.0959334 5.2835 0.292468 4.3125 0.65625C3.482 0.977393 2.72777 1.46852 2.09814 2.09814C1.46852 2.72777 0.977393 3.482 0.65625 4.3125C0.292353 5.28383 0.095816 6.30983 0.075 7.34688C0.0145834 8.68021 0 9.10417 0 12.5C0 15.8958 0.0145834 16.3208 0.075 17.6542C0.0959334 18.6909 0.292468 19.7165 0.65625 20.6875C0.977393 21.518 1.46852 22.2722 2.09814 22.9019C2.72777 23.5315 3.482 24.0226 4.3125 24.3438C5.28383 24.7076 6.30983 24.9042 7.34688 24.925C8.68021 24.9854 9.10521 25 12.5 25C15.8948 25 16.3208 24.9854 17.6542 24.925C18.6912 24.9042 19.7172 24.7076 20.6885 24.3438C21.519 24.0226 22.2733 23.5315 22.9029 22.9019C23.5325 22.2722 24.0236 21.518 24.3448 20.6875C24.7083 19.7161 24.9045 18.6901 24.925 17.6531C24.9854 16.3198 25 15.8958 25 12.5C25 9.10417 24.9854 8.67917 24.925 7.34583C24.9041 6.30914 24.7075 5.2835 24.3438 4.3125C24.0226 3.482 23.5315 2.72777 22.9019 2.09814C22.2722 1.46852 21.518 0.977393 20.6875 0.65625C19.7161 0.292708 18.6901 0.0965241 17.6531 0.0760416C16.3198 0.0135416 15.8958 0 12.5 0Z" fill="#EEF1F1"/>
</svg>
