<svg width="25" height="25" viewBox="0 0 25 25" fill="none" xmlns="http://www.w3.org/2000/svg">
<path d="M5.6752 24.4484V8.32521H0.31618V24.4484H5.6752ZM2.99638 6.12254C4.86516 6.12254 6.02839 4.88447 6.02839 3.33729C5.99357 1.75522 4.86524 0.551514 3.03184 0.551514C1.19874 0.551514 0 1.75525 0 3.33729C0 4.88454 1.16294 6.12254 2.9614 6.12254H2.99621H2.99638ZM8.6414 24.4484H14.0004V15.4444C14.0004 14.9625 14.0352 14.4812 14.1767 14.1367C14.5642 13.1739 15.4459 12.1767 16.9263 12.1767C18.8655 12.1767 19.6413 13.6553 19.6413 15.8227V24.4483H25V15.2034C25 10.251 22.3561 7.94669 18.8302 7.94669C15.9393 7.94669 14.6699 9.56264 13.9648 10.6633H14.0005V8.32488H8.64152C8.71184 9.83779 8.64152 24.4481 8.64152 24.4481L8.6414 24.4484Z" fill="#EEF1F1"/>
</svg>
