<svg xmlns="http://www.w3.org/2000/svg" xmlns:xlink="http://www.w3.org/1999/xlink" viewBox="0 0 144.62 154.2"><defs><style>.cls-1{isolation:isolate;}.cls-2{fill:#92b4d1;opacity:0.2;}.cls-3{fill:#d1ebff;}.cls-4{fill:#3f92d1;}.cls-5{fill:#4f9fdb;}.cls-36,.cls-47,.cls-6{fill:#fff;}.cls-6{mix-blend-mode:screen;}.cls-7{fill:#084c94;}.cls-8{fill:#001a46;}.cls-9{fill:#fc0;}.cls-10{fill:#eb4680;}.cls-11{fill:#0fbab8;}.cls-12,.cls-38{mix-blend-mode:multiply;}.cls-13{fill:#f1f2f2;opacity:0.1;}.cls-14{fill:#eceff0;opacity:0.14;}.cls-15{fill:#e7ebee;opacity:0.19;}.cls-16{fill:#e2e8ec;opacity:0.23;}.cls-17{fill:#dee5ea;opacity:0.27;}.cls-18{fill:#d9e1e8;opacity:0.31;}.cls-19{fill:#d4dee6;opacity:0.36;}.cls-20{fill:#cfdbe4;opacity:0.4;}.cls-21{fill:#cad7e2;opacity:0.44;}.cls-22{fill:#c5d4e0;opacity:0.49;}.cls-23{fill:#c0d1de;opacity:0.53;}.cls-24{fill:#bccddb;opacity:0.57;}.cls-25{fill:#b7cad9;opacity:0.61;}.cls-26{fill:#b2c7d7;opacity:0.66;}.cls-27{fill:#adc3d5;}.cls-27,.cls-47{opacity:0.7;}.cls-28{fill:#a8c0d3;opacity:0.74;}.cls-29{fill:#a3bdd1;opacity:0.79;}.cls-30{fill:#9eb9cf;opacity:0.83;}.cls-31{fill:#9ab6cd;opacity:0.87;}.cls-32{fill:#95b3cb;opacity:0.91;}.cls-33{fill:#90afc9;opacity:0.96;}.cls-34{fill:#8bacc7;}.cls-35{fill:#2672ab;}.cls-37{fill:#a8cff0;}.cls-38{fill:url(#radial-gradient);}.cls-39{fill:#03336e;}.cls-40{fill:url(#linear-gradient);}.cls-41{fill:#f0f8ff;}.cls-42{fill:#72b5e8;}.cls-43{fill:#231f20;opacity:0.5;}.cls-44{fill:#d62d69;}.cls-45{fill:#0ba19f;}.cls-46{fill:#3ecfcd;}.cls-48{fill:#ffde17;}</style><radialGradient id="radial-gradient" cx="8718.81" cy="2704.13" r="34.42" gradientTransform="matrix(-0.5, -0.87, -0.5, 0.86, 5749.67, 5357.78)" gradientUnits="userSpaceOnUse"><stop offset="0.06" stop-color="#7f9bb0"/><stop offset="1" stop-color="#fff"/></radialGradient><linearGradient id="linear-gradient" x1="110.94" y1="1642.14" x2="187.75" y2="1642.14" gradientTransform="matrix(0.87, 0.5, 0, 1.15, -68.87, -1861.64)" gradientUnits="userSpaceOnUse"><stop offset="0" stop-color="#311b61"/><stop offset="0.2" stop-color="#290f52"/><stop offset="0.49" stop-color="#200041"/><stop offset="1" stop-color="#0f001f"/></linearGradient></defs><title>Recurso 3transp</title><g class="cls-1"><g id="Capa_2" data-name="Capa 2"><g id="Layer_1" data-name="Layer 1"><polygon class="cls-2" points="127.34 153.05 34.65 99.54 51.93 90.58 144.62 144.09 127.34 153.05"/><polygon class="cls-2" points="110.92 152.2 20.81 100.17 37.61 91.46 127.72 143.49 110.92 152.2"/><path class="cls-2" d="M107.35,143c0,2.62-2.7,5-7.14,6.81-4.94,2-12,3.26-19.9,3.26-14.94,0-27-4.51-27-10.07S65.37,133,80.31,133,107.35,137.47,107.35,143Z"/><path class="cls-3" d="M124.64,152.17,35,100.37c-3.47-2-6.29-7.38-6.29-12V6.79C28.68,2.16,31.5,0,35,2l89.67,51.8c3.47,2,6.28,7.38,6.28,12v81.57C130.92,152,128.11,154.17,124.64,152.17Z"/><path class="cls-4" d="M127.12,52.55,37.46.75A4.3,4.3,0,0,0,33.78.21L31.07,1.6h0A4.1,4.1,0,0,1,35,2l89.67,51.8c3.47,2,6.28,7.38,6.28,12v81.57c0,2.88-1.09,4.8-2.76,5.34a1,1,0,0,0,.55-.19c.08,0,2.68-1.45,2.76-1.51,1.19-.83,1.94-2.55,1.94-4.93V64.56C133.41,59.93,130.59,54.56,127.12,52.55Z"/><path class="cls-5" d="M126.42,52.89,36.75,1.09A4.26,4.26,0,0,0,33.07.55c-.13,0-1.88,1-2,1.05h0A4.1,4.1,0,0,1,35,2l89.67,51.8Z"/><path class="cls-6" d="M124.94,53.69,35.27,1.89a4.18,4.18,0,0,0-3.78-.49,4.68,4.68,0,0,1,3,.71l89.66,51.8c3.47,2,6.29,7.38,6.29,12v81.57c0,2.73-1,4.58-2.5,5.24,1.94-.31,3.25-2.3,3.25-5.47V65.7C131.22,61.07,128.41,55.69,124.94,53.69Z"/><path class="cls-7" d="M32.22,14V88.36a10.66,10.66,0,0,0,4.52,9l88.71,51.24.14.09a1.21,1.21,0,0,0,1.8-1V69Z"/><path class="cls-8" d="M127.26,148l-.14-.09L38.41,96.64a10.68,10.68,0,0,1-4.52-9V15l-1.67-1V88.36a10.66,10.66,0,0,0,4.52,9l88.71,51.24.14.09a1.21,1.21,0,0,0,1.73-.65Z"/><path class="cls-9" d="M122.4,60.1a3.78,3.78,0,0,0,1.73,3c1,.56,1.73.11,1.73-1a3.85,3.85,0,0,0-1.73-3C123.17,58.56,122.4,59,122.4,60.1Z"/><path class="cls-10" d="M117.94,57.51a3.78,3.78,0,0,0,1.73,3c1,.55,1.73.11,1.73-1a3.83,3.83,0,0,0-1.73-3C118.71,56,117.94,56.41,117.94,57.51Z"/><path class="cls-11" d="M113.47,54.92a3.83,3.83,0,0,0,1.73,3c1,.55,1.73.11,1.73-1a3.8,3.8,0,0,0-1.73-3C114.25,53.38,113.47,53.82,113.47,54.92Z"/><g class="cls-12"><path class="cls-13" d="M29.28,19.72,115.15,70c4.3,1.44,7.78,8.09,7.78,13.82V140c0,5.72-3.48,8.36-7.78,5.88L29.28,97.75Z"/><path class="cls-14" d="M29.71,20.34,114.59,70c4.23,1.45,7.66,8,7.66,13.64v55.83c0,5.64-3.43,8.23-7.66,5.79L29.71,97.59Z"/><path class="cls-15" d="M30.14,21,114,70c4.17,1.46,7.54,7.9,7.54,13.45v55.43c0,5.55-3.37,8.1-7.54,5.7L30.14,97.43Z"/><path class="cls-16" d="M30.57,21.58,113.46,70c4.1,1.47,7.42,7.81,7.42,13.27v55c0,5.46-3.32,8-7.42,5.61L30.57,97.28Z"/><path class="cls-17" d="M31,22.2,112.9,70c4,1.48,7.29,7.72,7.29,13.09v54.62c0,5.37-3.26,7.84-7.29,5.52L31,97.12Z"/><path class="cls-18" d="M31.43,22.82,112.33,70c4,1.49,7.18,7.63,7.18,12.91v54.22c0,5.28-3.22,7.7-7.18,5.42L31.43,97Z"/><path class="cls-19" d="M31.86,23.44,111.77,70c3.89,1.5,7,7.53,7,12.73v53.81c0,5.19-3.16,7.58-7,5.33l-79.91-45Z"/><path class="cls-20" d="M32.29,24.06,111.21,70c3.82,1.51,6.93,7.44,6.93,12.54V135.9c0,5.1-3.11,7.45-6.93,5.24L32.29,96.65Z"/><path class="cls-21" d="M32.72,24.68,110.64,70c3.76,1.52,6.81,7.34,6.81,12.36v53c0,5-3,7.32-6.81,5.15l-77.92-44Z"/><path class="cls-22" d="M33.15,25.3l76.93,44.64c3.69,1.54,6.69,7.26,6.69,12.19v52.59c0,4.93-3,7.19-6.69,5.06L33.15,96.33Z"/><path class="cls-23" d="M33.58,25.92l75.94,44c3.62,1.55,6.56,7.17,6.56,12v52.2c0,4.83-2.94,7.05-6.56,5L33.58,96.17Z"/><path class="cls-24" d="M34,26.54,109,69.94c3.56,1.56,6.45,7.07,6.45,11.82v51.79c0,4.74-2.89,6.92-6.45,4.87L34,96Z"/><path class="cls-25" d="M34.44,27.16l74,42.78c3.49,1.57,6.32,7,6.32,11.63V133c0,4.66-2.83,6.8-6.32,4.78L34.44,95.86Z"/><path class="cls-26" d="M34.87,27.78l72.95,42.16c3.43,1.58,6.21,6.88,6.21,11.45v51c0,4.57-2.78,6.67-6.21,4.69L34.87,95.7Z"/><path class="cls-27" d="M35.3,28.4l72,41.53c3.36,1.59,6.08,6.8,6.08,11.28v50.57c0,4.48-2.72,6.54-6.08,4.6l-72-40.83Z"/><path class="cls-28" d="M35.73,29l71,40.91c3.29,1.6,6,6.7,6,11.09v50.17c0,4.39-2.67,6.41-6,4.51l-71-40.31Z"/><path class="cls-29" d="M36.16,29.64l70,40.29c3.23,1.61,5.84,6.61,5.84,10.91v49.77c0,4.3-2.61,6.27-5.84,4.41l-70-39.79Z"/><path class="cls-30" d="M36.58,30.26l69,39.67c3.16,1.62,5.72,6.51,5.72,10.72V130c0,4.21-2.56,6.15-5.72,4.32l-69-39.27Z"/><path class="cls-31" d="M37,30.88l68,39c3.09,1.64,5.59,6.43,5.59,10.55v49c0,4.12-2.5,6-5.59,4.23L37,94.92Z"/><path class="cls-32" d="M37.44,31.5l67,38.42c3,1.65,5.48,6.33,5.48,10.37v48.55c0,4-2.45,5.89-5.48,4.14l-67-38.22Z"/><path class="cls-33" d="M37.87,32.12l66,37.8c3,1.66,5.35,6.24,5.35,10.18v48.15c0,3.95-2.39,5.76-5.35,4.05l-66-37.7Z"/><path class="cls-34" d="M38.3,32.74l65,37.18c2.89,1.67,5.23,6.14,5.23,10v47.75c0,3.85-2.34,5.62-5.23,4l-65-37.18Z"/></g><polygon class="cls-35" points="110.29 152.01 21.13 100.71 21.13 21.43 110.29 72.72 110.29 152.01"/><polygon class="cls-36" points="22.7 99.8 22.7 24.15 108.71 73.64 108.71 149.28 22.7 99.8"/><polygon class="cls-37" points="22.7 32.71 22.7 24.15 108.71 73.64 108.71 82.19 22.7 32.71"/><rect class="cls-35" x="65.22" y="6.77" width="1" height="101.22" transform="translate(-16.66 86.09) rotate(-60.34)"/><rect class="cls-35" x="65.22" y="15.18" width="1" height="101.22" transform="translate(-23.97 90.34) rotate(-60.34)"/><rect class="cls-35" x="65.22" y="23.59" width="1" height="101.22" transform="translate(-31.28 94.59) rotate(-60.34)"/><rect class="cls-35" x="65.22" y="32.01" width="1" height="101.22" transform="translate(-38.59 98.84) rotate(-60.34)"/><rect class="cls-35" x="65.22" y="40.42" width="1" height="101.22" transform="translate(-45.91 103.09) rotate(-60.34)"/><rect class="cls-35" x="65.22" y="48.84" width="1" height="101.22" transform="translate(-53.22 107.34) rotate(-60.34)"/><rect class="cls-35" x="65.22" y="57.25" width="1" height="101.22" transform="translate(-60.53 111.59) rotate(-60.34)"/><rect class="cls-35" x="65.22" y="65.66" width="1" height="101.22" transform="translate(-67.84 115.84) rotate(-60.34)"/><rect class="cls-35" x="65.22" y="74.08" width="1" height="101.22" transform="translate(-75.15 120.09) rotate(-60.34)"/><rect class="cls-35" x="38.8" y="33.32" width="1" height="76.54"/><rect class="cls-35" x="56.68" y="43.57" width="1" height="76.54"/><rect class="cls-35" x="74.56" y="53.83" width="1" height="76.54"/><rect class="cls-35" x="92.44" y="64.08" width="1" height="76.54"/><polygon class="cls-9" points="22.84 40.89 22.84 33.43 52.38 50.13 52.38 57.59 22.84 40.89"/><polygon class="cls-9" points="39.7 58.94 39.7 51.47 84.6 77.11 84.6 84.58 39.7 58.94"/><polygon class="cls-9" points="74.92 120.93 74.92 113.47 104.46 130.17 104.46 137.63 74.92 120.93"/><polygon class="cls-9" points="22.64 66.04 22.64 58.57 52.19 75.27 52.19 82.73 22.64 66.04"/><polygon class="cls-9" points="22.64 82.8 22.64 75.33 38.9 84.42 38.9 91.89 22.64 82.8"/><polygon class="cls-9" points="69.27 84.37 69.27 76.91 98.81 93.61 98.81 101.07 69.27 84.37"/><ellipse class="cls-38" cx="75.18" cy="103.67" rx="32.01" ry="55.44" transform="translate(-42.05 52.11) rotate(-30.31)"/><path class="cls-39" d="M65.33,68.29c-8.66-5-16.54-5.76-22.46-3L38.11,68v0c5.91-2.75,13.75-2,22.35,3,18.37,10.6,33.26,36.29,33.26,57.36,0,10.23-3.51,17.5-9.22,21.05l3.19-1.86c6.7-3.12,10.9-10.76,10.9-22C98.59,104.57,83.7,78.89,65.33,68.29Z"/><path class="cls-40" d="M60.46,71.06C42.1,60.45,27.21,68.94,27.21,90s14.89,46.76,33.25,57.37,33.26,2.11,33.26-19S78.83,81.66,60.46,71.06Z"/><path class="cls-35" d="M61,70.78c-9.32-5.38-17.74-5.85-23.77-2.25,6-3.28,14.21-2.7,23.27,2.53,18.37,10.6,33.26,36.29,33.26,57.36,0,10.39-3.62,17.72-9.48,21.21,6.15-3.37,10-10.81,10-21.49C94.22,107.06,79.33,81.38,61,70.78Z"/><path class="cls-37" d="M16.38,113.92a.51.51,0,0,1-.47-.33q-.33-1-.63-1.92a.49.49,0,0,1,.33-.62.51.51,0,0,1,.63.32c.19.63.4,1.26.62,1.89a.51.51,0,0,1-.31.64A.5.5,0,0,1,16.38,113.92Zm-1.48-4.77a.5.5,0,0,1-.48-.37c-.18-.65-.35-1.29-.51-1.94a.5.5,0,1,1,1-.25c.16.64.33,1.28.5,1.93a.49.49,0,0,1-.34.61Zm-1.19-4.86a.5.5,0,0,1-.49-.39l-.39-2a.5.5,0,0,1,.41-.58.5.5,0,0,1,.58.4c.12.65.25,1.3.38,2a.49.49,0,0,1-.38.59Zm-.87-4.92a.5.5,0,0,1-.49-.43c-.09-.67-.18-1.34-.25-2a.5.5,0,1,1,1-.11c.07.65.16,1.31.25,2a.5.5,0,0,1-.42.56Zm-.51-5a.5.5,0,0,1-.5-.46c0-.68-.07-1.35-.09-2a.5.5,0,0,1,1,0q0,1,.09,2a.49.49,0,0,1-.46.53Zm-.11-5h0a.5.5,0,0,1-.49-.51c0-.68,0-1.36.08-2a.47.47,0,0,1,.52-.47.49.49,0,0,1,.47.53c0,.65-.06,1.31-.07,2A.51.51,0,0,1,12.22,89.4Zm.33-5h-.06a.51.51,0,0,1-.44-.56c.08-.67.17-1.34.28-2a.51.51,0,0,1,.57-.42.52.52,0,0,1,.42.58c-.11.64-.19,1.3-.27,2A.51.51,0,0,1,12.55,84.41Zm.83-4.93h-.11a.5.5,0,0,1-.38-.6c.15-.66.31-1.32.49-2a.5.5,0,0,1,1,.26c-.17.63-.33,1.27-.47,1.92A.5.5,0,0,1,13.38,79.48Zm1.36-4.81-.16,0a.51.51,0,0,1-.31-.64c.22-.64.46-1.28.71-1.9a.5.5,0,0,1,.93.38c-.25.6-.48,1.22-.69,1.85A.52.52,0,0,1,14.74,74.67Zm1.93-4.61a.44.44,0,0,1-.22,0,.49.49,0,0,1-.22-.67c.3-.61.62-1.2.95-1.79a.5.5,0,1,1,.87.49c-.32.57-.63,1.15-.93,1.75A.5.5,0,0,1,16.67,70.06Z"/><ellipse class="cls-7" cx="60.46" cy="109.22" rx="27.07" ry="46.89" transform="translate(-46.86 45.45) rotate(-30.31)"/><ellipse class="cls-41" cx="60.46" cy="109.22" rx="25.6" ry="44.35" transform="translate(-46.86 45.45) rotate(-30.31)"/><ellipse class="cls-42" cx="60.46" cy="109.22" rx="21.91" ry="37.96" transform="translate(-46.86 45.45) rotate(-30.31)"/><ellipse class="cls-41" cx="60.46" cy="109.22" rx="17.76" ry="30.76" transform="translate(-46.86 45.45) rotate(-30.31)"/><ellipse class="cls-42" cx="60.46" cy="109.22" rx="13.84" ry="23.97" transform="translate(-46.86 45.45) rotate(-30.31)"/><ellipse class="cls-41" cx="60.46" cy="109.22" rx="10.15" ry="17.58" transform="translate(-46.86 45.45) rotate(-30.31)"/><path class="cls-37" d="M61,145c-17.37-10-31.46-34.33-31.46-54.26C29.49,81.24,32.7,74.44,38,71,32.42,74.33,29,81.25,29,91.06c0,19.94,14.08,44.23,31.45,54.26,9.08,5.24,17.26,5.55,23,1.8C77.75,150.54,69.78,150.11,61,145Z"/><path class="cls-37" d="M61,134c-12.05-7-21.82-23.81-21.82-37.64C39.13,89.69,41.38,85,45,82.6c-3.95,2.25-6.4,7.11-6.4,14,0,13.83,9.77,30.68,21.82,37.64,6.28,3.63,11.93,3.85,15.92,1.28C72.43,137.78,67,137.44,61,134Z"/><path class="cls-37" d="M61,123.23c-6.89-4-12.47-13.61-12.47-21.51,0-3.68,1.21-6.34,3.21-7.73C49.41,95.27,48,98.05,48,102c0,7.91,5.58,17.53,12.46,21.51,3.68,2.12,7,2.2,9.27.62C67.47,125.41,64.37,125.2,61,123.23Z"/><ellipse class="cls-10" cx="60.46" cy="109.22" rx="5.65" ry="9.78" transform="translate(-46.86 45.45) rotate(-30.31)"/><path class="cls-43" d="M61.21,109.38c0,.35-.25.49-.55.31a1.2,1.2,0,0,1-.55-.94c0-.35.25-.49.55-.31A1.2,1.2,0,0,1,61.21,109.38Z"/><path class="cls-44" d="M60.46,101.26a5.17,5.17,0,0,0-4.53-.68,5.55,5.55,0,0,1,4.07.83,15.28,15.28,0,0,1,6.94,12c0,2.41-.93,4-2.4,4.64,1.73-.45,2.86-2.14,2.86-4.79A15.26,15.26,0,0,0,60.46,101.26Z"/><path class="cls-45" d="M4.29,142.13l-3-.41a1.51,1.51,0,0,1-.2-2.95l16.7-4.56Z"/><path class="cls-46" d="M4.4,141.83l-3-.4a1.5,1.5,0,0,1-1.25-1.92,1.51,1.51,0,0,0,1.14,2.21l3,.41,13.52-7.92-.71.19Z"/><path class="cls-47" d="M1.38,141.52l3,.4,12.93-7.57-.19.05L4.4,141.83l-3-.4a1.5,1.5,0,0,1-1.25-1.92s0,.07,0,.11A1.49,1.49,0,0,0,1.38,141.52Z"/><path class="cls-9" d="M60.9,109.18a.17.17,0,0,1-.06.14A20.05,20.05,0,0,1,55,114c-5.92,3.43-6.87,3.66-6.87,3.66-.16.09-.06-.11-.3-.24a1.92,1.92,0,0,1-.87-1.5c0-.27-.25-.27-.09-.36,0,0,.68-.68,6.61-4.11a19.5,19.5,0,0,1,7.05-2.68.16.16,0,0,1,.15,0A.49.49,0,0,1,60.9,109.18Z"/><path class="cls-48" d="M48.35,117.14c0,.55-.39.77-.87.5a1.92,1.92,0,0,1-.87-1.5c0-.55.39-.77.87-.5A1.92,1.92,0,0,1,48.35,117.14Z"/><path class="cls-35" d="M48.17,117.16a.57.57,0,0,1-.23.53L3.37,143.87c-.15.08-.05-.11-.28-.24a1.81,1.81,0,0,1-.83-1.43c0-.26-.24-.26-.09-.35l44.6-26.18a.59.59,0,0,1,.58.06A1.86,1.86,0,0,1,48.17,117.16Z"/><ellipse class="cls-4" cx="2.75" cy="142.87" rx="0.67" ry="1.17" transform="translate(-71.73 20.92) rotate(-30.31)"/><path class="cls-46" d="M3.79,141l13.82-8-10.79-.88a4.66,4.66,0,0,0-4.07,7.5Z"/><path class="cls-45" d="M4,141l13.81-8L7,132.15A4.66,4.66,0,0,0,3,139.64Z"/><path class="cls-47" d="M3.17,139.73a4.67,4.67,0,0,1,4.08-7.5l10.47.86.1-.06L7,132.14A4.66,4.66,0,0,0,3,139.64L4,141l.09-.06Z"/><path class="cls-46" d="M4.66,142.65,5,143.87a3.9,3.9,0,0,0,7.05,1l6.43-10.1Z"/><path class="cls-45" d="M4.88,142.48l.34,1.22a3.9,3.9,0,0,0,7.05,1.05l6.42-10.11Z"/><path class="cls-47" d="M12.38,144.54a3.9,3.9,0,0,1-7-1l-.3-1.1-.15.09.34,1.22a3.9,3.9,0,0,0,7.05,1.05l6.42-10.11h0Z"/><path class="cls-11" d="M15.27,127.41a.51.51,0,0,1-.44-.25.5.5,0,0,1,.18-.68l1.73-1a.49.49,0,0,1,.68.18.51.51,0,0,1-.17.69l-1.73,1A.47.47,0,0,1,15.27,127.41Zm4.32-2.52a.51.51,0,0,1-.44-.25.5.5,0,0,1,.18-.68l1.73-1a.49.49,0,0,1,.68.18.51.51,0,0,1-.18.69l-1.72,1A.47.47,0,0,1,19.59,124.89Zm4.31-2.52a.5.5,0,0,1-.25-.93l1.73-1a.49.49,0,0,1,.68.17.51.51,0,0,1-.18.69l-1.72,1A.58.58,0,0,1,23.9,122.37Zm4.32-2.52a.49.49,0,0,1-.43-.24.51.51,0,0,1,.18-.69l1.73-1a.49.49,0,0,1,.68.18.5.5,0,0,1-.18.68l-1.73,1A.51.51,0,0,1,28.22,119.85Z"/></g></g></g></svg>