<svg width="62" height="60" viewBox="0 0 62 60" fill="none" xmlns="http://www.w3.org/2000/svg">
<path d="M30.7826 0C15.4711 1.0921e-06 16.4273 6.63997 16.4273 6.63997L16.4443 13.5189H31.0557V15.5843H10.6408C10.6408 15.5843 0.842957 14.4731 0.842957 29.9225C0.842955 45.3719 9.39469 44.8241 9.39469 44.8241H14.4984V37.655C14.4984 37.655 14.2233 29.1032 22.9136 29.1032H37.4055C37.4055 29.1032 45.5476 29.2348 45.5476 21.2343V8.00552C45.5476 8.00552 46.7837 0 30.7826 0ZM22.7258 4.62579C24.1796 4.62579 25.3545 5.80075 25.3545 7.25447C25.3545 8.70819 24.1796 9.88315 22.7258 9.88315C21.2721 9.88315 20.0972 8.70819 20.0972 7.25447C20.0972 5.80075 21.2721 4.62579 22.7258 4.62579Z" fill="url(#paint0_linear)"/>
<path d="M31.2174 59.9999C46.5289 59.9999 45.5727 53.36 45.5727 53.36L45.5557 46.481H30.9443V44.4156H51.3592C51.3592 44.4156 61.157 45.5268 61.157 30.0774C61.157 14.628 52.6053 15.1759 52.6053 15.1759H47.5016V22.345C47.5016 22.345 47.7767 30.8967 39.0864 30.8967H24.5945C24.5945 30.8967 16.4524 30.7651 16.4524 38.7657V51.9944C16.4524 51.9944 15.2162 59.9999 31.2174 59.9999ZM39.2741 55.3742C37.8204 55.3742 36.6455 54.1992 36.6455 52.7455C36.6455 51.2918 37.8204 50.1168 39.2741 50.1168C40.7279 50.1168 41.9028 51.2918 41.9028 52.7455C41.9028 54.1992 40.7279 55.3742 39.2741 55.3742Z" fill="url(#paint1_linear)"/>
<defs>
<linearGradient id="paint0_linear" x1="6.63925" y1="5.39684" x2="36.5287" y2="34.9881" gradientUnits="userSpaceOnUse">
<stop stop-color="#387EB8"/>
<stop offset="1" stop-color="#366994"/>
</linearGradient>
<linearGradient id="paint1_linear" x1="24.9854" y1="24.3984" x2="57.0835" y2="54.7417" gradientUnits="userSpaceOnUse">
<stop stop-color="#FFE052"/>
<stop offset="1" stop-color="#FFC331"/>
</linearGradient>
</defs>
</svg>
