<svg width="68" height="60" viewBox="0 0 68 60" fill="none" xmlns="http://www.w3.org/2000/svg">
<path d="M55.7283 19.4471C55.0287 19.2063 54.3038 18.9785 53.5574 18.763C53.6801 18.2624 53.7927 17.7682 53.8928 17.2824C55.5361 9.30552 54.4617 2.87932 50.7927 0.763541C47.2747 -1.26521 41.5212 0.850088 35.7104 5.90702C35.1516 6.39329 34.5913 6.90813 34.0312 7.4477C33.658 7.09071 33.2854 6.74572 32.9138 6.41574C26.8239 1.00854 20.7198 -1.27013 17.0544 0.851768C13.5397 2.8864 12.4989 8.92764 13.9781 16.4874C14.121 17.2175 14.2879 17.9632 14.4768 18.7214C13.6128 18.9666 12.7788 19.2281 11.9808 19.5062C4.84111 21.9954 0.281372 25.8966 0.281372 29.9432C0.281372 34.1225 5.17626 38.3145 12.6128 40.8563C13.1997 41.0569 13.8086 41.2465 14.4362 41.4266C14.2325 42.2465 14.0553 43.0501 13.9066 43.8338C12.4961 51.2623 13.5976 57.1608 17.1029 59.1826C20.7236 61.2705 26.8002 59.1244 32.7172 53.9522C33.1848 53.5434 33.6542 53.1098 34.1244 52.6553C34.7338 53.2422 35.3423 53.7976 35.9475 54.3186C41.6788 59.2506 47.3394 61.2421 50.8415 59.2147C54.4586 57.1207 55.6341 50.7843 54.1079 43.075C53.9914 42.4863 53.8557 41.8848 53.7034 41.2726C54.1301 41.1464 54.5491 41.0162 54.9576 40.8808C62.6886 38.3193 67.7186 34.1783 67.7186 29.9432C67.7186 25.882 63.0118 21.9545 55.7283 19.4471ZM54.0515 38.1462C53.6828 38.2683 53.3044 38.3863 52.9188 38.5007C52.0654 35.7987 50.9135 32.9256 49.5039 29.9572C50.849 27.0595 51.9564 24.2232 52.786 21.5388C53.4758 21.7384 54.1454 21.9489 54.7906 22.1711C61.0311 24.3194 64.8377 27.4957 64.8377 29.9432C64.8377 32.5502 60.7267 35.9344 54.0515 38.1462ZM51.2818 43.6345C51.9566 47.0435 52.053 50.1256 51.606 52.535C51.2044 54.6999 50.3966 56.1434 49.3979 56.7215C47.2727 57.9516 42.7278 56.3526 37.8263 52.1347C37.2644 51.6512 36.6984 51.135 36.1307 50.5885C38.0308 48.5103 39.93 46.0943 41.7835 43.4111C45.0436 43.1219 48.1236 42.6489 50.9167 42.0032C51.0543 42.5582 51.1765 43.1024 51.2818 43.6345ZM23.2723 56.5089C21.1958 57.2422 19.5421 57.2632 18.5424 56.6868C16.4152 55.4599 15.5309 50.7239 16.7372 44.3711C16.8753 43.6435 17.0398 42.8962 17.2293 42.1323C19.9919 42.7431 23.0493 43.1827 26.3172 43.4476C28.1832 46.0732 30.1372 48.4866 32.1063 50.5997C31.6761 51.015 31.2475 51.4104 30.8214 51.783C28.205 54.0701 25.583 55.6928 23.2723 56.5089ZM13.5445 38.1302C10.2562 37.0063 7.54063 35.5456 5.67921 33.9516C4.00661 32.5192 3.16215 31.0971 3.16215 29.9432C3.16215 27.4876 6.82317 24.3554 12.9291 22.2266C13.67 21.9683 14.4455 21.7248 15.2504 21.4962C16.0943 24.2412 17.2012 27.1111 18.5371 30.0133C17.184 32.9585 16.0612 35.8742 15.2091 38.6514C14.6353 38.4865 14.0794 38.3129 13.5445 38.1302ZM16.8054 15.9341C15.538 9.45713 16.3797 4.57113 18.4978 3.34506C20.7539 2.03894 25.7427 3.9012 31.0009 8.57005C31.337 8.86847 31.6744 9.1808 32.0128 9.50394C30.0534 11.6078 28.1173 14.0031 26.2679 16.6132C23.0963 16.9071 20.0603 17.3794 17.2689 18.0117C17.0935 17.3058 16.938 16.6122 16.8054 15.9341ZM45.8947 23.117C45.2275 21.9644 44.5424 20.8391 43.844 19.7445C45.9957 20.0165 48.0572 20.3775 49.9932 20.8194C49.412 22.6821 48.6875 24.6297 47.8348 26.6263C47.2231 25.465 46.5761 24.294 45.8947 23.117ZM34.0322 11.5628C35.361 13.0024 36.6917 14.6097 38.0006 16.3536C36.6816 16.2913 35.3463 16.2589 34 16.2589C32.6664 16.2589 31.3409 16.2906 30.0301 16.3518C31.3403 14.6241 32.6826 13.019 34.0322 11.5628ZM22.0936 23.137C21.427 24.2928 20.792 25.4574 20.1899 26.6242C19.351 24.6345 18.6333 22.678 18.047 20.7889C19.9711 20.3583 22.0229 20.0063 24.1609 19.7394C23.4527 20.8441 22.762 21.9777 22.0936 23.1367V23.137ZM24.2225 40.3525C22.0135 40.106 19.9309 39.7721 18.0073 39.3534C18.6029 37.4305 19.3365 35.4323 20.1932 33.3998C20.7968 34.5657 21.4344 35.7308 22.105 36.8892H22.1051C22.7883 38.0692 23.496 39.2252 24.2225 40.3525ZM34.1119 48.5267C32.7464 47.0534 31.3845 45.4238 30.0544 43.6709C31.3456 43.7216 32.6621 43.7475 34 43.7475C35.3745 43.7475 36.7334 43.7165 38.0708 43.657C36.7576 45.4415 35.4317 47.0736 34.1119 48.5267ZM47.8623 33.2962C48.7636 35.3506 49.5235 37.3385 50.1268 39.2286C48.1715 39.6746 46.0604 40.0339 43.8361 40.3009C44.5362 39.1915 45.2272 38.0468 45.9063 36.8693C46.5932 35.6781 47.2455 34.485 47.8623 33.2962ZM43.4108 35.4301C42.3566 37.2579 41.2744 39.0028 40.1757 40.6498C38.1745 40.7929 36.1071 40.8666 34 40.8666C31.9014 40.8666 29.86 40.8014 27.8943 40.6738C26.7513 39.0052 25.6455 37.2551 24.5981 35.4458H24.5983C23.5536 33.6414 22.5921 31.8218 21.7209 30.0123C22.5919 28.1987 23.5509 26.377 24.5895 24.5758L24.5893 24.5762C25.6307 22.7702 26.7268 21.0287 27.8592 19.3705C29.8648 19.2189 31.9214 19.1398 33.9999 19.1398H34C36.0878 19.1398 38.147 19.2195 40.152 19.3725C41.2672 21.0185 42.3558 22.7544 43.4013 24.5606C44.4587 26.3871 45.4301 28.1966 46.3085 29.9714C45.4327 31.7766 44.4635 33.6045 43.4108 35.4301ZM49.3537 3.25936C51.612 4.56164 52.4902 9.81376 51.0714 16.7009C50.9808 17.1404 50.8789 17.588 50.7683 18.0416C47.9704 17.396 44.9323 16.9157 41.7514 16.6172C39.8984 13.9785 37.9782 11.5795 36.0507 9.50262C36.5689 9.00411 37.0864 8.52876 37.6017 8.08018C42.5804 3.74743 47.2336 2.03678 49.3537 3.25936ZM34 23.9213C37.3258 23.9213 40.0219 26.6173 40.0219 29.9432C40.0219 33.2689 37.3258 35.9651 34 35.9651C30.6742 35.9651 27.9781 33.2689 27.9781 29.9432C27.9781 26.6173 30.6742 23.9213 34 23.9213Z" fill="#00D8FF"/>
</svg>
