<svg xmlns="http://www.w3.org/2000/svg" xmlns:xlink="http://www.w3.org/1999/xlink" viewBox="0 0 159.75 166.13"><defs><style>.cls-1{isolation:isolate;}.cls-2{fill:#a8cff0;}.cls-3{fill:#f0f8ff;}.cls-4{fill:#3f92d1;}.cls-5{fill:#0fbab8;}.cls-6{fill:#92b4d1;}.cls-13,.cls-6{opacity:0.2;}.cls-22,.cls-7{fill:#fff;}.cls-8{fill:#03336e;}.cls-9{fill:#084c94;}.cls-10{fill:#ffd70f;}.cls-11,.cls-13,.cls-14{mix-blend-mode:multiply;}.cls-11{fill:url(#radial-gradient);}.cls-12{fill:#ffe9b8;}.cls-13{fill:url(#radial-gradient-2);}.cls-14{opacity:0.3;fill:url(#radial-gradient-3);}.cls-15{mix-blend-mode:screen;fill:url(#radial-gradient-4);}.cls-16{fill:#fc0;}.cls-17{fill:#ffde17;}.cls-18{fill:#72b5e8;}.cls-19{fill:#d1ebff;}.cls-20{fill:#eb4680;}.cls-21{fill:#f76195;}.cls-22{opacity:0.5;}.cls-23{fill:#001a46;}.cls-24{fill:#0ba19f;}.cls-25{fill:#3ecfcd;}</style><radialGradient id="radial-gradient" cx="99.04" cy="62.54" r="16.06" gradientUnits="userSpaceOnUse"><stop offset="0.06" stop-color="#7f9bb0"/><stop offset="1" stop-color="#fff"/></radialGradient><radialGradient id="radial-gradient-2" cx="2369.14" cy="-1912.21" r="48.16" gradientTransform="matrix(0.78, 0.62, -0.24, 0.3, -2239.93, -771.09)" gradientUnits="userSpaceOnUse"><stop offset="0" stop-color="#819ec7"/><stop offset="1" stop-color="#fff"/></radialGradient><radialGradient id="radial-gradient-3" cx="2366.12" cy="-1908.36" r="24.66" xlink:href="#radial-gradient-2"/><radialGradient id="radial-gradient-4" cx="3960.19" cy="-7048.62" r="15.73" gradientTransform="matrix(1.06, -0.46, 0.06, 0.14, -3655.3, 2877.65)" gradientUnits="userSpaceOnUse"><stop offset="0" stop-color="#fff"/><stop offset="0.13" stop-color="#ff63ce"/><stop offset="1"/></radialGradient></defs><title>Recurso 4transp</title><g class="cls-1"><g id="Capa_2" data-name="Capa 2"><g id="Layer_1" data-name="Layer 1"><polygon class="cls-2" points="100.73 165.14 159.75 121.02 61.96 79.07 2.94 123.2 100.73 165.14"/><polygon class="cls-3" points="99.52 163.93 158.53 119.8 60.75 77.86 1.73 121.98 99.52 163.93"/><polygon class="cls-2" points="93.17 164.9 157.63 127.69 64.55 73.94 0.08 111.16 93.17 164.9"/><polygon class="cls-3" points="92.15 163.4 155.96 126.56 63.81 73.36 0 110.2 92.15 163.4"/><path class="cls-4" d="M31.5,117.11l-7.85-4.53a.5.5,0,0,1,0-.87l7.9-4.56a.5.5,0,0,1,.5,0l7.85,4.53a.5.5,0,0,1,0,.87L32,117.11a.57.57,0,0,1-.25.06A.54.54,0,0,1,31.5,117.11Zm.3-9-6.9,4,6.85,4,6.9-4Z"/><path class="cls-4" d="M58.66,96.69l1.28.74,2.58-1.49-1.28-.73Zm5.52,0-7.93,4.57,1.28.74,7.93-4.57ZM48.49,104l10.35-6-1.28-.74-10.35,6Zm18.66-9.13L65.28,96l1.28.74,1.87-1.13ZM60.3,90,36.8,103.57l2.39,1.25,23.5-13.57Zm7,1.72-4.94,2.85,1.28.74,4.94-2.85ZM46.1,103.94l-4.58,2.65,1.28.74,4.58-2.65Zm9-2-10.89,6.28,1.28.74,10.89-6.28Z"/><polygon class="cls-5" points="33.95 113.48 33.08 106.3 31.42 106.5 32.02 111.41 22.93 109.65 22.61 111.28 33.95 113.48"/><path class="cls-4" d="M46.16,125.31l-7.85-4.53a.49.49,0,0,1,0-.86l7.9-4.56a.5.5,0,0,1,.5,0l7.85,4.53a.49.49,0,0,1,0,.86l-7.9,4.56a.47.47,0,0,1-.25.07A.45.45,0,0,1,46.16,125.31Zm.3-8.94-6.91,4,6.86,4,6.9-4Z"/><path class="cls-4" d="M73.32,104.9l1.28.74,2.57-1.49-1.28-.74Zm5.52,0-7.93,4.57,1.28.74,7.93-4.57Zm-15.7,7.36,10.35-6-1.28-.74-10.35,6Zm18.67-9.13-1.87,1.13,1.28.74,1.87-1.13ZM75,98.21l-23.5,13.57L53.85,113l23.5-13.57Zm7,1.72L77,102.78l1.28.73,4.94-2.84ZM60.76,112.15l-4.58,2.65,1.28.74L62,112.89Zm9.05-2.05-10.89,6.28,1.28.74,10.89-6.29Z"/><path class="cls-4" d="M61.05,133.48,53.2,129a.49.49,0,0,1,0-.86l7.9-4.56a.48.48,0,0,1,.49,0l7.85,4.53a.49.49,0,0,1,0,.86l-7.9,4.56a.42.42,0,0,1-.24.07A.43.43,0,0,1,61.05,133.48Zm.29-8.95-6.9,4,6.86,4,6.9-4Z"/><path class="cls-4" d="M88.21,113.07l1.28.74,2.57-1.49-1.28-.74Zm5.52,0-7.93,4.57,1.28.74L95,113.79ZM78,120.42l10.35-6-1.28-.74-10.35,6Zm18.67-9.13-1.87,1.13,1.28.74L98,112Zm-6.85-4.91L66.34,120l2.4,1.25,23.5-13.57Zm7,1.72-4.94,2.84,1.28.74,4.94-2.84ZM75.65,120.32,71.06,123l1.28.74,4.59-2.65Zm9-2.06-10.88,6.29,1.28.74L86,119Z"/><polygon class="cls-5" points="63.49 129.86 62.62 122.68 60.97 122.88 61.56 127.79 52.47 126.02 52.15 127.66 63.49 129.86"/><path class="cls-4" d="M75.7,141.69l-7.85-4.53a.51.51,0,0,1,0-.86l7.9-4.56a.5.5,0,0,1,.5,0l7.85,4.53a.49.49,0,0,1,0,.86l-7.9,4.56a.43.43,0,0,1-.25.07A.47.47,0,0,1,75.7,141.69Zm.3-8.95-6.9,4,6.85,4,6.91-4Z"/><path class="cls-4" d="M102.86,121.28l1.28.74,2.58-1.49-1.28-.74Zm5.52,0-7.92,4.57,1.28.74,7.92-4.57Zm-15.69,7.37,10.35-6-1.28-.74-10.35,6Zm18.67-9.14-1.87,1.14,1.28.73,1.87-1.13Zm-6.86-4.9L81,128.15l2.4,1.25,23.5-13.56Zm7,1.72-4.94,2.84,1.28.74,4.94-2.84ZM90.31,128.53l-4.59,2.64,1.28.74,4.59-2.64Zm9-2.06-10.89,6.29,1.28.74,10.89-6.29Z"/><path class="cls-4" d="M90.36,149.75l-7.85-4.54a.49.49,0,0,1,0-.86l7.9-4.56a.5.5,0,0,1,.5,0l7.85,4.53a.52.52,0,0,1,.25.43.49.49,0,0,1-.25.43l-7.9,4.57a.54.54,0,0,1-.25.06A.57.57,0,0,1,90.36,149.75Zm.3-8.95-6.9,4,6.85,4,6.9-4Z"/><path class="cls-4" d="M117.52,129.33l1.28.74,2.58-1.49-1.28-.74Zm5.52,0-7.93,4.57,1.28.74,7.93-4.57Zm-15.69,7.36,10.35-6-1.28-.74-10.35,6ZM126,127.55l-1.87,1.13,1.28.74,1.87-1.13Zm-6.86-4.91-23.5,13.57,2.39,1.25,23.5-13.57Zm7,1.72-4.94,2.85,1.28.74,4.94-2.85ZM105,136.58l-4.59,2.65,1.28.74,4.59-2.65Zm9-2.05-10.89,6.28,1.28.74,10.89-6.28Z"/><path class="cls-6" d="M140.3,133.93l6.93-3.89c1.8-1,1.57-2.86-.51-4.06l-37.54-21.4a7.82,7.82,0,0,0-7-.29l-6.92,3.9c-1.8,1-1.58,2.85.5,4.06l37.54,21.39A7.82,7.82,0,0,0,140.3,133.93Z"/><path class="cls-4" d="M136.59,131.71l-34.6-20c-3.9-2.25-7.06-8.3-7.06-13.5V6.08c0-2.64-2.18-3.23-.86-4.18L97.22.46A5.11,5.11,0,0,1,102,.74l34.6,20c3.91,2.25,7.07,8.3,7.07,13.5v92.15c0,2.76-.89,4.73-2.32,5.63-.08.06-3.74,1.8-3.83,1.83C136.24,134.25,138.3,132.69,136.59,131.71Z"/><path class="cls-7" d="M133.91,132.94l-34.6-20c-3.91-2.25-7.07-8.3-7.07-13.5V7.31c0-5.2,3.16-7.59,7.07-5.34l34.6,20c3.9,2.25,7.06,8.3,7.06,13.5v92.14C141,132.8,137.81,135.19,133.91,132.94Z"/><path class="cls-2" d="M133.29,133.27l-34.6-20c-3.9-2.25-7.07-8.3-7.07-13.5V7.65c0-5.21,3.17-7.6,7.07-5.35l34.6,20c3.9,2.25,7.07,8.3,7.07,13.5v92.15C140.36,133.13,137.19,135.52,133.29,133.27Z"/><path class="cls-8" d="M135.66,132.27a4.37,4.37,0,0,1-2.17-.66L99.07,111.74c-3.25-1.88-5.9-7-5.9-11.34V8.15c0-2.95,1.24-4.85,3.15-4.85A4.29,4.29,0,0,1,98.49,4l34.42,19.87c3.25,1.88,5.9,7,5.9,11.33v92.26C138.81,130.37,137.57,132.27,135.66,132.27Z"/><path class="cls-9" d="M94,101V9.17c0-3.81,2.33-5.57,5.19-3.92L132.83,24.7c2.87,1.65,5.19,6.09,5.19,9.91V126.4c0,3.82-2.32,5.57-5.19,3.92L99.15,110.87C96.29,109.22,94,104.78,94,101Z"/><polygon class="cls-7" points="94.65 100.46 137.33 125.1 137.33 46.67 94.65 22.03 94.65 100.46"/><path class="cls-7" d="M129.82,29.68l4.28,2.47c.16.09.29,0,.29-.17a.64.64,0,0,0-.29-.51L129.82,29a.18.18,0,0,0-.29.17A.64.64,0,0,0,129.82,29.68ZM134.1,33l-4.28-2.46c-.16-.1-.29,0-.29.16a.64.64,0,0,0,.29.51l4.28,2.47c.16.09.29,0,.29-.17A.66.66,0,0,0,134.1,33Zm0,1.52-4.28-2.46c-.16-.1-.29,0-.29.17a.64.64,0,0,0,.29.5l4.28,2.47c.16.09.29,0,.29-.17A.68.68,0,0,0,134.1,34.51Z"/><path class="cls-7" d="M103.64,14.92c0,.45-.31.64-.71.41a1.59,1.59,0,0,1-.71-1.23c0-.45.32-.63.71-.4A1.53,1.53,0,0,1,103.64,14.92Z"/><path class="cls-7" d="M101.5,13.68c0,.45-.32.63-.71.4a1.53,1.53,0,0,1-.71-1.22c0-.46.31-.64.71-.41A1.59,1.59,0,0,1,101.5,13.68Z"/><path class="cls-7" d="M99.35,12.43c0,.45-.32.63-.71.41a1.59,1.59,0,0,1-.71-1.23c0-.45.32-.63.71-.41A1.59,1.59,0,0,1,99.35,12.43Z"/><path class="cls-10" d="M108.06,21.49a3.84,3.84,0,0,1,.3-1.69,3,3,0,0,1,1.09-1.08,3.31,3.31,0,0,0,1.06-1,2.29,2.29,0,0,0,.3-1.21,2.27,2.27,0,0,0-.19-1,1.3,1.3,0,0,0-.53-.56c-.48-.28-.72-.09-.72.58v1.08l-1.31-.75v-1c0-.81.18-1.34.53-1.57s.86-.16,1.54.22a4,4,0,0,1,1.53,1.55,4.49,4.49,0,0,1,.53,2.19,3.16,3.16,0,0,1-.38,1.58,3.85,3.85,0,0,1-1.33,1.25,2.72,2.72,0,0,0-.83.74,1.69,1.69,0,0,0-.22.88v.22l2.63,1.52v1.44l-4-2.31Z"/><path class="cls-10" d="M115.43,25l-2.64-1.52V22l2.52-5.38,1.51.87v6.83l.65.38v1.44l-.65-.38v1.84l-1.39-.8Zm0-1.44V19.62h0l-1.36,3.15Z"/><path class="cls-10" d="M119.76,22.39l1.2.69-3.47,8.1-1.2-.69Z"/><path class="cls-10" d="M123.59,28.54l-2.79-1.62V25.48l4.15,2.4v1.38l-2.16,7.47-1.41-.81Z"/><path class="cls-4" d="M130.54,59.61l-4-2.34v1.51l4,2.34Zm3.89-2.17L110.18,43.23v2.29l24.25,14.21Zm-9-.79-8.9-5.14V53l8.9,5.14Zm-10-5.76-5.32-3.15v1.51l5.32,3.14Z"/><path class="cls-2" d="M106.45,50a.51.51,0,0,1-.24-.07L98,45.23a.48.48,0,0,1-.25-.42V35.39A.5.5,0,0,1,98,35a.51.51,0,0,1,.48,0l8.21,4.74a.49.49,0,0,1,.24.42v9.42a.48.48,0,0,1-.24.42A.51.51,0,0,1,106.45,50Zm-7.73-5.51L106,48.71v-8.3l-7.24-4.18Z"/><path class="cls-4" d="M130.54,75.68l-4-2.34v1.5l4,2.34Zm3.89-2.17L110.18,59.3v2.28l24.25,14.21Zm-9-.79-8.9-5.14v1.5l8.9,5.14ZM115.5,67l-5.32-3.14v1.5l5.32,3.15Z"/><path class="cls-2" d="M106.45,66.1a.5.5,0,0,1-.24-.06L98,61.3a.5.5,0,0,1-.25-.42V51.46A.5.5,0,0,1,98,51a.46.46,0,0,1,.48,0l8.21,4.74a.49.49,0,0,1,.24.42v9.42a.49.49,0,0,1-.24.42A.5.5,0,0,1,106.45,66.1Zm-7.73-5.5L106,64.78v-8.3L98.72,52.3Z"/><path class="cls-4" d="M130.54,91.54l-4-2.34v1.5l4,2.34Zm3.89-2.17L110.18,75.16v2.28l24.25,14.21Zm-9-.8-8.9-5.14v1.51l8.9,5.14Zm-10-5.76-5.32-3.14v1.5l5.32,3.15Z"/><path class="cls-2" d="M106.45,82a.5.5,0,0,1-.24-.06L98,77.16a.5.5,0,0,1-.25-.42V67.32A.5.5,0,0,1,98,66.9a.46.46,0,0,1,.48,0l8.21,4.74a.49.49,0,0,1,.24.42v9.42a.49.49,0,0,1-.24.42A.5.5,0,0,1,106.45,82Zm-7.73-5.5L106,80.64v-8.3l-7.24-4.18Z"/><path class="cls-4" d="M130.54,107.6l-4-2.34v1.51l4,2.34Zm3.89-2.17L110.18,91.22v2.29l24.25,14.21Zm-9-.79-8.9-5.14V101l8.9,5.14Zm-10-5.76-5.32-3.15v1.51l5.32,3.15Z"/><path class="cls-2" d="M106.45,98a.42.42,0,0,1-.24-.07L98,93.22a.48.48,0,0,1-.25-.42V83.39A.48.48,0,0,1,98,83a.46.46,0,0,1,.48,0l8.21,4.74a.47.47,0,0,1,.24.42v9.41a.47.47,0,0,1-.24.42A.42.42,0,0,1,106.45,98Zm-7.73-5.5L106,96.71v-8.3l-7.24-4.19Z"/><polygon class="cls-11" points="83.89 51.96 94.65 70.49 122.14 54.95 115.57 45.98 96.14 65.11 92.55 50.76 83.89 51.96"/><path class="cls-12" d="M83.13,126l-6.84-13s-15.6,13.69-14.94,15.19S83.13,126,83.13,126Z"/><path class="cls-13" d="M125.7,158l-51-25.68s-.42-.2-.6-.26a82.28,82.28,0,0,0-11.63-4h0c-.79-.21-1.17,0-.91,1a4.29,4.29,0,0,0,1.88,2.37h0s7.66,5.47,12.55,8.24a7,7,0,0,0,.83.52l0,0h0l51.2,26Z"/><path class="cls-14" d="M90.63,141.89,67.77,130.37a2.32,2.32,0,0,0-.27-.11,35.47,35.47,0,0,0-5.22-1.79h0c-.35-.09-.1,1.08.44,1.49h0s3.44,2.45,5.64,3.7a2.49,2.49,0,0,0,.37.23h0l23,11.65Z"/><path class="cls-15" d="M135.72,90.94c.52,1.2-6.52,5.38-15.72,9.35s-17.08,6.22-17.6,5,6.53-5.38,15.73-9.35S135.21,89.74,135.72,90.94Z"/><path class="cls-16" d="M128.25,90l-50.69,22.3A5.54,5.54,0,0,0,75.35,114l-1.45,2a1.15,1.15,0,0,0,.81,1.83l3.19.28,52.35-23.21Z"/><path class="cls-17" d="M130.25,94.84,77.9,118.05l-1.35,2.35a1.13,1.13,0,0,0,.74,1.67l3.1.67,51.11-22.52Z"/><path class="cls-16" d="M131.5,100.22l2.4,3.44L83.72,125.8a2.64,2.64,0,0,1-2.4-.14L80.18,125a.91.91,0,0,1-.43-1.41l.64-.85Z"/><path class="cls-2" d="M144.41,99.24l-6.18-13.93-9.88,4.37h0l-.06,0c-2.24,1-2.67,4.92-1,8.77s4.91,6.16,7.15,5.16l.05,0h0Z"/><path class="cls-18" d="M144.39,99.25c-2.24,1-5.45-1.31-7.15-5.16s-1.28-7.78,1-8.77,5.44,1.32,7.15,5.17S146.63,98.26,144.39,99.25Z"/><path class="cls-19" d="M137.55,94.05c-1.71-3.85-1.27-7.77,1-8.77l.15,0a2.33,2.33,0,0,0-.73.2c-2.24,1-2.67,4.92-1,8.76s4.76,6,7,5.22C141.81,99.7,139.08,97.5,137.55,94.05Z"/><path class="cls-20" d="M150.58,96l-5.77-13-6,2.63h0l-.06,0c-2.09.93-2.49,4.6-.9,8.19s4.59,5.75,6.68,4.82l.05,0h0Z"/><ellipse class="cls-21" cx="147.67" cy="89.54" rx="4.14" ry="7.12" transform="translate(-23.63 67.62) rotate(-23.94)"/><path class="cls-22" d="M144.17,91.1c-1.46-3.27-1.25-6.6.38-7.87l-.13,0c-2.09.93-2.5,4.59-.9,8.19s4.58,5.75,6.67,4.82a2.14,2.14,0,0,0,.52-.32C148.62,96.76,145.73,94.62,144.17,91.1Z"/><path class="cls-23" d="M64.85,123.63a11.59,11.59,0,0,0,1.84,4.73c-2.92.25-5.13.27-5.34-.21S62.68,125.84,64.85,123.63Z"/><polygon class="cls-24" points="82.47 43.48 95.02 70.79 117.13 47.58 106.9 38.26 95.02 58.29 89.41 44.83 82.47 43.48"/><polygon class="cls-5" points="80.61 44.85 93.15 72.16 115.26 48.95 105.03 39.63 93.15 59.66 87.54 46.2 80.61 44.85"/><polygon class="cls-24" points="117.13 47.58 115.26 48.95 93.15 72.16 95.02 70.79 117.13 47.58"/><polygon class="cls-25" points="82.47 43.48 80.61 44.85 87.54 46.2 89.41 44.83 82.47 43.48"/><polygon class="cls-25" points="115.26 48.95 105.03 39.63 106.9 38.26 117.13 47.58 115.26 48.95"/><polygon class="cls-7" points="87.56 45.9 80.61 44.85 87.54 46.2 89.41 44.83 87.56 45.9"/><polygon class="cls-7" points="115.26 48.95 105.03 39.63 115.28 48.58 117.13 47.58 115.26 48.95"/><path class="cls-5" d="M88.77,74.91a.49.49,0,0,1-.45-.29l-.84-1.82a.5.5,0,0,1,.25-.66.49.49,0,0,1,.66.24l.84,1.82a.5.5,0,0,1-.25.66A.54.54,0,0,1,88.77,74.91Zm-2.09-4.55a.49.49,0,0,1-.45-.29l-.83-1.81a.5.5,0,1,1,.9-.42l.84,1.82a.51.51,0,0,1-.25.66A.46.46,0,0,1,86.68,70.36ZM84.6,65.82a.52.52,0,0,1-.46-.29l-.83-1.82a.49.49,0,0,1,.24-.66.5.5,0,0,1,.67.24l.83,1.82a.5.5,0,0,1-.24.67A.52.52,0,0,1,84.6,65.82Zm-2.09-4.54a.49.49,0,0,1-.45-.29l-.84-1.82a.52.52,0,0,1,.25-.67.5.5,0,0,1,.66.25L83,60.57a.5.5,0,0,1-.25.66A.54.54,0,0,1,82.51,61.28Zm-2.09-4.55a.49.49,0,0,1-.45-.29l-.83-1.82a.49.49,0,0,1,.24-.66.52.52,0,0,1,.67.25L80.88,56a.51.51,0,0,1-.25.67A.46.46,0,0,1,80.42,56.73Zm-2.08-4.54a.52.52,0,0,1-.46-.29l-.83-1.82a.49.49,0,0,1,.25-.66.5.5,0,0,1,.66.24l.83,1.82a.49.49,0,0,1-.24.66A.54.54,0,0,1,78.34,52.19Zm-2.09-4.54a.49.49,0,0,1-.45-.3L75,45.54a.52.52,0,0,1,.25-.67.5.5,0,0,1,.66.25l.84,1.82a.5.5,0,0,1-.25.66A.54.54,0,0,1,76.25,47.65ZM74.17,43.1a.52.52,0,0,1-.46-.29L72.88,41a.49.49,0,0,1,.24-.66.5.5,0,0,1,.67.25l.83,1.81a.5.5,0,0,1-.24.67A.52.52,0,0,1,74.17,43.1Zm-1-4.7a.71.71,0,0,1-.2,0,.5.5,0,0,1-.26-.66A3.7,3.7,0,0,1,74.14,36a.5.5,0,0,1,.69.17.49.49,0,0,1-.17.68,2.76,2.76,0,0,0-1.08,1.26A.51.51,0,0,1,73.12,38.4Zm11-.4h-.09l-2-.38a.5.5,0,0,1,.19-1l2,.39a.5.5,0,0,1-.1,1Zm-4.9-1h-.1l-2-.39a.5.5,0,1,1,.19-1l2,.39a.5.5,0,0,1,.4.58A.51.51,0,0,1,79.27,37Z"/><path class="cls-2" d="M86.62,81.66a.49.49,0,0,1-.45-.29l-.83-1.82a.5.5,0,1,1,.9-.42L87.08,81a.51.51,0,0,1-.46.71Zm-2.08-4.55a.5.5,0,0,1-.46-.29L83.25,75a.5.5,0,0,1,.24-.67.52.52,0,0,1,.67.25L85,76.41a.49.49,0,0,1-.24.66A.52.52,0,0,1,84.54,77.11Zm-2.09-4.54a.49.49,0,0,1-.45-.29l-.84-1.82a.5.5,0,0,1,.25-.66.5.5,0,0,1,.66.24l.84,1.82a.5.5,0,0,1-.25.66A.41.41,0,0,1,82.45,72.57ZM80.37,68a.52.52,0,0,1-.46-.29l-.83-1.82a.5.5,0,1,1,.9-.42l.84,1.82a.49.49,0,0,1-.25.66A.46.46,0,0,1,80.37,68Zm-2.09-4.55a.52.52,0,0,1-.46-.29L77,61.37A.5.5,0,1,1,77.9,61l.83,1.81a.5.5,0,0,1-.24.67A.52.52,0,0,1,78.28,63.48Zm-2.09-4.54a.49.49,0,0,1-.45-.29l-.84-1.82a.5.5,0,0,1,.25-.66.49.49,0,0,1,.66.24l.84,1.82a.5.5,0,0,1-.25.66A.54.54,0,0,1,76.19,58.94ZM74.11,54.4a.51.51,0,0,1-.46-.3l-.83-1.81a.5.5,0,0,1,.24-.67.52.52,0,0,1,.67.25l.83,1.82a.5.5,0,0,1-.25.66A.46.46,0,0,1,74.11,54.4Z"/><path class="cls-2" d="M72.7,54.59a.51.51,0,0,1-.5-.49l-.06-3.5a.5.5,0,0,1,.29-.46.52.52,0,0,1,.55.08L75.6,52.6a.49.49,0,0,1,0,.7.51.51,0,0,1-.71,0l-1.77-1.6,0,2.34a.49.49,0,0,1-.49.51Z"/></g></g></g></svg>