<svg width="113" height="112" viewBox="0 0 113 112" fill="none" xmlns="http://www.w3.org/2000/svg">
<path d="M93.6755 64.13C93.7904 62.8494 93.8765 61.5391 93.8765 60.2288C93.8765 58.9185 93.8191 57.6082 93.7042 56.3277C82.2199 52.099 79.9517 46.6195 85.2919 35.3628C83.7703 33.4569 82.0763 31.6999 80.2388 30.1216C69.3861 35.6309 64.1033 33.2783 60.0551 21.3664C58.8205 21.2473 57.5572 21.158 56.2939 21.158C55.0307 21.158 53.7674 21.2175 52.5328 21.3366C48.4559 33.2485 43.1731 35.6011 32.3204 30.0621C30.4829 31.6404 28.7889 33.3974 27.2672 35.2735C32.5788 46.56 30.3106 52.0394 18.7975 56.2086C18.6827 57.4891 18.5966 58.7994 18.5966 60.1097C18.5966 61.42 18.654 62.7303 18.7688 64.0108C30.2532 68.2396 32.5213 73.719 27.1811 84.9757C28.7028 86.8816 30.3967 88.6386 32.2342 90.2169C37.9477 87.3283 42.1395 86.5838 45.3838 88.311V84.6184C36.4547 80.3599 30.2819 71.0091 30.2819 60.1395C30.3106 45.2497 41.9385 33.2187 56.2939 33.2485C70.6494 33.2783 82.2486 45.339 82.2199 60.2288C82.2199 71.0686 76.0183 80.3896 67.118 84.6481V88.311C70.3623 86.6731 74.5254 87.3879 80.1814 90.3063C82.0189 88.7279 83.7128 87.0007 85.2345 85.065C79.923 73.8083 82.1912 68.3289 93.6755 64.13ZM25.803 62.4921C24.5397 62.4921 23.5348 61.42 23.5348 60.1395C23.5348 58.8292 24.5397 57.7869 25.803 57.7869C27.0663 57.7869 28.0712 58.859 28.0712 60.1395C28.0999 61.42 27.0663 62.4921 25.803 62.4921ZM33.0956 80.8066C33.9856 79.8834 35.4211 79.8834 36.3112 80.8066C37.2012 81.7297 37.2012 83.2187 36.3112 84.1419C35.4211 85.0651 33.9856 85.0651 33.0956 84.1419C32.2055 83.1889 32.2055 81.7 33.0956 80.8066ZM36.3686 39.4724C35.4786 40.3956 34.043 40.3956 33.153 39.4724C32.2629 38.5493 32.2629 37.0603 33.153 36.1371C34.043 35.2139 35.4786 35.2139 36.3686 36.1371C37.2586 37.0603 37.2586 38.579 36.3686 39.4724ZM56.2939 30.9555C55.0307 30.9555 54.0258 29.8834 54.0258 28.6029C54.0258 27.2926 55.0594 26.2503 56.2939 26.2503C57.5572 26.2503 58.5621 27.2926 58.5621 28.6029C58.5621 29.9132 57.5285 30.9555 56.2939 30.9555ZM79.4062 39.5618C78.5162 40.4849 77.0806 40.4849 76.1906 39.5618C75.3006 38.6386 75.3006 37.1496 76.1906 36.2265C77.0806 35.3033 78.5162 35.3033 79.4062 36.2265C80.2962 37.1496 80.2962 38.6386 79.4062 39.5618ZM79.3488 84.2014C78.4587 85.1246 77.0232 85.1246 76.1332 84.2014C75.2431 83.2783 75.2431 81.7893 76.1332 80.8661C77.0232 79.943 78.4587 79.943 79.3488 80.8661C80.2388 81.7893 80.2388 83.2783 79.3488 84.2014ZM86.6988 57.8465C87.9621 57.8465 88.9669 58.9185 88.9669 60.1991C88.9669 61.5094 87.9621 62.5516 86.6988 62.5516C85.4355 62.5516 84.4306 61.4796 84.4306 60.1991C84.4019 58.9185 85.4355 57.8465 86.6988 57.8465Z" fill="#6480BA"/>
<path d="M67.4626 92.0037C67.4626 93.4033 66.3715 94.535 65.0221 94.535H47.4224C46.0729 94.535 44.9819 93.4033 44.9819 92.0037C44.9819 90.604 46.0729 89.5022 47.4224 89.5022H65.0221C66.4003 89.5022 67.4626 90.6338 67.4626 92.0037Z" fill="#1C3E8B"/>
<path d="M65.8834 97.7213C65.8834 99.121 64.7924 100.253 63.443 100.253H49.0301C47.6807 100.253 46.5897 99.121 46.5897 97.7213C46.5897 96.3217 47.6807 95.2198 49.0301 95.2198H63.443C64.7924 95.2198 65.8834 96.3515 65.8834 97.7213Z" fill="#1C3E8B"/>
<path d="M64.1321 103.469C64.1321 104.868 63.041 106 61.7203 106H50.8102C49.4608 106 48.3698 104.868 48.3698 103.469C48.3698 102.069 49.4608 100.938 50.8102 100.938H61.7203C63.041 100.938 64.1321 102.069 64.1321 103.469Z" fill="#1C3E8B"/>
<path d="M56.2366 13.7725V6" stroke="#1C3E8B" stroke-width="6.57" stroke-miterlimit="10" stroke-linecap="round" stroke-linejoin="round"/>
<path d="M98.7574 57.8463H106.251" stroke="#1C3E8B" stroke-width="6.57" stroke-miterlimit="10" stroke-linecap="round" stroke-linejoin="round"/>
<path d="M6.25092 57.8463H13.7445" stroke="#1C3E8B" stroke-width="6.57" stroke-miterlimit="10" stroke-linecap="round" stroke-linejoin="round"/>
<path d="M26.1763 26.6672L20.8935 21.1877" stroke="#1C3E8B" stroke-width="6.57" stroke-miterlimit="10" stroke-linecap="round" stroke-linejoin="round"/>
<path d="M91.6084 94.5347L86.2968 89.0255" stroke="#1C3E8B" stroke-width="6.57" stroke-miterlimit="10" stroke-linecap="round" stroke-linejoin="round"/>
<path d="M86.2968 26.697L91.6084 21.1877" stroke="#1C3E8B" stroke-width="6.57" stroke-miterlimit="10" stroke-linecap="round" stroke-linejoin="round"/>
<path d="M20.8935 94.5347L26.1763 89.0255" stroke="#1C3E8B" stroke-width="6.57" stroke-miterlimit="10" stroke-linecap="round" stroke-linejoin="round"/>
<path d="M70.7363 60.0072C70.7363 68.3046 64.2628 75.0191 56.2632 75.0191C48.2636 75.0191 41.7901 68.3046 41.7901 60.0072C41.7901 51.7098 48.2636 44.9953 56.2632 44.9953C64.2382 44.9698 70.7363 51.7098 70.7363 60.0072Z" stroke="#254D9B" stroke-width="3.4651" stroke-miterlimit="10" stroke-linecap="round" stroke-linejoin="round" stroke-dasharray="0.11 0.11"/>
<path d="M63.992 46.6549C63.992 51.0972 60.5215 54.6969 56.2386 54.6969C51.9557 54.6969 48.4851 51.0972 48.4851 46.6549C48.4851 42.2126 51.9557 38.6128 56.2386 38.6128C60.5215 38.6128 63.992 42.2126 63.992 46.6549Z" fill="white" stroke="#254D9B" stroke-width="2.4485" stroke-miterlimit="10"/>
<path d="M63.992 76.0659C63.992 80.5082 60.5215 84.1079 56.2386 84.1079C51.9557 84.1079 48.4851 80.5082 48.4851 76.0659C48.4851 71.6236 51.9557 68.0238 56.2386 68.0238C60.5215 68.0238 63.992 71.6236 63.992 76.0659Z" fill="white" stroke="#254D9B" stroke-width="2.4485" stroke-miterlimit="10"/>
<path d="M70.4164 69.4024C66.1335 69.4024 62.6629 65.8026 62.6629 61.3603C62.6629 56.918 66.1335 53.3182 70.4164 53.3182C74.6992 53.3182 78.1698 56.918 78.1698 61.3603C78.1698 65.8026 74.6992 69.4024 70.4164 69.4024Z" fill="white" stroke="#254D9B" stroke-width="2.4485" stroke-miterlimit="10"/>
<path d="M42.0855 69.4024C37.8026 69.4024 34.332 65.8026 34.332 61.3603C34.332 56.918 37.8026 53.3182 42.0855 53.3182C46.3683 53.3182 49.8389 56.918 49.8389 61.3603C49.8389 65.8026 46.3683 69.4024 42.0855 69.4024Z" fill="white" stroke="#254D9B" stroke-width="2.4485" stroke-miterlimit="10"/>
<path d="M59.7838 44.2548C59.7838 44.2548 59.7838 44.2293 59.7838 44.2548C59.7838 43.9995 59.6361 43.7697 59.4146 43.6676C59.5869 43.5144 59.6607 43.2336 59.5623 43.0038C59.4884 42.7485 59.2669 42.5953 59.0207 42.5953C59.1192 42.3911 59.1192 42.1103 58.9469 41.9315C58.7746 41.7273 58.5285 41.6762 58.3069 41.7528C58.3316 41.5231 58.2331 41.2678 58.0116 41.1401C57.79 41.0124 57.5439 41.038 57.347 41.1912C57.2978 40.9614 57.1008 40.7571 56.8547 40.7061C56.6086 40.655 56.387 40.7827 56.2393 40.9869C56.1163 40.7827 55.8701 40.655 55.624 40.7061C55.3779 40.7571 55.2056 40.9359 55.1563 41.1912C54.9594 41.038 54.7133 41.0124 54.4917 41.1401C54.2702 41.2678 54.1718 41.5231 54.1964 41.7528C53.9748 41.6762 53.7287 41.7528 53.5564 41.9315C53.3841 42.1358 53.3841 42.3911 53.4826 42.6209C53.261 42.6209 53.0395 42.774 52.9411 43.0293V43.0549C52.8672 43.3102 52.9411 43.5655 53.1134 43.7187C52.8918 43.8208 52.7441 44.025 52.7441 44.2803C52.7441 44.5356 52.8918 44.7654 53.1134 44.842C52.9411 44.9952 52.8672 45.276 52.9411 45.5058C53.0149 45.7611 53.2364 45.9143 53.4826 45.9143C53.3841 46.1185 53.3841 46.3994 53.5564 46.6036C53.7041 46.8078 53.9748 46.8589 54.1964 46.7823C54.1718 47.0121 54.2702 47.2674 54.4917 47.395C54.7133 47.5227 54.9594 47.4972 55.1563 47.344C55.2056 47.5738 55.3779 47.778 55.624 47.8291C55.8701 47.8801 56.1163 47.7525 56.2393 47.5482C56.3378 47.7269 56.5347 47.8291 56.7316 47.8291C56.7562 47.8291 56.8055 47.8291 56.8301 47.8291C57.0762 47.778 57.2485 47.5993 57.2978 47.344C57.4701 47.4972 57.7408 47.5227 57.9623 47.395C58.1839 47.2674 58.2823 47.0121 58.2577 46.7823C58.4792 46.8589 58.7254 46.7823 58.8977 46.6036C59.07 46.3994 59.07 46.1441 58.9715 45.9143C59.193 45.9143 59.4146 45.7611 59.513 45.5058V45.4803C59.5869 45.2505 59.513 44.9697 59.3407 44.8165C59.6361 44.7399 59.7838 44.5101 59.7838 44.2548Z" fill="#202F57"/>
<path d="M56.7555 47.9059L56.1155 48.5186L55.5248 47.9059V46.6549H56.7555V47.9059Z" fill="#284878"/>
<path d="M58.38 45.1995C58.38 45.1995 58.4538 45.1995 58.4785 45.1995C58.5769 45.1995 58.6261 45.0208 58.6754 44.9442C58.7246 44.7655 58.7738 44.6123 58.7738 44.5357C58.7984 44.4336 58.7492 44.2549 58.6261 44.2549C58.4785 44.2549 58.4046 44.4081 58.4046 44.4081V45.1995H58.38Z" fill="#284878"/>
<path d="M53.9249 45.1995C53.9249 45.1995 53.851 45.1995 53.8264 45.1995C53.728 45.1995 53.6787 45.0208 53.6295 44.9442C53.5803 44.7655 53.531 44.6123 53.531 44.5357C53.531 44.4336 53.5557 44.2549 53.6787 44.2549C53.8264 44.2549 53.9002 44.4081 53.9002 44.4081V45.1995H53.9249Z" fill="#284878"/>
<path d="M58.4539 43.055C58.4539 43.055 58.38 42.2125 57.5924 41.6253C57.2724 41.3955 56.7555 41.2168 56.1894 41.2423C55.6232 41.2423 55.1063 41.3955 54.7864 41.6253C53.9987 42.1869 53.9249 43.055 53.9249 43.055C53.9249 43.055 53.6049 44.4591 54.171 45.7612C54.2695 45.991 54.4172 46.476 55.0817 47.0632C55.5248 47.4462 55.8448 47.5738 56.214 47.5738C56.5832 47.5738 56.9032 47.4462 57.3462 47.0632C58.0108 46.476 58.1585 45.991 58.257 45.7612C58.7738 44.4591 58.4539 43.055 58.4539 43.055Z" fill="#284878"/>
<path d="M58.7246 45.1995C58.7246 45.3016 58.6508 45.4037 58.5277 45.4037C58.4293 45.4037 58.3308 45.3271 58.3308 45.1995C58.3308 45.0974 58.4047 44.9952 58.5277 44.9952C58.6508 44.9952 58.7246 45.0974 58.7246 45.1995Z" fill="#82A6D8"/>
<path d="M53.9987 45.1995C53.9987 45.3016 53.9249 45.4037 53.8018 45.4037C53.7033 45.4037 53.6049 45.3271 53.6049 45.1995C53.6049 45.0974 53.6787 44.9952 53.8018 44.9952C53.9003 44.9952 53.9987 45.0974 53.9987 45.1995Z" fill="#82A6D8"/>
<path d="M58.5769 52.6545H59.5861L58.9954 48.6207L58.0354 48.1611L58.3554 50.8929L58.5769 52.6545Z" fill="#284878"/>
<path d="M53.728 52.6545L53.9495 50.8929L54.2695 48.1611L53.3095 48.6207L52.7188 52.6545H53.728Z" fill="#284878"/>
<path d="M53.9987 50.6376L54.2695 48.1611L53.3095 48.6207L53.0142 50.2291L53.9987 50.6376Z" fill="#294979"/>
<path d="M58.3062 50.6376L58.0354 48.1611L58.9954 48.6207L59.2908 50.2291L58.3062 50.6376Z" fill="#294979"/>
<path d="M54.1464 52.6544H58.2077L58.3308 51.2502V48.3653L58.0108 48.1611L56.7555 47.9058L56.1155 48.4164L55.5248 47.9058L54.2941 48.1611L53.9249 48.3142L53.9987 50.4077L54.1464 52.6544Z" fill="#294979"/>
<path d="M58.5769 43.7699C58.5523 43.3103 58.4784 43.004 58.4784 43.004C58.4784 43.004 58.4046 42.1359 57.5923 41.5487C57.2724 41.319 56.7555 41.1403 56.1647 41.1403C55.574 41.1403 55.0571 41.319 54.7371 41.5487C53.9248 42.1359 53.851 43.004 53.851 43.004C53.851 43.004 53.7772 43.3103 53.7525 43.7699C53.5802 43.8465 53.4818 43.9997 53.4818 44.1784C53.4818 44.4337 53.6787 44.6379 53.9248 44.6379C54.171 44.6379 54.3679 44.4337 54.3679 44.1784C54.3679 44.1528 54.3679 44.1018 54.3433 44.0763C54.3925 44.1018 54.4417 44.1018 54.5156 44.1018C54.7617 44.1018 54.9586 43.8975 54.9586 43.6422C54.9586 43.6167 54.9586 43.6167 54.9586 43.5912C55.0079 43.6167 55.0817 43.6422 55.1555 43.6422C55.3032 43.6422 55.4509 43.5656 55.5248 43.4125C55.5986 43.4891 55.7217 43.5401 55.8201 43.5401C55.9924 43.5401 56.1155 43.438 56.1893 43.3103C56.2632 43.438 56.4109 43.5401 56.5585 43.5401C56.6816 43.5401 56.7801 43.4891 56.8539 43.4125C56.9278 43.5401 57.0754 43.6422 57.2231 43.6422C57.297 43.6422 57.3462 43.6167 57.42 43.5912C57.42 43.6167 57.42 43.6167 57.42 43.6422C57.42 43.8975 57.617 44.1018 57.8631 44.1018C57.9123 44.1018 57.9862 44.0763 58.0354 44.0763C58.0354 44.1018 58.0108 44.1528 58.0108 44.1784C58.0108 44.4337 58.2077 44.6379 58.4538 44.6379C58.7 44.6379 58.8969 44.4337 58.8969 44.1784C58.823 43.9997 58.7246 43.8465 58.5769 43.7699Z" fill="#193863"/>
<path d="M45.113 57.8373H40.1902V64.8326H45.113V57.8373Z" fill="#1F325C"/>
<path d="M44.4731 56.229C44.4731 56.229 44.9653 56.2034 45.0392 56.9949C45.113 57.7863 45.4576 60.4415 43.4147 61.5904C43.4147 61.5904 42.7993 57.1991 44.4731 56.229Z" fill="#1F325C"/>
<path d="M44.473 56.2287C44.473 56.2287 44.1777 55.2585 42.627 55.2585C41.0517 55.2585 38.8364 56.4585 40.3625 60.1093C40.8794 61.3348 42.0116 61.7688 42.0116 61.7688L44.473 56.2287Z" fill="#1F325C"/>
<path d="M43.1685 61.3602H41.9377V62.7133H43.1685V61.3602Z" fill="#7188C4"/>
<path d="M44.9161 66.6962H45.876L45.3837 63.2751L44.4484 62.8411L44.7684 65.5218L44.9161 66.6962Z" fill="#7188C4"/>
<path d="M40.2886 66.6962L40.4363 65.5218L40.7809 62.8411L39.821 63.2751L39.3287 66.6962H40.2886Z" fill="#7188C4"/>
<path d="M44.67 66.6961L44.7438 65.8791V63.0452L44.4238 62.841L43.1685 62.5857H42.0609L40.7809 62.841L40.4609 63.0452V65.8791L40.5348 66.6961H44.67Z" fill="#4E7AB9"/>
<path d="M44.7192 59.5733C44.7192 59.5733 44.793 59.5733 44.8177 59.5733C44.9161 59.5733 44.9653 59.4201 44.99 59.318C45.0392 59.1393 45.0638 58.9861 45.0884 58.9095C45.0884 58.8074 45.0638 58.6287 44.9407 58.6287C44.793 58.6287 44.7192 58.7818 44.7192 58.7818V59.5733Z" fill="#7188C4"/>
<path d="M40.3378 59.5733C40.3378 59.5733 40.264 59.5733 40.2393 59.5733C40.1409 59.5733 40.0917 59.4201 40.0671 59.318C40.0178 59.1393 39.9932 58.9861 39.9686 58.9095C39.9686 58.8074 39.9932 58.6287 40.1163 58.6287C40.264 58.6287 40.3378 58.7818 40.3378 58.7818V59.5733Z" fill="#7188C4"/>
<path d="M44.7684 57.4541C44.7684 57.4541 44.6946 56.6116 43.9315 56.0755C43.6362 55.8457 43.1193 55.6925 42.5531 55.6925C41.987 55.6925 41.4701 55.8457 41.1747 56.0755C40.3871 56.6371 40.3379 57.4541 40.3379 57.4541C40.3379 57.4541 40.0179 58.8327 40.584 60.1093C40.6825 60.3135 40.8301 60.7986 41.4947 61.3858C41.9378 61.7687 42.2332 61.8964 42.6024 61.8964C42.9716 61.8964 43.2669 61.7687 43.71 61.3858C44.3746 60.7986 44.5223 60.339 44.6207 60.1093C45.0884 58.8583 44.7684 57.4541 44.7684 57.4541Z" fill="#7188C4"/>
<path d="M40.5347 60.1094C40.4609 59.9307 40.3871 59.752 40.3378 59.5733C40.3132 59.5733 40.264 59.5733 40.264 59.5733C40.1655 59.5733 40.1163 59.4201 40.0917 59.318C40.0425 59.1393 40.0178 58.9861 39.9932 58.9095C39.9932 58.8074 40.0178 58.6287 40.1409 58.6287C40.1409 58.6287 40.1409 58.6287 40.1655 58.6287C40.1655 58.4755 40.1655 58.3223 40.1655 58.2457C40.1655 57.5564 40.264 57.0458 40.4363 56.6628C40.4363 56.6628 39.8456 56.9181 39.8456 57.8628C39.8456 58.45 39.8456 59.5733 39.8456 60.5945C39.8456 62.0242 40.5594 63.6326 40.1163 64.4241C40.1163 64.4241 42.0608 64.807 42.1839 61.8455C41.9624 61.7689 41.7162 61.6413 41.4209 61.386C40.7809 60.7988 40.6332 60.3392 40.5347 60.1094Z" fill="#1F325C"/>
<path d="M44.7192 58.6028C44.7438 58.7304 44.793 58.8836 44.8669 58.9857C44.8669 58.9857 44.8669 58.807 44.8669 58.6028C44.9161 58.3219 45.0884 56.688 44.1038 55.9476C43.0947 55.2072 42.4055 55.2838 41.6917 55.6413C41.0025 55.82 40.141 56.4072 40.1656 58.2454C40.1656 58.4496 40.1656 58.9602 40.1656 58.9602C40.2887 58.7815 40.3133 58.5517 40.3379 58.373H42.5532V57.2752C42.947 57.8369 43.4885 58.373 44.2023 58.6283C44.2023 58.6283 43.39 58.0156 43.2916 57.2241C43.267 57.2497 43.39 57.99 44.7192 58.6028Z" fill="#1B3E6A"/>
<path d="M44.6946 58.7306C44.6946 58.7306 44.4484 58.6285 44.1531 58.5774C44.1285 58.5774 44.0792 58.5774 44.0546 58.5519C43.8823 58.5264 43.7346 58.5264 43.5869 58.5264C42.9962 58.5774 42.7993 58.7817 42.7501 58.8838H42.3562C42.307 58.7817 42.1101 58.5774 41.5194 58.5264C41.3717 58.5264 41.224 58.5264 41.0517 58.5519C41.0271 58.5519 40.9778 58.5519 40.9532 58.5774C40.6579 58.6285 40.4363 58.7306 40.4117 58.7306L40.3625 58.7561L40.4609 58.9604L40.4856 58.9859H40.5102C40.5102 58.9859 40.584 58.9604 40.6086 58.9348C40.584 59.037 40.584 59.1646 40.584 59.2923C40.584 59.8795 40.8302 59.905 41.3224 59.905C41.7163 59.905 42.2332 59.9816 42.3562 59.471C42.4055 59.3178 42.4055 59.2157 42.3808 59.088H42.7008C42.6762 59.1902 42.7008 59.3178 42.7254 59.471C42.8485 59.9561 43.3654 59.905 43.7592 59.905C44.2515 59.905 44.4977 59.8539 44.4977 59.2923C44.4977 59.1391 44.4977 59.037 44.4731 58.9348C44.4977 58.9348 44.5469 58.9604 44.5715 58.9859H44.5961L44.7192 58.7817L44.6946 58.7306ZM42.307 59.4199C42.1839 59.905 41.6917 59.8284 41.3224 59.8284C40.8794 59.8284 40.6579 59.8284 40.6579 59.2412C40.6579 58.9859 40.6579 58.8327 40.7317 58.7306C40.9286 58.6795 41.224 58.603 41.5194 58.6285C41.9132 58.654 42.1347 58.7817 42.2085 58.8327C42.2332 58.8583 42.2578 58.8838 42.2824 58.9348C42.3562 59.037 42.3562 59.1902 42.307 59.4199ZM43.7839 59.8284C43.4146 59.8284 42.9224 59.905 42.7993 59.4199C42.7501 59.1902 42.7501 59.037 42.8239 58.9093C42.8485 58.8838 42.8731 58.8583 42.8977 58.8327C42.9716 58.7561 43.1931 58.654 43.5869 58.6285C43.6362 58.6285 43.6608 58.6285 43.71 58.6285C43.9562 58.6285 44.2023 58.6795 44.3746 58.7561C44.4484 58.8583 44.4484 59.0114 44.4484 59.2667C44.4484 59.8029 44.2515 59.8284 43.7839 59.8284Z" fill="#253779"/>
<path d="M69.6779 62.8668H71.7209L71.4994 61.2073H69.8748L69.6779 62.8668Z" fill="#49649C"/>
<path d="M69.6286 62.8665H70.7116H71.7454L71.7701 62.9686L70.7116 64.3217L69.6286 62.9686V62.8665Z" fill="#49649C"/>
<path d="M68.4472 66.7471L68.1764 63.2494L69.6287 62.8665L70.7117 63.5302L71.7455 62.8665L73.2469 63.2494L72.9516 66.7471H68.4472Z" fill="#25387B"/>
<path d="M67.2657 66.7473L67.3396 63.8113L68.1765 63.2496L68.4472 66.3899L68.4226 66.7473H67.2657Z" fill="#25387B"/>
<path d="M72.9762 66.7473V66.3899L73.247 63.2496L74.0593 63.8113L74.1823 66.7473H72.9762Z" fill="#25387B"/>
<path d="M69.8748 61.2073H71.4993L71.5732 61.8711C71.3763 62.0753 71.204 62.203 71.1055 62.203H70.244C70.1456 62.203 69.9733 62.0753 69.7763 61.8711L69.8748 61.2073Z" fill="#739AD1"/>
<path d="M68.7672 59.4964C68.7672 59.4964 68.718 59.4964 68.6934 59.4964C68.6195 59.4964 68.5457 59.3433 68.5211 59.2667C68.4719 59.088 68.4472 58.9603 68.4472 58.8837C68.4472 58.7816 68.4718 58.6284 68.5703 58.6284C68.6934 58.6284 68.7672 58.7561 68.7672 58.7561V59.4964Z" fill="#49649C"/>
<path d="M72.6316 59.4964C72.6316 59.4964 72.6808 59.4964 72.7054 59.4964C72.7792 59.4964 72.8531 59.3433 72.8777 59.2667C72.9269 59.088 72.9515 58.9603 72.9515 58.8837C72.9515 58.7816 72.9269 58.6284 72.8285 58.6284C72.7054 58.6284 72.6316 58.7561 72.6316 58.7561V59.4964Z" fill="#49649C"/>
<path d="M69.481 56.3054C69.9733 55.8969 71.0071 55.6671 71.8932 56.3054C72.6316 56.8415 72.7301 57.8117 72.7301 57.8117C72.7301 57.8117 72.7301 59.3435 72.7301 60.1604C72.7301 60.3136 71.4255 61.8965 71.1301 61.8965H70.2933C69.9979 61.8965 68.718 60.3136 68.718 60.1604C68.718 59.3435 68.718 57.7095 68.718 57.7095C68.718 57.7095 68.7918 56.867 69.481 56.3054Z" fill="#49649C"/>
<path d="M69.4318 56.3564C69.6287 56.2543 69.801 56.2032 69.801 56.2032C69.801 56.2288 69.8994 56.6883 69.8994 56.6883C69.8994 56.6883 69.3579 56.9181 69.3579 57.4287C69.3579 57.9393 68.718 57.7606 68.718 58.2967C68.718 57.9648 68.718 57.7351 68.718 57.7351C68.718 57.7351 68.7918 56.9181 69.4318 56.3564Z" fill="#1F315B"/>
<path d="M71.9917 56.3564C71.7948 56.2543 71.6225 56.2032 71.6225 56.2032C71.6225 56.2288 71.524 56.6883 71.524 56.6883C71.524 56.6883 72.0655 56.9181 72.0655 57.4287C72.0655 57.9393 72.7055 57.7606 72.7055 58.2967C72.7055 57.9648 72.7055 57.7351 72.7055 57.7351C72.7055 57.7351 72.6563 56.9181 71.9917 56.3564Z" fill="#1F315B"/>
<path d="M72.4593 57.3264V58.5774C72.4593 59.1135 72.7054 59.3433 72.7054 59.3433V58.3732C72.7054 57.9647 72.607 57.6072 72.4593 57.3264Z" fill="#1F315B"/>
<path d="M68.9641 57.3264V58.5774C68.9641 59.1135 68.718 59.3433 68.718 59.3433V58.3732C68.718 57.9647 68.8164 57.6072 68.9641 57.3264Z" fill="#1F315B"/>
<path d="M71.9679 55.9989C71.9186 55.5904 71.6233 55.182 70.5895 55.1054C69.5803 55.0543 69.3834 55.9479 68.8419 56.2798C68.3004 56.6117 68.4481 57.3776 68.7188 57.7605C68.7188 57.7605 68.7188 56.8159 69.5311 56.7904C70.3926 56.7393 70.7125 57.1733 71.3525 56.9946C71.771 56.8414 72.0171 56.484 71.9679 55.9989Z" fill="#1F315B"/>
<path d="M71.7947 55.8457C71.7947 55.8457 72.6316 56.1265 72.7547 56.9946C72.8778 57.8626 72.5824 58.3477 72.5824 58.3477C72.5824 58.3477 72.3609 56.9435 71.4009 56.8159C71.4009 56.8159 71.0317 56.2287 71.7947 55.8457Z" fill="#1F315B"/>
<g opacity="0.3">
<g opacity="0.3">
<path opacity="0.3" d="M71.3025 56.9182C71.524 56.765 71.6963 56.5608 71.7701 56.3055C71.844 56.0502 71.7455 55.7949 71.6471 55.5396C71.7947 55.7438 71.8932 56.0502 71.844 56.331C71.7701 56.6118 71.5486 56.8161 71.3025 56.9182Z" fill="white"/>
</g>
<g opacity="0.3">
<path opacity="0.3" d="M69.9979 56.7139C69.9979 56.5096 70.0225 56.3054 69.9487 56.1011C69.9241 55.999 69.8748 55.9224 69.8256 55.8458C69.7764 55.7693 69.6779 55.7182 69.6041 55.6416C69.7025 55.6671 69.801 55.7182 69.8748 55.7948C69.9487 55.8714 69.9979 55.9735 70.0225 56.0756C70.0717 56.2799 70.0717 56.5096 69.9979 56.7139Z" fill="white"/>
</g>
<g opacity="0.3">
<path opacity="0.3" d="M70.121 56.7385C70.1702 56.5087 70.1948 56.2534 70.1456 56.0236C70.121 55.9215 70.0964 55.7938 70.0471 55.6917C69.9979 55.5896 69.9241 55.4875 69.8502 55.4109C69.9487 55.4619 70.0471 55.5641 70.0964 55.6662C70.1702 55.7683 70.1948 55.896 70.2194 56.0236C70.2686 56.2789 70.244 56.5342 70.121 56.7385Z" fill="white"/>
</g>
<g opacity="0.3">
<path opacity="0.3" d="M70.2933 56.7643C70.3425 56.509 70.3917 56.2537 70.3671 55.9984C70.3671 55.7431 70.2933 55.4878 70.1702 55.2581C70.2687 55.3602 70.3425 55.4623 70.3671 55.59C70.4164 55.7176 70.441 55.8453 70.441 55.9729C70.441 56.2537 70.3917 56.5346 70.2933 56.7643Z" fill="white"/>
</g>
<g opacity="0.3">
<path opacity="0.3" d="M70.7856 56.9175C70.9332 56.6622 71.0317 56.3814 71.0563 56.1006C71.0809 55.8197 71.0071 55.5389 70.884 55.2581C71.0563 55.4878 71.1548 55.7942 71.1302 56.1006C71.1055 56.4069 70.9825 56.6878 70.7856 56.9175Z" fill="white"/>
</g>
<g opacity="0.3">
<path opacity="0.3" d="M70.6379 56.8666C70.6871 56.739 70.7363 56.6113 70.7609 56.4581C70.7855 56.3305 70.8102 56.1773 70.8102 56.0496C70.8102 55.7688 70.7363 55.488 70.6133 55.2327C70.7855 55.4624 70.884 55.7433 70.884 56.0496C70.9086 56.356 70.8102 56.6624 70.6379 56.8666Z" fill="white"/>
</g>
<g opacity="0.3">
<path opacity="0.3" d="M71.1548 56.9179C71.3517 56.7137 71.4994 56.4839 71.5486 56.2286C71.6225 55.9733 71.5486 55.6924 71.4255 55.4371C71.4994 55.5393 71.5732 55.6669 71.6224 55.8201C71.6471 55.9733 71.6471 56.1009 71.6224 56.2541C71.5732 56.5349 71.3763 56.7647 71.1548 56.9179Z" fill="white"/>
</g>
<g opacity="0.3">
<path opacity="0.3" d="M70.4656 56.8156C70.5148 56.6879 70.5394 56.5603 70.564 56.4071C70.5886 56.2794 70.5886 56.1262 70.564 55.9986C70.5394 55.7178 70.4656 55.4625 70.3671 55.2072C70.5394 55.4369 70.6379 55.7178 70.6625 55.9986C70.6625 56.2794 70.6132 56.5858 70.4656 56.8156Z" fill="white"/>
</g>
<g opacity="0.3">
<path opacity="0.3" d="M70.9333 56.9172C71.1302 56.7385 71.2779 56.4577 71.2779 56.2024C71.3025 55.9215 71.2532 55.6407 71.1794 55.3599C71.3271 55.6152 71.4009 55.896 71.3763 56.2024C71.3517 56.4832 71.204 56.764 70.9333 56.9172Z" fill="white"/>
</g>
<g opacity="0.3">
<path opacity="0.3" d="M71.8439 56.8158C71.8932 56.6881 72.0162 56.6115 72.1147 56.535C72.2378 56.4839 72.3854 56.4584 72.5085 56.4839C72.4347 56.5094 72.3854 56.5094 72.3362 56.535C72.287 56.5605 72.2131 56.586 72.1639 56.6115C72.0408 56.6626 71.9424 56.7392 71.8439 56.8158Z" fill="white"/>
</g>
<g opacity="0.3">
<path opacity="0.3" d="M71.9424 56.9175C71.9916 56.7902 72.1147 56.7138 72.2378 56.6883C72.3609 56.6629 72.4839 56.6374 72.607 56.6883C72.4839 56.7138 72.3855 56.7138 72.2624 56.7647C72.1393 56.7902 72.0409 56.8411 71.9424 56.9175Z" fill="white"/>
</g>
<g opacity="0.3">
<path opacity="0.3" d="M72.0163 56.9686C72.1886 56.7904 72.5085 56.7394 72.6808 56.9177C72.5578 56.8922 72.4593 56.8667 72.3363 56.8922C72.2378 56.9177 72.1393 56.9431 72.0163 56.9686Z" fill="white"/>
</g>
<g opacity="0.3">
<path opacity="0.3" d="M72.1147 57.0966C72.1886 57.0202 72.3116 56.9948 72.4101 56.9948C72.5085 56.9948 72.607 57.0457 72.6808 57.122C72.5824 57.122 72.4839 57.0966 72.3855 57.0966C72.3116 57.0711 72.2132 57.0966 72.1147 57.0966Z" fill="white"/>
</g>
<g opacity="0.3">
<path opacity="0.3" d="M72.1886 57.2243C72.2624 57.1734 72.3855 57.1734 72.4839 57.1989C72.5824 57.2243 72.6809 57.3007 72.7055 57.3771C72.607 57.3261 72.5332 57.3007 72.4593 57.2752C72.3609 57.2498 72.287 57.2498 72.1886 57.2243Z" fill="white"/>
</g>
<g opacity="0.3">
<path opacity="0.3" d="M71.7701 56.7137C71.7701 56.5861 71.8193 56.4839 71.8931 56.3818C71.9916 56.3052 72.0901 56.2286 72.2131 56.2542C72.1147 56.3052 72.0162 56.3563 71.9424 56.4329C71.8931 56.535 71.8439 56.6116 71.7701 56.7137Z" fill="white"/>
</g>
<g opacity="0.3">
<path opacity="0.3" d="M69.7272 56.6627C69.7518 56.484 69.7764 56.3308 69.7272 56.1777C69.7026 56.0245 69.5795 55.8968 69.4564 55.7692C69.6287 55.8202 69.7518 55.9734 69.801 56.1521C69.8502 56.3308 69.8256 56.5096 69.7272 56.6627Z" fill="white"/>
</g>
<g opacity="0.3">
<path opacity="0.3" d="M69.5056 56.6628C69.5056 56.5351 69.5056 56.4074 69.481 56.2798C69.4564 56.1521 69.4318 56.0245 69.3333 55.9224C69.4072 55.9479 69.4564 55.999 69.481 56.05C69.5303 56.1011 69.5303 56.1777 69.5549 56.2543C69.5795 56.4074 69.5795 56.5351 69.5056 56.6628Z" fill="white"/>
</g>
<g opacity="0.3">
<path opacity="0.3" d="M69.3333 56.6626C69.3333 56.5605 69.3333 56.4584 69.3087 56.3562C69.2841 56.2541 69.2349 56.1775 69.161 56.1265C69.2103 56.1265 69.2595 56.152 69.3087 56.2031C69.3579 56.2541 69.3826 56.3052 69.3826 56.3562C69.4072 56.4584 69.3826 56.586 69.3333 56.6626Z" fill="white"/>
</g>
<g opacity="0.3">
<path opacity="0.3" d="M69.161 56.7392C69.161 56.6371 69.161 56.5605 69.1364 56.4839C69.1364 56.4584 69.1118 56.4073 69.0872 56.3818C69.0626 56.3563 69.038 56.3307 69.0133 56.2797C69.0626 56.2797 69.1118 56.3052 69.1364 56.3307C69.1856 56.3563 69.2103 56.4073 69.2103 56.4584C69.2349 56.5605 69.2349 56.6626 69.161 56.7392Z" fill="white"/>
</g>
<g opacity="0.3">
<path opacity="0.3" d="M69.038 56.8158C69.0134 56.7392 68.9888 56.6626 68.9395 56.6116C68.9149 56.5605 68.8657 56.5095 68.8165 56.4329C68.8903 56.4329 68.9641 56.4839 69.0134 56.5605C69.0626 56.6371 69.0872 56.7392 69.038 56.8158Z" fill="white"/>
</g>
<g opacity="0.3">
<path opacity="0.3" d="M68.9395 56.969C68.9149 56.8924 68.8903 56.8158 68.8411 56.7392C68.7918 56.6627 68.7426 56.6371 68.6688 56.5861C68.718 56.5861 68.7672 56.5861 68.7918 56.6116C68.8411 56.6371 68.8657 56.6627 68.9149 56.6882C68.9641 56.7648 68.9641 56.8669 68.9395 56.969Z" fill="white"/>
</g>
<g opacity="0.3">
<path opacity="0.3" d="M68.8657 57.1477C68.8164 57.0711 68.7918 57.0201 68.7426 56.9435C68.6934 56.8924 68.6441 56.8414 68.5949 56.7648C68.6934 56.7648 68.7672 56.8158 68.8164 56.8924C68.8657 56.969 68.8903 57.0456 68.8657 57.1477Z" fill="white"/>
</g>
</g>
<path d="M55.0817 77.5978H57.1247L56.9032 75.9384H55.2786L55.0817 77.5978Z" fill="#466299"/>
<path d="M55.0325 77.5978H56.1155H57.1739V77.6999L56.1155 79.053L55.0325 77.6999V77.5978Z" fill="#466299"/>
<path d="M53.851 81.4784L53.5803 77.9807L55.0325 77.5978C55.0325 77.5978 55.5002 78.2616 56.1155 78.2616C56.5832 78.2616 57.1739 77.5978 57.1739 77.5978L58.6508 77.9807L58.3554 81.4784H53.851Z" fill="white"/>
<path d="M52.6695 81.4783L52.768 78.5423L53.5802 77.9806L53.851 81.1208V81.4783H52.6695Z" fill="#466299"/>
<path d="M58.38 81.4783V81.1208L58.6507 77.9806L59.463 78.5423L59.6107 81.4783H58.38Z" fill="#466299"/>
<path d="M53.7525 80.0485L53.5802 77.9806L52.768 78.5423L52.7188 80.0485H53.7525Z" fill="white"/>
<path d="M59.5368 80.0485L59.463 78.5423L58.6507 77.9806L58.4538 80.0485H59.5368Z" fill="white"/>
<path d="M55.2786 75.9384H56.9032L56.977 76.6021C56.7801 76.8064 56.6078 76.934 56.5093 76.934H55.6478C55.5494 76.934 55.3771 76.8064 55.1802 76.6021L55.2786 75.9384Z" fill="#739AD1"/>
<path d="M54.171 74.2787C54.171 74.2787 54.0971 74.2787 54.0725 74.2787C53.9741 74.2787 53.9248 74.1 53.9002 74.0234C53.851 73.8447 53.8264 73.6915 53.8018 73.6149C53.8018 73.5128 53.8264 73.3341 53.9494 73.3341C54.0971 73.3341 54.171 73.4873 54.171 73.4873V74.2787Z" fill="#466299"/>
<path d="M58.06 74.2787C58.06 74.2787 58.1338 74.2787 58.1585 74.2787C58.2569 74.2787 58.3061 74.1 58.3307 74.0234C58.38 73.8447 58.4046 73.6915 58.4292 73.6149C58.4292 73.5128 58.4046 73.3341 58.2815 73.3341C58.1338 73.3341 58.06 73.4873 58.06 73.4873V74.2787Z" fill="#466299"/>
<path d="M54.8848 71.0364C55.3771 70.6279 56.4109 70.3982 57.297 71.0364C58.0354 71.5726 58.1338 72.5427 58.1338 72.5427C58.1338 72.5427 58.1338 74.0745 58.1338 74.8915C58.1338 75.0447 56.8293 76.6276 56.5339 76.6276H55.697C55.4017 76.6276 54.1217 75.0447 54.1217 74.8915C54.1217 74.0745 54.1217 72.4406 54.1217 72.4406C54.1217 72.4406 54.1956 71.5981 54.8848 71.0364Z" fill="#466299"/>
<path d="M56.1155 76.321C56.1155 76.321 56.0909 76.321 56.1155 76.321C55.8448 76.321 55.6725 76.5764 55.6725 76.5764C55.7217 76.6274 55.7709 76.6529 55.8201 76.6529H56.1647H56.4355C56.4601 76.6529 56.5093 76.6274 56.5832 76.5764C56.5586 76.5764 56.3617 76.321 56.1155 76.321Z" fill="#1F274A"/>
<path d="M54.8355 71.0874C55.0325 70.9853 55.2048 70.9342 55.2048 70.9342C55.2048 70.9597 55.3032 71.4193 55.3032 71.4193C55.3032 71.4193 54.7617 71.6491 54.7617 72.1597C54.7617 72.6703 54.1217 72.4916 54.1217 73.0277C54.1217 72.6958 54.1217 72.466 54.1217 72.466C54.1217 72.466 54.1956 71.6491 54.8355 71.0874Z" fill="#1F315B"/>
<path d="M57.3954 71.0874C57.1985 70.9853 57.0262 70.9342 57.0262 70.9342C57.0262 70.9597 56.9278 71.4193 56.9278 71.4193C56.9278 71.4193 57.4693 71.6491 57.4693 72.1597C57.4693 72.6703 58.1092 72.4916 58.1092 73.0277C58.1092 72.6958 58.1092 72.466 58.1092 72.466C58.1092 72.466 58.06 71.6491 57.3954 71.0874Z" fill="#1F315B"/>
<path d="M57.8138 72.0576V73.3086C57.8138 73.8447 58.1338 74.0745 58.1338 74.0745V73.1044C58.1092 72.6959 57.9615 72.3385 57.8138 72.0576Z" fill="#1F274A"/>
<path d="M54.4417 72.0576V73.3086C54.4417 73.8447 54.1217 74.0745 54.1217 74.0745V73.0533C54.1217 72.6703 54.294 72.3385 54.4417 72.0576Z" fill="#1F274A"/>
<path d="M58.1093 72.747C58.1093 72.6704 58.1339 72.5683 58.1339 72.4917C58.1339 71.4449 57.2478 70.5769 56.1401 70.5769C55.0325 70.5769 54.1464 71.4449 54.1464 72.4917C54.1464 72.5683 54.1464 72.6704 54.171 72.747C54.171 72.747 55.2294 72.4151 56.1648 72.4151C56.977 72.4151 58.1093 72.747 58.1093 72.747Z" fill="#25387B"/>
<path d="M56.1401 72.083C55.3279 72.083 54.3925 72.3128 54.1464 72.3894C54.1464 72.4149 54.1464 72.466 54.1464 72.4915C54.1464 72.5681 54.1464 72.6702 54.171 72.7468C55.1802 72.4404 55.1802 72.4149 56.1648 72.4149C57.0016 72.4149 58.1585 72.7468 58.1585 72.7468C58.1585 72.6702 58.1831 72.5681 58.1831 72.4915C58.1831 72.466 58.1831 72.4149 58.1831 72.3894C57.8631 72.3383 56.8786 72.083 56.1401 72.083Z" fill="#263571"/>
<path d="M56.0663 71.7514L56.4355 71.6493L56.3124 71.8791L56.1893 72.1088L55.9432 71.9812L55.7217 71.8535L56.0663 71.7514Z" fill="#1D406C"/>
<path d="M55.4263 71.8782H55.3771V71.8527V71.8273C55.3771 71.8273 55.3771 71.8273 55.3771 71.8527V71.8782C55.3771 71.8782 55.3771 71.8782 55.4017 71.9037C55.4263 71.9291 55.4509 71.9291 55.4755 71.9291C55.4755 71.9291 55.5001 71.9546 55.5001 71.98C55.5001 72.0055 55.5001 72.0055 55.5001 72.0309C55.5001 72.0309 55.5001 72.0564 55.4755 72.0564C55.4755 72.0564 55.4509 72.0564 55.4263 72.0819C55.4017 72.0819 55.4017 72.0819 55.3771 72.0819C55.3524 72.0819 55.3524 72.0564 55.3524 72.0564C55.3524 72.0564 55.3524 72.0309 55.3524 72.0055V71.98H55.4263V72.0055V72.0309C55.4263 72.0309 55.4263 72.0309 55.4263 72.0055C55.4263 71.98 55.4263 71.98 55.4263 71.98C55.4263 71.98 55.4017 71.98 55.4017 71.9546C55.3771 71.9546 55.3771 71.9291 55.3771 71.9291C55.3771 71.9291 55.3771 71.9291 55.3524 71.9037V71.8782C55.3524 71.8527 55.3524 71.8527 55.3524 71.8273C55.3524 71.8273 55.3524 71.8018 55.3771 71.8018C55.3771 71.8018 55.4017 71.8018 55.4263 71.7764C55.4509 71.7764 55.4509 71.7764 55.4755 71.7764C55.5001 71.7764 55.5001 71.7764 55.5001 71.8018C55.4263 71.8273 55.4263 71.8527 55.4263 71.8782Z" fill="#82A6D8"/>
<path d="M55.5493 71.8018L55.6232 72.0564H55.5493V72.0055H55.5247V72.0564H55.4509V71.7764L55.5493 71.8018ZM55.5493 71.9546C55.5493 71.9291 55.5247 71.8782 55.5247 71.8527C55.5247 71.9037 55.5247 71.9546 55.5493 71.9546Z" fill="#82A6D8"/>
<path d="M55.8201 71.7764L55.8447 72.0309H55.7955L55.7709 71.8527V72.0309H55.7217L55.6724 71.8527L55.697 72.0309H55.6478L55.6232 71.7764H55.697C55.697 71.8018 55.697 71.8018 55.7217 71.8273L55.7463 71.9037V71.7764H55.8201Z" fill="#82A6D8"/>
<path d="M55.8447 71.7764H55.9186C55.9432 71.7764 55.9432 71.7764 55.9678 71.7764H55.9924C55.9924 71.7764 55.9924 71.7764 55.9924 71.8018V71.8273V71.8527C55.9924 71.8782 55.9924 71.8782 55.9924 71.8782C55.9924 71.8782 55.9924 71.9037 55.9678 71.9037H55.9432H55.9186V72.0055H55.8447V71.7764ZM55.9186 71.8018V71.8782C55.9186 71.8782 55.9186 71.8782 55.9432 71.8782C55.9432 71.8782 55.9432 71.8782 55.9432 71.8527L55.9186 71.8018C55.9432 71.8273 55.9432 71.8018 55.9186 71.8018C55.9432 71.8018 55.9432 71.8018 55.9186 71.8018Z" fill="#82A6D8"/>
<path d="M56.0909 71.7509V71.9545H56.1401V72.0054H56.0416V71.7509H56.0909Z" fill="#82A6D8"/>
<path d="M56.1647 71.7509H56.2878V71.8018H56.2385V71.8527H56.2878V71.9036H56.2385V71.9545H56.2878V72.0054H56.1647V71.7509Z" fill="#82A6D8"/>
<path d="M56.5585 71.7764V71.8273H56.5093L56.4847 72.0309H56.4108L56.4355 71.8273H56.3862V71.7764H56.5585Z" fill="#82A6D8"/>
<path d="M56.5585 71.7764H56.657V71.8273H56.6077V71.8782H56.657V71.9291H56.6077V71.98H56.657V72.0309H56.5339L56.5585 71.7764Z" fill="#82A6D8"/>
<path d="M56.8293 71.8018L56.8047 71.9036L56.8293 72.0564H56.7554C56.7554 72.0309 56.7554 72.0054 56.7554 71.9545C56.7554 71.98 56.7554 71.98 56.7308 72.0054V72.0564H56.657L56.7062 71.9036V71.7763H56.7801V71.8018C56.7801 71.8272 56.7801 71.8272 56.7801 71.8272L56.8047 71.7509L56.8293 71.8018Z" fill="#82A6D8"/>
<path d="M57.0016 71.8271V71.8781H56.9523L56.9277 72.0817H56.8539L56.8785 71.8781H56.8293V71.8271H57.0016Z" fill="#82A6D8"/>
<path d="M56.1154 70.1938C54.8355 70.1938 53.8263 71.3172 53.8263 72.6958V72.7469H54.0479V72.6958C54.0479 71.4448 54.9832 70.4492 56.1154 70.4492C57.2477 70.4492 58.183 71.4704 58.183 72.6958V72.7469H58.4046V72.6958C58.4046 71.3172 57.3708 70.1938 56.1154 70.1938Z" fill="#25387B"/>
<path d="M58.3307 72.6955H58.2815C58.2815 71.3935 57.3215 70.3467 56.1154 70.3467C54.9094 70.3467 53.9494 71.3935 53.9494 72.6955H53.9002C53.9002 71.3679 54.8847 70.2957 56.1154 70.2957C57.3215 70.2957 58.3307 71.3679 58.3307 72.6955Z" fill="#4E7AB9"/>
<path d="M53.5556 72.8226V74.1757C53.4079 74.1502 53.2848 73.8694 53.2848 73.512C53.2602 73.1545 53.3833 72.8482 53.5556 72.8226Z" fill="#25387B"/>
<path d="M53.5064 72.7722C53.531 72.6956 53.5803 72.6701 53.6541 72.6446C53.728 72.6191 53.7526 72.5935 53.8018 72.568V74.4317C53.7526 74.4062 53.7033 74.3806 53.6541 74.3551C53.5803 74.3296 53.531 74.3041 53.5064 74.2275C53.408 73.9466 53.408 73.0531 53.5064 72.7722Z" fill="#416CB1"/>
<path d="M53.6787 74.3299C53.6787 74.4065 53.7279 74.4575 53.7772 74.4575H54.0479C54.0971 74.4575 54.1464 74.4065 54.1464 74.3299V72.6449C54.1464 72.5683 54.0971 72.5172 54.0479 72.5172H53.7772C53.7279 72.5172 53.6787 72.5683 53.6787 72.6449V74.3299Z" fill="#25387B"/>
<path d="M58.7246 72.8226V74.1757C58.8723 74.1502 58.9954 73.8694 58.9954 73.512C58.9954 73.1545 58.8723 72.8482 58.7246 72.8226Z" fill="#25387B"/>
<path d="M58.7738 72.7722C58.7492 72.6956 58.7 72.6701 58.6261 72.6446C58.5523 72.6191 58.5277 72.5935 58.4784 72.568V74.4317C58.5277 74.4062 58.5769 74.3806 58.6261 74.3551C58.7 74.3296 58.7492 74.3041 58.7738 74.2275C58.8476 73.9466 58.8476 73.0531 58.7738 72.7722Z" fill="#416CB1"/>
<path d="M58.6015 74.3299C58.6015 74.4065 58.5523 74.4575 58.503 74.4575H58.2323C58.183 74.4575 58.1338 74.4065 58.1338 74.3299V72.6449C58.1338 72.5683 58.183 72.5172 58.2323 72.5172H58.503C58.5523 72.5172 58.6015 72.5683 58.6015 72.6449V74.3299Z" fill="#25387B"/>
</svg>
