<svg xmlns="http://www.w3.org/2000/svg" xmlns:xlink="http://www.w3.org/1999/xlink" viewBox="0 0 162.26 132.9"><defs><style>.cls-1{fill:#92b4d1;opacity:0.2;}.cls-2{fill:#72b5e8;}.cls-3{fill:#d1ebff;}.cls-4{fill:#a8cff0;}.cls-5{fill:#084c94;}.cls-6{fill:#2672ab;}.cls-7{fill:#fff;}.cls-8{fill:#d62d69;}.cls-9{fill:#f76195;}.cls-10{fill:#0ba19f;}.cls-11{fill:#3ecfcd;}.cls-12{fill:#3f92d1;}.cls-13{fill:#03336e;}.cls-14{fill:url(#linear-gradient);}.cls-15{fill:url(#linear-gradient-2);}.cls-16{fill:#0fbab8;}.cls-17{fill:#f0f8ff;}.cls-18{fill:#fc0;}.cls-19{fill:#ffde17;}</style><linearGradient id="linear-gradient" x1="111.65" y1="117.9" x2="125.88" y2="65.55" gradientUnits="userSpaceOnUse"><stop offset="0" stop-color="#25054d"/><stop offset="1" stop-color="#45108a"/></linearGradient><linearGradient id="linear-gradient-2" x1="140.42" y1="104.77" x2="86.09" y2="104.77" gradientUnits="userSpaceOnUse"><stop offset="0" stop-color="#45108a"/><stop offset="0.14" stop-color="#4d1299"/><stop offset="0.32" stop-color="#5915b3"/><stop offset="0.61" stop-color="#25054d"/><stop offset="0.83" stop-color="#3b0c75"/><stop offset="0.99" stop-color="#2f0960"/></linearGradient></defs><title>Recurso 2transp</title><g id="Capa_2" data-name="Capa 2"><g id="Layer_1" data-name="Layer 1"><ellipse class="cls-1" cx="119.22" cy="117.21" rx="37.32" ry="15.69"/><polygon class="cls-2" points="111.57 59.49 111.57 96.28 54.99 64.28 54.99 27.53 111.57 59.49"/><path class="cls-3" d="M112.34,97.6,54.22,64.73V26.21L112.34,59ZM55.77,63.83,110.8,95v-35l-55-31.09Z"/><polygon class="cls-4" points="13.45 68.68 13.45 99.06 95.14 51.48 68.19 36.28 13.45 68.68"/><polygon class="cls-3" points="10.36 66.89 13.49 68.68 68.19 36.28 64.98 34.44 10.36 66.89"/><path class="cls-5" d="M78.75,48.14v3.37l-22.58-13a1.19,1.19,0,0,0-1.79,1V75l43.08,25a3.18,3.18,0,0,0,3.26,0l.92-.57A2.86,2.86,0,0,0,103,97V62a3.25,3.25,0,0,0-1.63-2.82l-20.82-12A1.2,1.2,0,0,0,78.75,48.14Z"/><path class="cls-6" d="M55.68,38.88l22.58,13v-.7L56.17,38.47a1.19,1.19,0,0,0-1.58.37A1.2,1.2,0,0,1,55.68,38.88Z"/><path class="cls-6" d="M101.37,59.13l-20.82-12a1.19,1.19,0,0,0-1.58.36,1.17,1.17,0,0,1,1.09.05l20.82,12a3.25,3.25,0,0,1,1.63,2.82V97.43a2.88,2.88,0,0,1-.79,2A2.85,2.85,0,0,0,103,97V62A3.25,3.25,0,0,0,101.37,59.13Z"/><polygon class="cls-7" points="52.16 71.34 100.78 99.42 100.78 68.53 52.16 40.45 52.16 71.34"/><path class="cls-5" d="M52.54,74.07l45,26a3.12,3.12,0,0,0,3,0l.29-.16-.3.12a1.13,1.13,0,0,1-1.53-1V74.12a3.25,3.25,0,0,0-1.63-2.82L52.22,45.21a1.19,1.19,0,0,0-1.79,1V70.42A4.2,4.2,0,0,0,52.54,74.07Z"/><path class="cls-6" d="M100.58,100.06a1.13,1.13,0,0,1-1.53-1V74.12a3.25,3.25,0,0,0-1.63-2.82L52.22,45.21a1.18,1.18,0,0,0-1.49.25,1.14,1.14,0,0,1,1.06.06L97,71.61a3.25,3.25,0,0,1,1.63,2.82V99.32a1.12,1.12,0,0,0,1,1.11,3.1,3.1,0,0,0,1-.33l.29-.16Z"/><path class="cls-5" d="M69,53.78v3.36l-22.58-13a1.2,1.2,0,0,0-1.8,1V80.68l43.09,25a3.16,3.16,0,0,0,3.25,0l.92-.57a2.89,2.89,0,0,0,1.36-2.45V67.59a3.27,3.27,0,0,0-1.63-2.83l-20.82-12A1.19,1.19,0,0,0,69,53.78Z"/><path class="cls-6" d="M45.91,44.52l22.58,13v-.7L46.41,44.11a1.2,1.2,0,0,0-1.59.36A1.17,1.17,0,0,1,45.91,44.52Z"/><path class="cls-6" d="M91.6,64.76l-20.82-12a1.19,1.19,0,0,0-1.58.37,1.2,1.2,0,0,1,1.09,0l20.82,12A3.24,3.24,0,0,1,92.74,68v35.07a2.9,2.9,0,0,1-.79,2,2.88,2.88,0,0,0,1.28-2.39V67.59A3.27,3.27,0,0,0,91.6,64.76Z"/><polygon class="cls-7" points="42.39 76.98 91.02 105.05 91.02 74.16 42.39 46.09 42.39 76.98"/><path class="cls-5" d="M42.77,79.71l45,26a3.13,3.13,0,0,0,3,0l.3-.16-.31.12a1.12,1.12,0,0,1-1.52-1V79.76a3.24,3.24,0,0,0-1.63-2.82l-45.2-26.1a1.2,1.2,0,0,0-1.8,1V76.06A4.24,4.24,0,0,0,42.77,79.71Z"/><path class="cls-6" d="M90.81,105.7a1.12,1.12,0,0,1-1.52-1V79.76a3.24,3.24,0,0,0-1.63-2.82l-45.2-26.1a1.19,1.19,0,0,0-1.49.25,1.17,1.17,0,0,1,1.06.06l45.2,26.1a3.25,3.25,0,0,1,1.62,2.82V105a1.13,1.13,0,0,0,1,1.11,3.18,3.18,0,0,0,1-.33l.3-.16Z"/><path class="cls-8" d="M59.35,59.54V62.9l-22.59-13a1.19,1.19,0,0,0-1.79,1V86.44l43.08,25a3.18,3.18,0,0,0,3.26,0l.92-.57a2.89,2.89,0,0,0,1.36-2.45V73.35A3.27,3.27,0,0,0,82,70.52l-20.82-12A1.19,1.19,0,0,0,59.35,59.54Z"/><path class="cls-9" d="M36.27,50.28l22.58,13v-.7L36.76,49.87a1.19,1.19,0,0,0-1.58.36A1.17,1.17,0,0,1,36.27,50.28Z"/><path class="cls-9" d="M82,70.52l-20.82-12a1.19,1.19,0,0,0-1.58.37,1.2,1.2,0,0,1,1.09,0l20.82,12a3.24,3.24,0,0,1,1.63,2.82v35.07a2.9,2.9,0,0,1-.79,2,2.88,2.88,0,0,0,1.28-2.39V73.35A3.27,3.27,0,0,0,82,70.52Z"/><polygon class="cls-7" points="32.75 82.74 81.37 110.81 81.37 79.92 32.75 51.85 32.75 82.74"/><path class="cls-8" d="M33.13,85.47l45,26a3.15,3.15,0,0,0,3.05,0l.29-.16-.3.12a1.13,1.13,0,0,1-1.53-1V85.52A3.25,3.25,0,0,0,78,82.7L32.82,56.6a1.2,1.2,0,0,0-1.8,1V81.82A4.22,4.22,0,0,0,33.13,85.47Z"/><path class="cls-9" d="M81.17,111.46a1.13,1.13,0,0,1-1.53-1V85.52A3.25,3.25,0,0,0,78,82.7L32.82,56.6a1.21,1.21,0,0,0-1.5.25,1.17,1.17,0,0,1,1.06.06L77.58,83a3.24,3.24,0,0,1,1.63,2.82v24.89a1.13,1.13,0,0,0,1,1.11,3.36,3.36,0,0,0,1-.33l.29-.16Z"/><path class="cls-10" d="M49.7,65.3v3.36l-22.58-13a1.19,1.19,0,0,0-1.79,1V92.2l43.08,25a3.18,3.18,0,0,0,3.26,0l.92-.57A2.91,2.91,0,0,0,74,114.18V79.11a3.27,3.27,0,0,0-1.63-2.83l-20.82-12A1.2,1.2,0,0,0,49.7,65.3Z"/><path class="cls-11" d="M26.63,56l22.58,13v-.7L27.12,55.63a1.19,1.19,0,0,0-1.58.36A1.17,1.17,0,0,1,26.63,56Z"/><path class="cls-11" d="M72.32,76.28l-20.82-12a1.19,1.19,0,0,0-1.58.37,1.2,1.2,0,0,1,1.09,0l20.82,12a3.24,3.24,0,0,1,1.63,2.82v35.07a2.9,2.9,0,0,1-.79,2A2.88,2.88,0,0,0,74,114.18V79.11A3.27,3.27,0,0,0,72.32,76.28Z"/><polygon class="cls-7" points="23.11 88.5 71.73 116.57 71.73 85.68 23.11 57.61 23.11 88.5"/><path class="cls-10" d="M23.49,91.23l45,26a3.15,3.15,0,0,0,3.05.05l.29-.16-.3.12a1.13,1.13,0,0,1-1.53-1V91.28a3.24,3.24,0,0,0-1.63-2.82l-45.2-26.1a1.2,1.2,0,0,0-1.79,1V87.58A4.22,4.22,0,0,0,23.49,91.23Z"/><path class="cls-11" d="M71.53,117.22a1.13,1.13,0,0,1-1.53-1V91.28a3.24,3.24,0,0,0-1.63-2.82l-45.2-26.1a1.2,1.2,0,0,0-1.49.25,1.17,1.17,0,0,1,1.06.06l45.2,26.1a3.24,3.24,0,0,1,1.63,2.82v24.89a1.13,1.13,0,0,0,1,1.11,3.36,3.36,0,0,0,1-.33l.29-.16Z"/><polygon class="cls-4" points="57.56 103.36 57.56 126.21 110.71 94.58 110.71 71.74 57.56 103.36"/><polygon class="cls-3" points="40.13 110.17 43.26 111.97 110.71 72.16 110.72 68.4 40.13 110.17"/><polygon class="cls-6" points="63.47 93.7 63.47 132.18 66.96 130.19 66.96 91.71 63.47 93.7"/><polygon class="cls-12" points="63.51 93.7 63.51 132.18 0 95.16 0 56.72 63.51 93.7"/><polygon class="cls-2" points="2.05 93.98 2.05 60.29 61.45 94.88 61.45 128.61 2.05 93.98"/><polygon class="cls-2" points="0 56.72 63.51 93.7 66.96 91.71 3.39 54.69 0 56.72"/><polygon class="cls-4" points="0.51 56.46 0.51 57.46 63.18 93.96 63.18 131.44 64.02 131.93 64.02 93.44 0.51 56.46"/><path class="cls-5" d="M36.71,89a6.84,6.84,0,0,0-3.12-5.38,2.22,2.22,0,0,0-2.14-.26h0l-1.69.91.23.39a3,3,0,0,0-.16,1A6.88,6.88,0,0,0,33,91.05a3.27,3.27,0,0,0,1,.39l.23.39L35.71,91A2.1,2.1,0,0,0,36.71,89Z"/><path class="cls-6" d="M35.55,90.51a9,9,0,0,0-4.09-7.05,2.94,2.94,0,0,0-2.81-.33l-.85.46.3.51a4.07,4.07,0,0,0-.21,1.37,9,9,0,0,0,4.09,7A4.12,4.12,0,0,0,33.3,93l.41.5.64-.35C35.15,92.79,35.55,91.88,35.55,90.51Z"/><path class="cls-12" d="M34.77,90.94c0,2.59-1.83,3.64-4.09,2.33a9,9,0,0,1-4.09-7c0-2.59,1.83-3.63,4.09-2.33A9,9,0,0,1,34.77,90.94Z"/><path class="cls-2" d="M30.81,83.87a3.41,3.41,0,0,0-2.21-.53,3.52,3.52,0,0,1,2.08.55,9,9,0,0,1,4.09,7c0,1.65-.75,2.68-1.87,2.86,1.2-.12,2-1.16,2-2.88A9,9,0,0,0,30.81,83.87Z"/><path class="cls-13" d="M145.86,109.59H81.81v3.48h0c0,.08,0,.17,0,.25,0,10.3,14.34,18.65,32,18.65s32-8.35,32-18.65c0-.08,0-.17,0-.25h0Z"/><ellipse class="cls-6" cx="113.84" cy="109.72" rx="32.03" ry="18.65"/><path class="cls-4" d="M113.84,128.3c-17.5,0-31.71-8.17-32-18.32,0,.11,0,.22,0,.34,0,10.3,14.34,18.65,32,18.65s32-8.35,32-18.65c0-.12,0-.23,0-.34C145.54,120.13,131.33,128.3,113.84,128.3Z"/><ellipse class="cls-14" cx="113.84" cy="109.84" rx="27.01" ry="15.62"/><path class="cls-15" d="M113.84,105.15c11.59,0,21.44,4.23,25.28,10.16a10,10,0,0,0,1.73-5.47c0-8.62-12.09-15.61-27-15.61s-27,7-27,15.61a10,10,0,0,0,1.73,5.47C92.39,109.38,102.25,105.15,113.84,105.15Z"/><path class="cls-16" d="M147.62,91.1a.51.51,0,0,1-.45-.29c-.28-.6-.57-1.19-.87-1.78a.49.49,0,0,1,.22-.67.5.5,0,0,1,.67.21c.31.6.6,1.21.89,1.82a.5.5,0,0,1-.24.66A.54.54,0,0,1,147.62,91.1Zm-2.31-4.43a.5.5,0,0,1-.43-.25c-.34-.57-.68-1.14-1-1.7A.49.49,0,0,1,144,84a.51.51,0,0,1,.69.16c.35.57.7,1.14,1,1.73a.49.49,0,0,1-.18.68A.47.47,0,0,1,145.31,86.67Zm-2.7-4.21a.49.49,0,0,1-.41-.21c-.38-.54-.77-1.07-1.17-1.6a.5.5,0,0,1,.09-.7.51.51,0,0,1,.7.1c.41.53.81,1.07,1.19,1.62a.51.51,0,0,1-.11.7A.52.52,0,0,1,142.61,82.46Zm-3.07-3.94a.49.49,0,0,1-.38-.18c-.43-.5-.86-1-1.31-1.49a.5.5,0,0,1,.74-.67c.45.49.9,1,1.33,1.51a.51.51,0,0,1,0,.71A.52.52,0,0,1,139.54,78.52Zm-3.4-3.66a.51.51,0,0,1-.36-.15,8.48,8.48,0,0,1-1.3-1.68.5.5,0,1,1,.86-.5A7.77,7.77,0,0,0,136.49,74a.5.5,0,0,1,0,.71A.5.5,0,0,1,136.14,74.86Zm-2.24-4.39a.49.49,0,0,1-.49-.42,8.58,8.58,0,0,1-.11-1.35,6.45,6.45,0,0,1,0-.76.5.5,0,0,1,.54-.46.5.5,0,0,1,.45.55c0,.22,0,.45,0,.67a6.94,6.94,0,0,0,.1,1.2.51.51,0,0,1-.42.57Zm.75-4.86a.48.48,0,0,1-.23,0,.5.5,0,0,1-.22-.67,8.34,8.34,0,0,1,1.18-1.76.5.5,0,0,1,.75.65,7.71,7.71,0,0,0-1,1.56A.49.49,0,0,1,134.65,65.61Zm3.18-3.82a.49.49,0,0,1-.36-.84c.45-.48.89-1,1.32-1.48a.49.49,0,0,1,.7,0,.51.51,0,0,1,.06.71q-.66.76-1.35,1.5A.49.49,0,0,1,137.83,61.79ZM141.06,58a.5.5,0,0,1-.3-.11.5.5,0,0,1-.09-.7c.4-.52.8-1.05,1.18-1.59a.51.51,0,0,1,.7-.11.5.5,0,0,1,.12.7c-.4.54-.8,1.08-1.21,1.61A.51.51,0,0,1,141.06,58Zm2.88-4.09a.54.54,0,0,1-.27-.07.51.51,0,0,1-.15-.7c.36-.55.71-1.11,1-1.68a.51.51,0,0,1,.69-.18.49.49,0,0,1,.17.69q-.51.87-1,1.71A.51.51,0,0,1,143.94,53.89Zm2.52-4.32a.69.69,0,0,1-.24,0,.51.51,0,0,1-.21-.68c.31-.59.61-1.18.89-1.77a.5.5,0,1,1,.9.43q-.44.91-.9,1.8A.51.51,0,0,1,146.46,49.57Zm2.12-4.52a.71.71,0,0,1-.2,0,.5.5,0,0,1-.26-.66c.25-.61.49-1.22.72-1.84a.5.5,0,0,1,.65-.29.49.49,0,0,1,.29.64c-.24.63-.48,1.26-.74,1.88A.51.51,0,0,1,148.58,45.05Zm1.71-4.7-.15,0a.51.51,0,0,1-.33-.63c.2-.63.39-1.26.57-1.9a.49.49,0,0,1,.61-.35.5.5,0,0,1,.35.62c-.18.64-.37,1.29-.57,1.93A.51.51,0,0,1,150.29,40.35Zm1.29-4.83h-.11a.5.5,0,0,1-.38-.6c.14-.64.27-1.29.39-1.94a.51.51,0,0,1,.59-.4.5.5,0,0,1,.4.58c-.12.66-.26,1.32-.4,2A.5.5,0,0,1,151.58,35.52Zm.86-4.92h-.07a.49.49,0,0,1-.43-.56c.08-.65.16-1.31.22-2a.51.51,0,0,1,.54-.45.49.49,0,0,1,.45.54c-.06.67-.13,1.34-.22,2A.5.5,0,0,1,152.44,30.6Zm.4-5h0a.5.5,0,0,1-.49-.52c0-.66,0-1.32,0-2a.5.5,0,0,1,1,0c0,.68,0,1.35,0,2A.5.5,0,0,1,152.84,25.61Z"/><path class="cls-4" d="M160.16,110.2a.51.51,0,0,1-.5-.5c0-.29,0-.57,0-.86a.5.5,0,0,1,.49-.51h0a.51.51,0,0,1,.5.49c0,.29,0,.59,0,.88A.5.5,0,0,1,160.16,110.2Zm-.17-3.86a.5.5,0,0,1-.49-.46c-.06-.66-.13-1.32-.22-2a.51.51,0,0,1,.43-.57.5.5,0,0,1,.56.43c.09.67.17,1.34.22,2a.5.5,0,0,1-.45.54Zm-.7-5a.49.49,0,0,1-.49-.4c-.13-.65-.28-1.29-.44-1.93a.5.5,0,0,1,1-.24c.16.65.3,1.31.44,2a.5.5,0,0,1-.4.59ZM158,96.55a.5.5,0,0,1-.48-.35c-.2-.63-.41-1.25-.63-1.87a.5.5,0,0,1,.94-.34c.23.63.44,1.27.65,1.91a.51.51,0,0,1-.33.63A.39.39,0,0,1,158,96.55Zm-1.74-4.68a.51.51,0,0,1-.46-.31c-.26-.61-.53-1.21-.81-1.81a.5.5,0,0,1,.25-.66.5.5,0,0,1,.66.24c.28.6.56,1.22.82,1.84a.51.51,0,0,1-.26.66A.65.65,0,0,1,156.3,91.87Zm-2.16-4.51a.52.52,0,0,1-.44-.26q-.47-.88-1-1.74a.5.5,0,0,1,.19-.68.49.49,0,0,1,.68.18c.33.58.66,1.17,1,1.76a.51.51,0,0,1-.21.68A.53.53,0,0,1,154.14,87.36ZM151.63,83a.48.48,0,0,1-.42-.24l-1.08-1.66a.5.5,0,0,1,.13-.7.51.51,0,0,1,.7.14c.37.56.73,1.12,1.09,1.69a.5.5,0,0,1-.15.69A.56.56,0,0,1,151.63,83Zm-2.8-4.15a.48.48,0,0,1-.4-.21c-.39-.54-.79-1.07-1.18-1.6a.51.51,0,0,1,.1-.7.5.5,0,0,1,.7.1c.4.53.79,1.07,1.19,1.62a.5.5,0,0,1-.41.79Zm-3-4a.53.53,0,0,1-.4-.19c-.41-.53-.83-1-1.24-1.56a.51.51,0,0,1,.08-.71.5.5,0,0,1,.7.08l1.25,1.57a.5.5,0,0,1-.09.7A.5.5,0,0,1,145.83,74.9Zm-2.77-4.13a.5.5,0,0,1-.48-.34,7.28,7.28,0,0,1-.34-2.12.5.5,0,0,1,.5-.5h0a.5.5,0,0,1,.5.49,5.93,5.93,0,0,0,.3,1.82.51.51,0,0,1-.32.63Zm.34-4.86a.54.54,0,0,1-.22,0,.5.5,0,0,1-.23-.67,7.3,7.3,0,0,1,.85-1.35l.32-.4a.5.5,0,0,1,.7-.08.5.5,0,0,1,.09.7l-.33.41a6.37,6.37,0,0,0-.73,1.15A.51.51,0,0,1,143.4,65.91Zm2.91-4.06a.52.52,0,0,1-.29-.09.5.5,0,0,1-.12-.7c.37-.54.74-1.09,1.1-1.65a.5.5,0,0,1,.84.54c-.36.57-.74,1.13-1.12,1.68A.52.52,0,0,1,146.31,61.85ZM149,57.62a.47.47,0,0,1-.25-.07.5.5,0,0,1-.19-.68c.33-.57.64-1.15.95-1.74a.49.49,0,0,1,.67-.22.51.51,0,0,1,.21.68c-.3.59-.62,1.19-1,1.77A.51.51,0,0,1,149,57.62Z"/><path class="cls-17" d="M141.86,108.75v-4a37.64,37.64,0,0,0-19.94-33.21L119.08,70a1.82,1.82,0,0,1-.08-3.16L123.74,64a37.62,37.62,0,0,0,18.12-32.17V20.4h-56V31.53a37.64,37.64,0,0,0,18.51,32.41l4.81,2.83a1.83,1.83,0,0,1-.09,3.19l-2.91,1.51a37.62,37.62,0,0,0-20.32,33.4v3.66c-.44,4.46,2.28,9,8.22,12.45,11,6.36,28.79,6.39,39.72.07C139.61,117.68,142.28,113.18,141.86,108.75Z"/><path class="cls-18" d="M133.59,52a35.08,35.08,0,0,1-11,10l-4.74,2.88a4.1,4.1,0,0,0-2,3.62c0,1,.85,9.2,1.43,14.82a9,9,0,0,0,5.89,7.57c9.18,3.25,16.41,2.8,16.41,13.82V109c.36,3.68-2.18,7.37-7,10.13S121.09,123.5,114,123.5h0c-7.15,0-13.84-1.6-18.85-4.48s-7.45-6.56-7.09-10.27v-3.87c0-11.2,7.37-10.79,16.75-14.06a9,9,0,0,0,6-7.53c.61-5.62,1.49-13.87,1.52-14.84a4.11,4.11,0,0,0-2-3.64L105.49,62a35.55,35.55,0,0,1-10.4-8.81Z"/><ellipse class="cls-19" cx="114.02" cy="48.32" rx="20.62" ry="12.01"/><path class="cls-13" d="M145.86,18.52H81.81V22h0c0,.09,0,.17,0,.26,0,10.3,14.34,18.65,32,18.65s32-8.35,32-18.65c0-.09,0-.17,0-.26h0Z"/><ellipse class="cls-6" cx="113.84" cy="18.65" rx="32.03" ry="18.65"/><path class="cls-4" d="M113.84,37.22c-17.5,0-31.71-8.17-32-18.31,0,.11,0,.22,0,.33,0,10.3,14.34,18.65,32,18.65s32-8.35,32-18.65c0-.11,0-.22,0-.33C145.54,29.05,131.33,37.22,113.84,37.22Z"/><path class="cls-19" d="M111,91.82s-15.3,5.7-17.85,10.8-.45,8.55,4.5,8.85S99,103.07,111,91.82Z"/><path class="cls-4" d="M159.8,111.91h-.05a.49.49,0,0,1-.43-.37l-1-3.85a.49.49,0,0,1,.35-.61.48.48,0,0,1,.61.35l.69,2.62,1.35-2.56a.52.52,0,0,1,.68-.21.51.51,0,0,1,.21.68l-1.95,3.69A.51.51,0,0,1,159.8,111.91Z"/></g></g></svg>