<svg width="25" height="21" viewBox="0 0 25 21" fill="none" xmlns="http://www.w3.org/2000/svg">
<path d="M25 2.75755C24.0806 3.15414 23.0802 3.43956 22.0496 3.55073C23.1196 2.91509 23.9208 1.9109 24.303 0.726548C23.299 1.3238 22.1991 1.7426 21.0522 1.96438C20.5728 1.4519 19.993 1.04364 19.3489 0.765027C18.7049 0.486418 18.0104 0.343433 17.3086 0.344983C14.4694 0.344983 12.186 2.64639 12.186 5.47057C12.186 5.86716 12.2341 6.26374 12.3122 6.64531C8.06093 6.42298 4.26932 4.39197 1.74859 1.28237C1.28928 2.06688 1.04859 2.96013 1.05156 3.8692C1.05156 5.64783 1.95589 7.21615 3.33494 8.13852C2.52225 8.10651 1.72859 7.88313 1.01851 7.48655V7.54965C1.01851 10.0403 2.77911 12.1044 5.12559 12.5791C4.68501 12.6935 4.23178 12.7521 3.77659 12.7533C3.4431 12.7533 3.12763 12.7203 2.80916 12.6752C3.45812 14.7062 5.34791 16.1814 7.59825 16.2295C5.83764 17.6085 3.63238 18.4197 1.23783 18.4197C0.808196 18.4197 0.411609 18.4047 0 18.3566C2.27136 19.8138 4.96635 20.655 7.86865 20.655C17.2906 20.655 22.4462 12.8495 22.4462 6.07446C22.4462 5.85213 22.4462 5.62981 22.4312 5.40748C23.4287 4.6774 24.303 3.77306 25 2.75755Z" fill="#EEF1F1"/>
</svg>
